{"glyphs":{"0":{"ha":883,"x_min":93,"x_max":791,"o":"m 791 505 q 706 106 791 233 q 442 -21 621 -21 q 177 108 260 -21 q 93 504 93 237 q 178 902 93 773 q 442 1030 262 1030 q 708 900 624 1030 q 791 505 791 769 m 613 197 q 645 327 637 252 q 654 505 654 401 q 645 684 654 608 q 612 813 637 760 q 548 892 589 865 q 442 918 507 918 q 337 892 378 918 q 271 812 295 865 q 239 681 248 762 q 231 504 231 600 q 238 327 231 398 q 270 199 245 256 q 333 119 292 146 q 442 91 374 91 q 548 117 506 91 q 613 197 590 144 z "},"1":{"ha":883,"x_min":189,"x_max":735,"o":"m 735 0 l 189 0 l 189 103 l 399 103 l 399 780 l 189 780 l 189 872 q 280 879 231 872 q 354 900 329 886 q 403 943 385 917 q 424 1013 421 969 l 529 1013 l 529 103 l 735 103 l 735 0 z "},"2":{"ha":883,"x_min":109,"x_max":793,"o":"m 793 0 l 109 0 l 109 142 q 252 264 180 203 q 385 385 323 325 q 564 586 515 511 q 612 746 612 660 q 560 869 612 825 q 415 913 508 913 q 281 892 353 913 q 141 825 210 870 l 134 825 l 134 968 q 263 1011 182 991 q 418 1031 343 1031 q 662 956 574 1031 q 750 753 750 881 q 735 645 750 695 q 692 551 721 595 q 630 468 666 509 q 544 378 595 427 q 394 240 471 307 q 250 116 317 173 l 793 116 l 793 0 z "},"3":{"ha":883,"x_min":113,"x_max":779,"o":"m 704 486 q 758 413 736 457 q 779 299 779 369 q 753 172 779 230 q 683 72 728 115 q 563 2 632 24 q 412 -21 494 -21 q 247 -1 328 -21 q 113 43 165 19 l 113 184 l 123 184 q 259 121 181 146 q 410 96 337 96 q 500 111 452 96 q 578 153 549 125 q 625 218 610 182 q 640 309 640 254 q 623 399 640 363 q 575 455 606 435 q 501 484 545 476 q 408 492 458 492 l 347 492 l 347 604 l 394 604 q 558 647 497 604 q 620 773 620 690 q 604 837 620 810 q 561 882 589 865 q 498 907 532 900 q 423 913 465 913 q 286 890 359 913 q 149 825 214 867 l 142 825 l 142 967 q 271 1011 191 991 q 427 1031 351 1031 q 557 1017 500 1031 q 659 974 613 1004 q 732 895 707 941 q 758 787 758 849 q 698 641 758 703 q 558 562 639 578 l 558 552 q 633 529 591 547 q 704 486 675 512 z "},"4":{"ha":883,"x_min":52,"x_max":816,"o":"m 816 284 l 666 284 l 666 0 l 536 0 l 536 284 l 52 284 l 52 440 l 541 1010 l 666 1010 l 666 393 l 816 393 l 816 284 m 536 393 l 536 848 l 144 393 l 536 393 z "},"5":{"ha":883,"x_min":127,"x_max":785,"o":"m 785 321 q 759 186 785 250 q 688 77 733 121 q 572 4 640 30 q 416 -21 505 -21 q 256 -4 333 -21 q 127 38 180 14 l 127 181 l 136 181 q 267 121 192 146 q 413 96 341 96 q 506 110 461 96 q 587 157 551 123 q 632 227 616 186 q 647 321 647 268 q 629 410 647 374 q 579 467 611 446 q 493 504 544 493 q 380 514 443 514 q 266 506 321 514 q 170 490 210 498 l 170 1010 l 778 1010 l 778 891 l 301 891 l 301 623 q 361 627 330 625 q 414 628 391 628 q 557 614 496 628 q 671 565 619 600 q 755 469 725 528 q 785 321 785 410 z "},"6":{"ha":883,"x_min":93,"x_max":808,"o":"m 808 328 q 706 76 808 174 q 458 -21 605 -21 q 322 2 383 -21 q 214 71 261 25 q 124 220 156 127 q 93 444 93 313 q 122 682 93 578 q 214 866 151 785 q 368 986 273 943 q 587 1029 462 1029 q 654 1025 627 1029 q 709 1013 682 1022 l 709 884 l 703 884 q 645 903 684 894 q 567 912 607 912 q 334 821 421 912 q 233 574 248 730 q 346 627 290 609 q 473 645 401 645 q 587 633 538 645 q 688 585 636 621 q 778 481 747 544 q 808 328 808 418 m 670 322 q 651 427 670 385 q 590 498 633 468 q 521 527 559 520 q 441 534 483 534 q 334 520 384 534 q 233 478 285 507 q 231 449 231 463 q 230 414 230 435 q 252 245 230 307 q 313 147 274 183 q 380 103 344 117 q 459 90 416 90 q 614 150 557 90 q 670 322 670 210 z "},"7":{"ha":883,"x_min":104,"x_max":795,"o":"m 795 859 l 338 0 l 193 0 l 680 891 l 104 891 l 104 1010 l 795 1010 l 795 859 z "},"8":{"ha":883,"x_min":83,"x_max":800,"o":"m 800 281 q 698 64 800 151 q 441 -23 596 -23 q 180 62 277 -23 q 83 279 83 146 q 132 431 83 363 q 269 539 180 499 l 269 543 q 149 638 188 587 q 110 767 110 690 q 203 957 110 881 q 441 1033 297 1033 q 683 960 593 1033 q 773 776 773 888 q 730 641 773 707 q 605 538 688 575 l 605 534 q 750 433 700 493 q 800 281 800 374 m 640 774 q 584 890 640 847 q 441 933 528 933 q 301 892 355 933 q 246 783 246 852 q 274 698 246 734 q 357 635 301 663 q 429 603 382 623 q 521 570 476 583 q 614 663 588 615 q 640 774 640 711 m 661 269 q 633 369 661 331 q 526 444 606 406 q 456 472 494 459 q 355 508 418 485 q 257 418 294 475 q 220 289 220 361 q 283 138 220 197 q 443 78 346 78 q 601 129 542 78 q 661 269 661 180 z "},"9":{"ha":883,"x_min":77,"x_max":791,"o":"m 791 566 q 761 326 791 433 q 670 142 731 218 q 515 22 608 64 q 297 -20 422 -20 q 231 -16 262 -20 q 175 -4 199 -12 l 175 125 l 182 125 q 237 106 201 115 q 317 97 273 97 q 552 187 467 97 q 651 435 637 277 q 532 380 588 397 q 411 364 477 364 q 298 376 349 364 q 197 424 248 389 q 107 529 137 465 q 77 682 77 593 q 178 933 77 836 q 427 1030 280 1030 q 562 1007 500 1030 q 671 939 625 985 q 760 794 729 883 q 791 566 791 706 m 654 595 q 633 764 654 700 q 573 863 611 827 q 505 906 541 893 q 425 920 468 920 q 271 859 328 920 q 214 687 214 798 q 233 582 214 623 q 294 511 251 541 q 361 483 325 490 q 443 475 398 475 q 550 490 496 475 q 652 531 604 504 q 653 559 652 545 q 654 595 654 573 z "}," ":{"ha":488,"x_min":0,"x_max":0,"o":""},"!":{"ha":547,"x_min":197,"x_max":349,"o":"m 349 1010 l 332 278 l 216 278 l 197 1010 l 349 1010 m 342 0 l 204 0 l 204 143 l 342 143 l 342 0 z "},"\"":{"ha":637,"x_min":114,"x_max":524,"o":"m 524 1055 l 494 663 l 405 663 l 376 1055 l 524 1055 m 262 1055 l 233 663 l 143 663 l 114 1055 l 262 1055 z "},"#":{"ha":1137,"x_min":132,"x_max":1004,"o":"m 1004 632 l 779 632 l 716 377 l 925 377 l 925 286 l 692 286 l 622 0 l 534 0 l 605 286 l 422 286 l 351 0 l 264 0 l 334 286 l 132 286 l 132 377 l 358 377 l 420 632 l 212 632 l 212 724 l 444 724 l 515 1010 l 603 1010 l 532 724 l 715 724 l 786 1010 l 873 1010 l 802 724 l 1004 724 l 1004 632 m 693 633 l 507 633 l 444 376 l 629 376 l 693 633 z "},"$":{"ha":883,"x_min":105,"x_max":787,"o":"m 787 258 q 705 83 787 153 q 490 1 623 14 l 490 -245 l 410 -245 l 410 -3 q 241 15 320 -2 q 105 58 163 31 l 105 192 l 116 192 q 162 164 129 182 q 227 135 195 146 q 309 111 262 122 q 410 98 356 100 l 410 391 q 359 402 382 397 q 317 412 336 407 q 158 496 206 440 q 110 634 110 552 q 189 804 110 734 q 410 884 268 873 l 410 1069 l 490 1069 l 490 886 q 630 869 558 884 q 751 835 702 854 l 751 702 l 741 702 q 635 757 690 733 q 490 787 580 781 l 490 495 q 534 486 510 492 q 575 477 557 480 q 731 402 676 455 q 787 258 787 349 m 410 507 l 410 787 q 288 747 337 781 q 238 652 238 713 q 275 559 238 590 q 410 507 311 528 m 659 240 q 619 333 659 304 q 490 380 579 363 l 490 99 q 615 140 571 107 q 659 240 659 174 z "},"%":{"ha":1495,"x_min":101,"x_max":1394,"o":"m 600 730 q 535 504 600 578 q 351 430 471 430 q 164 504 227 430 q 101 729 101 578 q 165 955 101 881 q 351 1029 230 1029 q 536 954 473 1029 q 600 730 600 880 m 1068 1010 l 539 0 l 427 0 l 956 1010 l 1068 1010 m 1394 280 q 1329 54 1394 128 q 1144 -20 1265 -20 q 958 55 1021 -20 q 895 279 895 130 q 959 505 895 431 q 1144 579 1023 579 q 1331 505 1267 579 q 1394 280 1394 431 m 479 730 q 449 892 479 846 q 351 939 418 939 q 252 892 281 939 q 222 729 222 846 q 252 566 222 612 q 351 520 281 520 q 449 566 418 520 q 479 730 479 612 m 1273 280 q 1243 443 1273 397 q 1145 489 1213 489 q 1046 443 1076 489 q 1016 279 1016 397 q 1046 116 1016 162 q 1145 71 1076 71 q 1243 116 1213 71 q 1273 280 1273 162 z "},"&":{"ha":1009,"x_min":78,"x_max":1055,"o":"m 537 808 q 499 909 537 872 q 401 946 460 946 q 299 904 338 946 q 260 802 260 863 q 287 712 260 751 q 402 619 313 673 q 503 689 469 643 q 537 808 537 734 m 669 214 l 345 530 q 302 503 323 519 q 260 458 281 486 q 229 394 241 431 q 217 310 217 357 q 275 150 217 211 q 439 90 333 90 q 565 120 503 90 q 669 214 627 151 m 873 616 l 873 551 q 856 405 873 486 q 798 250 839 323 l 1055 0 l 888 0 l 732 152 q 573 17 654 56 q 406 -21 492 -21 q 171 61 264 -21 q 78 277 78 144 q 96 385 78 340 q 137 464 113 431 q 196 524 161 496 q 267 573 231 552 q 160 671 193 622 q 127 796 127 721 q 145 883 127 842 q 199 958 163 924 q 287 1010 233 990 q 408 1031 342 1031 q 597 971 525 1031 q 670 821 670 912 q 662 754 670 791 q 634 686 654 716 q 572 623 612 653 q 469 570 532 592 l 720 325 q 734 385 730 352 q 740 452 739 417 q 741 537 741 490 q 741 616 741 584 l 873 616 z "},"'":{"ha":373,"x_min":111,"x_max":262,"o":"m 262 1055 l 233 663 l 140 663 l 111 1055 l 262 1055 z "},"(":{"ha":631,"x_min":123,"x_max":531,"o":"m 531 -279 l 376 -279 q 189 21 256 -142 q 123 388 123 184 q 189 755 123 592 q 376 1055 256 918 l 531 1055 l 531 1048 q 426 934 476 999 q 334 783 376 869 q 268 600 293 700 q 242 388 242 499 q 267 176 242 272 q 334 -7 292 79 q 427 -158 374 -91 q 531 -273 479 -226 l 531 -279 z "},")":{"ha":631,"x_min":100,"x_max":508,"o":"m 508 388 q 441 21 508 184 q 255 -279 375 -142 l 100 -279 l 100 -273 q 204 -158 152 -226 q 297 -7 257 -91 q 364 176 339 79 q 389 388 389 272 q 363 600 389 499 q 297 783 338 700 q 204 934 254 869 q 100 1048 155 999 l 100 1055 l 255 1055 q 441 755 375 918 q 508 388 508 592 z "},"*":{"ha":883,"x_min":113,"x_max":771,"o":"m 771 602 l 728 527 l 482 671 l 486 427 l 399 427 l 402 671 l 157 526 l 113 601 l 372 741 l 113 882 l 157 956 l 403 812 l 399 1055 l 486 1055 l 481 812 l 728 956 l 771 881 l 513 742 l 771 602 z "},"+":{"ha":1137,"x_min":142,"x_max":994,"o":"m 994 388 l 625 388 l 625 18 l 512 18 l 512 388 l 142 388 l 142 496 l 512 496 l 512 866 l 625 866 l 625 496 l 994 496 l 994 388 z "},",":{"ha":505,"x_min":100,"x_max":390,"o":"m 390 193 l 199 -251 l 100 -251 l 218 193 l 390 193 z "},"-":{"ha":631,"x_min":104,"x_max":527,"o":"m 527 380 l 104 380 l 104 503 l 527 503 l 527 380 z "},".":{"ha":505,"x_min":172,"x_max":334,"o":"m 334 0 l 172 0 l 172 193 l 334 193 l 334 0 z "},"/":{"ha":631,"x_min":-20,"x_max":583,"o":"m 583 1055 l 97 -206 l -20 -206 l 464 1055 l 583 1055 z "},":":{"ha":631,"x_min":235,"x_max":397,"o":"m 397 564 l 235 564 l 235 758 l 397 758 l 397 564 m 397 0 l 235 0 l 235 193 l 397 193 l 397 0 z "},";":{"ha":631,"x_min":156,"x_max":446,"o":"m 397 564 l 235 564 l 235 758 l 397 758 l 397 564 m 446 193 l 255 -251 l 156 -251 l 274 193 l 446 193 z "},"<":{"ha":1137,"x_min":172,"x_max":955,"o":"m 955 52 l 172 400 l 172 484 l 955 832 l 955 710 l 338 442 l 955 174 l 955 52 z "},"=":{"ha":1137,"x_min":166,"x_max":970,"o":"m 970 530 l 166 530 l 166 639 l 970 639 l 970 530 m 970 245 l 166 245 l 166 354 l 970 354 l 970 245 z "},">":{"ha":1137,"x_min":182,"x_max":964,"o":"m 964 400 l 182 52 l 182 174 l 799 442 l 182 710 l 182 832 l 964 484 l 964 400 z "},"?":{"ha":758,"x_min":109,"x_max":682,"o":"m 682 772 q 658 654 682 706 q 595 562 634 602 q 508 490 557 524 q 403 424 458 456 l 403 271 l 281 271 l 281 478 q 377 533 326 503 q 460 593 428 563 q 522 666 500 629 q 543 762 543 704 q 491 877 543 839 q 357 914 439 914 q 219 891 284 914 q 115 844 153 868 l 109 844 l 109 983 q 229 1016 156 1001 q 367 1030 302 1030 q 597 959 513 1030 q 682 772 682 888 m 414 0 l 275 0 l 275 143 l 414 143 l 414 0 z "},"@":{"ha":1389,"x_min":119,"x_max":1268,"o":"m 1268 450 q 1241 267 1268 355 q 1162 106 1213 179 l 864 106 l 846 185 q 749 123 795 144 q 644 101 703 101 q 461 187 530 101 q 393 428 393 273 q 477 673 393 582 q 676 765 560 765 q 764 754 726 765 q 846 720 802 743 l 846 753 l 954 753 l 954 182 l 1118 182 q 1161 309 1147 233 q 1176 446 1176 385 q 1145 648 1176 557 q 1055 804 1114 739 q 907 904 995 869 q 707 939 819 939 q 508 899 598 939 q 354 793 418 860 q 252 634 289 727 q 215 437 215 542 q 250 233 215 326 q 350 75 286 140 q 507 -29 417 6 q 704 -64 597 -64 q 824 -56 762 -64 q 943 -33 886 -49 l 943 -129 q 821 -148 878 -143 q 703 -153 764 -153 q 469 -110 577 -153 q 284 10 361 -67 q 163 197 206 88 q 119 439 119 307 q 165 672 119 564 q 289 860 210 781 q 475 985 368 939 q 706 1030 583 1030 q 943 988 839 1030 q 1120 870 1048 946 q 1230 687 1192 794 q 1268 450 1268 581 m 844 277 l 844 628 q 768 656 802 648 q 695 665 734 665 q 558 604 608 665 q 509 430 509 543 q 548 263 509 319 q 671 206 587 206 q 762 227 716 206 q 844 277 807 248 z "},"A":{"ha":949,"x_min":18,"x_max":932,"o":"m 932 0 l 789 0 l 690 281 l 253 281 l 154 0 l 18 0 l 385 1010 l 564 1010 l 932 0 m 648 397 l 471 892 l 294 397 l 648 397 z "},"B":{"ha":952,"x_min":136,"x_max":897,"o":"m 897 311 q 869 178 897 235 q 792 83 840 120 q 667 19 735 38 q 494 0 599 0 l 136 0 l 136 1010 l 435 1010 q 600 1002 545 1010 q 705 968 655 994 q 786 893 761 939 q 811 783 811 847 q 774 661 811 711 q 677 580 738 610 l 677 574 q 838 485 779 553 q 897 311 897 416 m 671 766 q 659 827 671 802 q 620 868 647 852 q 543 891 588 886 q 430 895 497 895 l 270 895 l 270 604 l 444 604 q 544 610 507 604 q 613 637 581 616 q 658 689 645 657 q 671 766 671 722 m 758 305 q 739 402 758 366 q 673 463 721 438 q 594 485 640 480 q 481 490 547 490 l 270 490 l 270 115 l 448 115 q 592 124 536 115 q 684 157 648 133 q 740 218 722 184 q 758 305 758 252 z "},"C":{"ha":970,"x_min":78,"x_max":916,"o":"m 916 73 q 848 43 878 57 q 769 13 818 28 q 679 -9 728 0 q 572 -18 631 -18 q 373 13 463 -18 q 216 109 283 43 q 115 273 151 174 q 78 504 78 372 q 113 727 78 629 q 215 893 149 825 q 371 994 279 959 q 573 1028 462 1028 q 735 1008 654 1028 q 916 939 817 989 l 916 780 l 905 780 q 740 882 822 850 q 564 913 658 913 q 426 889 488 913 q 317 812 365 864 q 244 683 270 761 q 218 504 218 606 q 247 321 218 397 q 321 196 275 244 q 432 122 368 146 q 566 98 495 98 q 747 131 663 98 q 906 231 832 164 l 916 231 l 916 73 z "},"D":{"ha":1070,"x_min":136,"x_max":989,"o":"m 989 504 q 929 254 989 366 q 769 81 869 142 q 615 19 700 38 q 391 0 530 0 l 136 0 l 136 1010 l 388 1010 q 623 988 536 1010 q 770 930 710 967 q 931 758 873 865 q 989 504 989 651 m 848 506 q 807 706 848 625 q 684 834 766 787 q 557 881 624 868 q 396 895 490 895 l 270 895 l 270 115 l 396 115 q 565 130 493 115 q 698 182 637 144 q 811 309 773 231 q 848 506 848 388 z "},"E":{"ha":878,"x_min":136,"x_max":801,"o":"m 801 0 l 136 0 l 136 1010 l 801 1010 l 801 890 l 270 890 l 270 614 l 801 614 l 801 494 l 270 494 l 270 119 l 801 119 l 801 0 z "},"F":{"ha":798,"x_min":136,"x_max":781,"o":"m 781 890 l 270 890 l 270 606 l 709 606 l 709 486 l 270 486 l 270 0 l 136 0 l 136 1010 l 781 1010 l 781 890 z "},"G":{"ha":1077,"x_min":78,"x_max":978,"o":"m 978 75 q 797 8 895 37 q 608 -20 699 -20 q 391 13 490 -20 q 224 111 293 45 q 116 275 154 176 q 78 506 78 374 q 219 888 78 748 q 608 1028 361 1028 q 784 1007 694 1028 q 977 937 873 987 l 977 778 l 965 778 q 904 821 944 794 q 825 865 864 847 q 719 900 779 886 q 585 913 660 913 q 316 805 415 913 q 218 510 218 696 q 321 205 218 314 q 602 96 424 96 q 731 109 667 96 q 845 142 796 122 l 845 390 l 574 390 l 574 508 l 978 508 l 978 75 z "},"H":{"ha":1044,"x_min":136,"x_max":908,"o":"m 908 0 l 774 0 l 774 494 l 270 494 l 270 0 l 136 0 l 136 1010 l 270 1010 l 270 614 l 774 614 l 774 1010 l 908 1010 l 908 0 z "},"I":{"ha":585,"x_min":93,"x_max":492,"o":"m 492 0 l 93 0 l 93 103 l 225 103 l 225 907 l 93 907 l 93 1010 l 492 1010 l 492 907 l 359 907 l 359 103 l 492 103 l 492 0 z "},"J":{"ha":631,"x_min":30,"x_max":506,"o":"m 506 262 q 425 58 506 130 q 208 -14 344 -14 q 121 -8 175 -14 q 30 5 66 -3 l 30 131 l 37 131 q 106 111 65 121 q 189 101 146 101 q 289 115 252 101 q 343 156 326 130 q 367 222 361 183 q 372 313 372 262 l 372 903 l 158 903 l 158 1010 l 506 1010 l 506 262 z "},"K":{"ha":962,"x_min":139,"x_max":947,"o":"m 947 0 l 773 0 l 374 450 l 273 342 l 273 0 l 139 0 l 139 1010 l 273 1010 l 273 483 l 764 1010 l 926 1010 l 475 535 l 947 0 z "},"L":{"ha":773,"x_min":136,"x_max":774,"o":"m 774 0 l 136 0 l 136 1010 l 270 1010 l 270 119 l 774 119 l 774 0 z "},"M":{"ha":1171,"x_min":136,"x_max":1035,"o":"m 1035 0 l 901 0 l 901 870 l 620 278 l 540 278 l 261 870 l 261 0 l 136 0 l 136 1010 l 319 1010 l 588 448 l 848 1010 l 1035 1010 l 1035 0 z "},"N":{"ha":1039,"x_min":136,"x_max":906,"o":"m 906 0 l 740 0 l 261 903 l 261 0 l 136 0 l 136 1010 l 344 1010 l 781 185 l 781 1010 l 906 1010 l 906 0 z "},"O":{"ha":1093,"x_min":78,"x_max":1016,"o":"m 888 894 q 983 728 950 826 q 1016 505 1016 629 q 982 281 1016 380 q 888 117 949 182 q 741 14 826 48 q 547 -21 656 -21 q 353 14 440 -21 q 205 117 266 50 q 111 281 144 184 q 78 505 78 379 q 111 726 78 628 q 205 894 143 824 q 354 996 265 960 q 547 1031 442 1031 q 742 995 655 1031 q 888 894 828 960 m 876 505 q 788 808 876 701 q 547 915 700 915 q 306 808 393 915 q 218 505 218 701 q 307 200 218 306 q 547 95 397 95 q 787 200 698 95 q 876 505 876 306 z "},"P":{"ha":838,"x_min":136,"x_max":796,"o":"m 796 705 q 773 580 796 637 q 707 481 749 523 q 584 402 655 429 q 404 376 513 376 l 270 376 l 270 0 l 136 0 l 136 1010 l 410 1010 q 564 995 500 1010 q 675 947 627 979 q 765 850 733 908 q 796 705 796 793 m 656 701 q 638 792 656 753 q 583 855 620 831 q 508 885 550 876 q 403 895 467 895 l 270 895 l 270 491 l 383 491 q 515 506 465 491 q 598 552 566 520 q 643 621 630 585 q 656 701 656 656 z "},"Q":{"ha":1093,"x_min":78,"x_max":1036,"o":"m 1036 -248 q 956 -262 996 -258 q 875 -267 916 -267 q 685 -202 757 -267 q 608 -16 614 -137 q 576 -20 591 -19 q 547 -21 561 -21 q 353 14 440 -21 q 205 117 266 50 q 111 281 144 184 q 78 505 78 379 q 111 726 78 628 q 205 894 143 824 q 354 996 265 960 q 547 1031 442 1031 q 742 995 655 1031 q 888 894 828 960 q 983 728 950 826 q 1016 505 1016 629 q 940 193 1016 319 q 737 15 865 66 q 774 -105 740 -62 q 897 -148 808 -148 q 963 -139 925 -148 q 1018 -124 1002 -131 l 1036 -124 l 1036 -248 m 876 505 q 788 808 876 701 q 547 915 700 915 q 306 808 393 915 q 218 505 218 701 q 307 200 218 306 q 547 95 397 95 q 787 200 698 95 q 876 505 876 306 z "},"R":{"ha":966,"x_min":136,"x_max":971,"o":"m 971 0 l 797 0 l 459 401 l 270 401 l 270 0 l 136 0 l 136 1010 l 418 1010 q 571 998 510 1010 q 681 956 632 986 q 767 868 736 921 q 798 735 798 816 q 743 552 798 626 q 591 441 688 479 l 971 0 m 657 726 q 642 803 657 769 q 591 859 627 836 q 522 887 562 879 q 428 895 482 895 l 270 895 l 270 513 l 406 513 q 517 525 469 513 q 597 566 564 536 q 643 632 628 595 q 657 726 657 669 z "},"S":{"ha":949,"x_min":91,"x_max":869,"o":"m 869 288 q 842 172 869 229 q 765 74 814 114 q 638 6 711 31 q 465 -18 566 -18 q 268 2 355 -18 q 91 62 181 22 l 91 231 l 100 231 q 277 132 177 167 q 466 98 378 98 q 660 144 591 98 q 730 269 730 191 q 697 368 730 336 q 597 418 664 400 q 487 440 546 431 q 361 463 427 449 q 162 560 227 491 q 97 739 97 629 q 204 947 97 866 q 476 1028 311 1028 q 671 1008 583 1028 q 829 958 760 987 l 829 799 l 819 799 q 668 880 762 848 q 475 912 574 912 q 302 867 368 912 q 237 752 237 823 q 269 653 237 689 q 384 598 302 617 q 507 575 427 589 q 643 547 587 562 q 812 457 755 517 q 869 288 869 397 z "},"T":{"ha":856,"x_min":0,"x_max":856,"o":"m 856 890 l 495 890 l 495 0 l 361 0 l 361 890 l 0 890 l 0 1010 l 856 1010 l 856 890 z "},"U":{"ha":1017,"x_min":121,"x_max":896,"o":"m 896 406 q 872 214 896 296 q 793 78 848 132 q 671 3 741 26 q 508 -21 601 -21 q 342 4 413 -21 q 224 78 272 29 q 145 212 169 134 q 121 406 121 291 l 121 1010 l 255 1010 l 255 399 q 266 269 255 317 q 304 183 277 222 q 385 117 334 139 q 508 94 436 94 q 631 116 581 94 q 713 183 682 138 q 750 272 739 222 q 762 395 762 321 l 762 1010 l 896 1010 l 896 406 z "},"V":{"ha":949,"x_min":18,"x_max":932,"o":"m 932 1010 l 564 0 l 385 0 l 18 1010 l 161 1010 l 478 121 l 795 1010 l 932 1010 z "},"W":{"ha":1373,"x_min":62,"x_max":1311,"o":"m 1311 1010 l 1048 0 l 897 0 l 685 838 l 477 0 l 330 0 l 62 1010 l 200 1010 l 412 170 l 621 1010 l 758 1010 l 968 162 l 1179 1010 l 1311 1010 z "},"X":{"ha":951,"x_min":46,"x_max":906,"o":"m 906 1010 l 557 511 l 905 0 l 750 0 l 475 416 l 193 0 l 46 0 l 398 505 l 54 1010 l 209 1010 l 481 600 l 759 1010 l 906 1010 z "},"Y":{"ha":854,"x_min":4,"x_max":850,"o":"m 850 1010 l 495 443 l 495 0 l 361 0 l 361 429 l 4 1010 l 153 1010 l 429 558 l 707 1010 l 850 1010 z "},"Z":{"ha":951,"x_min":85,"x_max":873,"o":"m 873 0 l 85 0 l 85 125 l 705 890 l 109 890 l 109 1010 l 859 1010 l 859 888 l 233 119 l 873 119 l 873 0 z "},"[":{"ha":631,"x_min":162,"x_max":515,"o":"m 515 -266 l 162 -266 l 162 1055 l 515 1055 l 515 958 l 280 958 l 280 -169 l 515 -169 l 515 -266 z "},"\\":{"ha":631,"x_min":47,"x_max":651,"o":"m 651 -206 l 534 -206 l 47 1055 l 167 1055 l 651 -206 z "},"]":{"ha":631,"x_min":116,"x_max":469,"o":"m 469 -266 l 116 -266 l 116 -169 l 351 -169 l 351 958 l 116 958 l 116 1055 l 469 1055 l 469 -266 z "},"^":{"ha":1137,"x_min":126,"x_max":1010,"o":"m 1010 464 l 876 464 l 568 889 l 260 463 l 126 463 l 526 1010 l 611 1010 l 1010 464 z "},"_":{"ha":883,"x_min":-3,"x_max":886,"o":"m 886 -203 l -3 -203 l -3 -122 l 886 -122 l 886 -203 z "},"`":{"ha":883,"x_min":231,"x_max":517,"o":"m 517 883 l 416 883 l 231 1137 l 395 1137 l 517 883 z "},"a":{"ha":834,"x_min":71,"x_max":714,"o":"m 714 0 l 587 0 l 587 81 q 542 48 570 69 q 486 16 513 28 q 412 -11 454 0 q 315 -21 371 -21 q 142 47 213 -21 q 71 220 71 115 q 107 359 71 306 q 213 443 144 412 q 379 484 282 473 q 587 500 476 495 l 587 520 q 572 592 587 564 q 528 637 557 621 q 463 658 501 652 q 384 663 425 663 q 272 650 334 663 q 144 612 210 637 l 138 612 l 138 741 q 245 764 175 751 q 385 776 316 776 q 524 763 465 776 q 627 718 583 749 q 692 637 669 686 q 714 514 714 587 l 714 0 m 587 186 l 587 397 q 450 387 529 394 q 325 368 371 380 q 236 319 270 352 q 202 229 202 286 q 241 131 202 163 q 361 98 281 98 q 484 124 429 98 q 587 186 540 150 z "},"b":{"ha":865,"x_min":125,"x_max":792,"o":"m 792 385 q 765 214 792 290 q 693 86 739 138 q 587 6 645 33 q 460 -21 530 -21 q 348 -6 396 -21 q 253 35 300 9 l 245 0 l 125 0 l 125 1055 l 253 1055 l 253 678 q 367 750 307 722 q 503 779 427 779 q 714 675 637 779 q 792 385 792 572 m 661 381 q 616 587 661 517 q 471 657 571 657 q 359 633 416 657 q 253 571 302 609 l 253 137 q 346 103 307 113 q 435 94 385 94 q 601 163 541 94 q 661 381 661 233 z "},"c":{"ha":724,"x_min":71,"x_max":686,"o":"m 686 47 q 565 0 622 17 q 443 -17 507 -17 q 292 7 361 -17 q 175 80 224 31 q 98 203 125 129 q 71 378 71 278 q 173 669 71 564 q 443 775 275 775 q 571 757 508 775 q 686 712 633 739 l 686 570 l 679 570 q 558 640 621 616 q 437 665 496 665 q 266 592 329 665 q 203 378 203 519 q 265 167 203 241 q 437 94 326 94 q 516 104 476 94 q 588 130 556 114 q 640 160 616 144 q 679 188 665 176 l 686 188 l 686 47 z "},"d":{"ha":865,"x_min":73,"x_max":740,"o":"m 740 0 l 612 0 l 612 79 q 498 5 557 32 q 368 -21 438 -21 q 153 83 233 -21 q 73 373 73 188 q 101 545 73 469 q 175 673 128 620 q 282 751 221 724 q 410 779 344 779 q 515 766 469 779 q 612 727 562 753 l 612 1055 l 740 1055 l 740 0 m 612 186 l 612 621 q 520 653 561 644 q 431 662 479 662 q 264 587 324 662 q 205 376 205 513 q 251 171 205 241 q 399 100 297 100 q 509 124 453 100 q 612 186 564 149 z "},"e":{"ha":827,"x_min":72,"x_max":760,"o":"m 760 366 l 201 366 q 222 244 201 296 q 280 159 243 192 q 364 110 315 126 q 471 94 412 94 q 626 124 548 94 q 738 185 705 155 l 745 185 l 745 46 q 613 1 680 19 q 472 -18 546 -18 q 178 84 283 -18 q 72 374 72 186 q 173 669 72 560 q 440 779 275 779 q 676 689 593 779 q 760 435 760 600 l 760 366 m 635 463 q 585 618 635 564 q 433 673 535 673 q 270 613 331 673 q 201 463 210 553 l 635 463 z "},"f":{"ha":488,"x_min":46,"x_max":533,"o":"m 533 932 l 526 932 q 471 944 505 938 q 412 951 437 951 q 293 915 330 951 q 256 783 256 878 l 256 758 l 486 758 l 486 650 l 260 650 l 260 0 l 132 0 l 132 650 l 46 650 l 46 758 l 132 758 l 132 783 q 199 990 132 918 q 393 1062 267 1062 q 470 1058 436 1062 q 533 1048 505 1054 l 533 932 z "},"g":{"ha":865,"x_min":73,"x_max":740,"o":"m 740 86 q 652 -197 740 -106 q 383 -287 565 -287 q 266 -278 323 -287 q 153 -254 208 -270 l 153 -124 l 159 -124 q 258 -154 191 -136 q 394 -172 326 -172 q 502 -157 459 -172 q 568 -113 545 -141 q 602 -50 592 -87 q 612 34 612 -12 l 612 103 q 502 34 555 57 q 368 12 450 12 q 153 110 233 12 q 73 386 73 208 q 101 554 73 484 q 176 677 128 625 q 283 752 220 725 q 408 779 346 779 q 518 765 474 779 q 612 725 563 752 l 621 758 l 740 758 l 740 86 m 612 208 l 612 621 q 518 654 562 644 q 431 664 474 664 q 265 593 326 664 q 205 389 205 523 q 250 195 205 261 q 398 130 294 130 q 510 151 454 130 q 612 208 566 172 z "},"h":{"ha":879,"x_min":125,"x_max":759,"o":"m 759 0 l 631 0 l 631 431 q 625 529 631 484 q 603 601 619 575 q 554 643 586 629 q 471 657 522 657 q 362 631 419 657 q 253 566 305 606 l 253 0 l 125 0 l 125 1055 l 253 1055 l 253 673 q 376 751 313 723 q 507 779 440 779 q 694 705 630 779 q 759 492 759 631 l 759 0 z "},"i":{"ha":381,"x_min":119,"x_max":262,"o":"m 262 884 l 119 884 l 119 1017 l 262 1017 l 262 884 m 254 0 l 127 0 l 127 758 l 254 758 l 254 0 z "},"j":{"ha":478,"x_min":-42,"x_max":361,"o":"m 361 884 l 218 884 l 218 1017 l 361 1017 l 361 884 m 353 -18 q 286 -219 353 -151 q 104 -287 218 -287 q 32 -281 77 -287 q -42 -268 -12 -276 l -42 -146 l -35 -146 q 16 -163 -16 -154 q 79 -173 48 -173 q 157 -159 127 -173 q 202 -119 187 -146 q 221 -53 217 -92 q 226 40 226 -15 l 226 650 l 68 650 l 68 758 l 353 758 l 353 -18 z "},"k":{"ha":822,"x_min":131,"x_max":813,"o":"m 813 0 l 645 0 l 341 332 l 258 253 l 258 0 l 131 0 l 131 1055 l 258 1055 l 258 378 l 627 758 l 787 758 l 435 408 l 813 0 z "},"l":{"ha":381,"x_min":127,"x_max":254,"o":"m 254 0 l 127 0 l 127 1055 l 254 1055 l 254 0 z "},"m":{"ha":1351,"x_min":125,"x_max":1231,"o":"m 1231 0 l 1103 0 l 1103 431 q 1099 526 1103 480 q 1080 598 1095 571 q 1036 642 1065 627 q 951 657 1006 657 q 844 630 898 657 q 737 562 791 604 q 741 526 739 547 q 742 485 742 505 l 742 0 l 614 0 l 614 431 q 610 527 614 481 q 591 599 606 572 q 547 643 576 628 q 463 657 517 657 q 358 631 410 657 q 253 566 305 606 l 253 0 l 125 0 l 125 758 l 253 758 l 253 673 q 372 751 313 723 q 498 779 431 779 q 630 746 576 779 q 710 656 684 713 q 851 750 787 721 q 987 779 915 779 q 1172 703 1112 779 q 1231 492 1231 627 l 1231 0 z "},"n":{"ha":879,"x_min":125,"x_max":759,"o":"m 759 0 l 631 0 l 631 431 q 625 529 631 484 q 603 601 619 575 q 554 643 586 629 q 471 657 522 657 q 362 631 419 657 q 253 566 305 606 l 253 0 l 125 0 l 125 758 l 253 758 l 253 673 q 376 751 313 723 q 507 779 440 779 q 694 705 630 779 q 759 492 759 631 l 759 0 z "},"o":{"ha":843,"x_min":72,"x_max":771,"o":"m 771 378 q 676 86 771 193 q 422 -21 581 -21 q 166 86 261 -21 q 72 378 72 193 q 166 671 72 564 q 422 779 261 779 q 676 671 581 779 q 771 378 771 564 m 640 378 q 582 597 640 526 q 422 669 524 669 q 261 597 318 669 q 203 378 203 526 q 261 162 203 236 q 422 89 319 89 q 582 162 524 89 q 640 378 640 235 z "},"p":{"ha":865,"x_min":125,"x_max":792,"o":"m 792 388 q 766 219 792 296 q 691 90 739 143 q 586 13 646 40 q 457 -15 525 -15 q 350 -2 398 -15 q 253 38 302 11 l 253 -279 l 125 -279 l 125 758 l 253 758 l 253 678 q 367 750 304 721 q 503 779 431 779 q 716 675 640 779 q 792 388 792 572 m 661 385 q 614 589 661 522 q 470 657 567 657 q 359 633 415 657 q 253 571 304 610 l 253 142 q 346 109 307 117 q 435 100 385 100 q 601 172 541 100 q 661 385 661 243 z "},"q":{"ha":865,"x_min":73,"x_max":740,"o":"m 740 -279 l 612 -279 l 612 85 q 495 10 553 35 q 369 -15 437 -15 q 154 89 234 -15 q 73 376 73 193 q 101 549 73 474 q 176 675 130 624 q 281 751 220 724 q 408 779 341 779 q 516 765 469 779 q 612 725 564 751 l 621 758 l 740 758 l 740 -279 m 612 193 l 612 621 q 519 654 559 645 q 431 664 478 664 q 262 589 320 664 q 205 382 205 514 q 251 178 205 250 q 397 106 298 106 q 509 131 453 106 q 612 193 564 155 z "},"r":{"ha":593,"x_min":125,"x_max":598,"o":"m 598 618 l 591 618 q 536 628 563 625 q 473 631 509 631 q 359 605 414 631 q 253 538 304 579 l 253 0 l 125 0 l 125 758 l 253 758 l 253 646 q 387 732 329 707 q 505 758 445 758 q 553 756 538 758 q 598 749 568 754 l 598 618 z "},"s":{"ha":724,"x_min":75,"x_max":667,"o":"m 667 218 q 581 48 667 115 q 347 -18 495 -18 q 192 2 262 -18 q 75 45 122 22 l 75 189 l 81 189 q 216 116 142 143 q 357 90 290 90 q 489 117 441 90 q 536 202 536 144 q 511 270 536 247 q 412 309 485 293 q 341 323 385 315 q 261 341 297 332 q 120 419 161 368 q 78 545 78 470 q 97 633 78 591 q 156 707 117 674 q 253 757 194 739 q 384 776 311 776 q 521 759 452 776 q 637 719 591 743 l 637 583 l 630 583 q 511 643 581 618 q 374 668 441 668 q 256 641 304 668 q 208 562 208 614 q 237 491 208 515 q 330 452 266 467 q 409 436 365 444 q 481 421 452 428 q 618 351 570 401 q 667 218 667 301 z "},"t":{"ha":547,"x_min":42,"x_max":519,"o":"m 519 7 q 440 -9 483 -3 q 365 -15 398 -15 q 189 47 249 -15 q 128 248 128 110 l 128 650 l 42 650 l 42 758 l 128 758 l 128 975 l 256 975 l 256 758 l 519 758 l 519 650 l 256 650 l 256 305 q 258 212 256 245 q 277 149 261 178 q 318 110 292 122 q 398 97 345 97 q 463 106 429 97 q 512 121 497 115 l 519 121 l 519 7 z "},"u":{"ha":879,"x_min":120,"x_max":753,"o":"m 753 0 l 626 0 l 626 84 q 503 6 562 33 q 372 -21 444 -21 q 186 52 253 -21 q 120 266 120 125 l 120 758 l 248 758 l 248 326 q 253 228 248 269 q 276 157 258 186 q 323 114 294 127 q 408 100 353 100 q 516 126 458 100 q 626 192 575 152 l 626 758 l 753 758 l 753 0 z "},"v":{"ha":822,"x_min":41,"x_max":781,"o":"m 781 758 l 474 0 l 346 0 l 41 758 l 180 758 l 414 155 l 647 758 l 781 758 z "},"w":{"ha":1137,"x_min":58,"x_max":1078,"o":"m 1078 758 l 881 0 l 763 0 l 568 584 l 375 0 l 258 0 l 58 758 l 191 758 l 330 171 l 519 758 l 625 758 l 819 171 l 950 758 l 1078 758 z "},"x":{"ha":822,"x_min":41,"x_max":781,"o":"m 781 0 l 621 0 l 406 291 l 189 0 l 41 0 l 336 378 l 43 758 l 204 758 l 418 471 l 632 758 l 781 758 l 484 385 l 781 0 z "},"y":{"ha":822,"x_min":41,"x_max":781,"o":"m 781 758 l 338 -279 l 202 -279 l 343 37 l 41 758 l 180 758 l 412 196 l 647 758 l 781 758 z "},"z":{"ha":730,"x_min":63,"x_max":675,"o":"m 675 0 l 63 0 l 63 94 l 505 651 l 73 651 l 73 758 l 663 758 l 663 667 l 220 108 l 675 108 l 675 0 z "},"{":{"ha":882,"x_min":117,"x_max":755,"o":"m 755 -266 l 653 -266 q 456 -198 532 -266 q 380 -3 380 -131 l 380 98 q 324 277 380 212 q 152 342 268 342 l 117 342 l 117 448 l 152 448 q 324 512 268 448 q 380 692 380 577 l 380 793 q 456 988 380 920 q 653 1055 532 1055 l 755 1055 l 755 962 l 677 962 q 544 919 585 962 q 502 781 502 876 l 502 663 q 450 504 502 568 q 304 403 397 440 l 304 387 q 450 285 397 349 q 502 127 502 221 l 502 8 q 544 -130 502 -87 q 677 -172 585 -172 l 755 -172 l 755 -266 z "},"|":{"ha":631,"x_min":256,"x_max":374,"o":"m 374 -266 l 256 -266 l 256 1055 l 374 1055 l 374 -266 z "},"}":{"ha":882,"x_min":127,"x_max":764,"o":"m 764 342 l 730 342 q 557 277 614 342 q 501 98 501 212 l 501 -3 q 426 -198 501 -131 q 229 -266 350 -266 l 127 -266 l 127 -172 l 204 -172 q 338 -130 296 -172 q 380 8 380 -87 l 380 127 q 432 285 380 221 q 577 387 484 349 l 577 403 q 432 504 484 440 q 380 663 380 568 l 380 781 q 338 919 380 876 q 204 962 296 962 l 127 962 l 127 1055 l 229 1055 q 426 988 350 1055 q 501 793 501 920 l 501 692 q 557 512 501 577 q 730 448 614 448 l 764 448 l 764 342 z "},"~":{"ha":1137,"x_min":127,"x_max":1010,"o":"m 1010 629 q 995 496 1008 562 q 950 380 981 431 q 875 298 919 328 q 763 269 831 269 q 650 295 699 269 q 543 391 600 322 q 443 498 474 476 q 378 519 412 519 q 280 460 314 519 q 240 268 246 401 l 127 268 q 142 400 128 336 q 186 516 156 464 q 262 597 215 566 q 374 628 309 628 q 487 602 437 628 q 594 505 536 576 q 683 408 648 439 q 759 377 718 377 q 862 446 829 377 q 897 629 895 514 l 1010 629 z "},"Ä":{"ha":949,"x_min":18,"x_max":932,"o":"m 932 0 l 789 0 l 690 281 l 253 281 l 154 0 l 18 0 l 385 1010 l 564 1010 l 932 0 m 648 397 l 471 892 l 294 397 l 648 397 m 682 1137 l 547 1137 l 547 1270 l 682 1270 l 682 1137 m 401 1137 l 267 1137 l 267 1270 l 401 1270 l 401 1137 z "},"Å":{"ha":949,"x_min":18,"x_max":932,"o":"m 932 0 l 789 0 l 688 281 l 254 281 l 154 0 l 18 0 l 370 954 q 273 1038 309 984 q 237 1161 237 1092 q 306 1324 237 1258 q 474 1390 375 1390 q 643 1324 574 1390 q 711 1161 711 1258 q 676 1038 711 1093 q 580 954 640 983 l 932 0 m 610 1160 q 571 1257 610 1218 q 474 1296 532 1296 q 377 1257 416 1296 q 338 1160 338 1217 q 377 1062 338 1101 q 474 1023 416 1023 q 571 1062 532 1023 q 610 1160 610 1101 m 646 397 l 471 882 l 296 397 l 646 397 z "},"Ç":{"ha":970,"x_min":78,"x_max":916,"o":"m 916 73 q 848 43 878 57 q 769 13 818 28 q 753 8 762 11 q 732 3 744 5 q 734 -27 733 -10 q 735 -60 735 -45 q 672 -229 735 -170 q 509 -287 608 -287 q 443 -282 483 -287 q 372 -269 402 -277 l 372 -159 l 378 -159 q 426 -176 395 -166 q 491 -185 457 -185 q 596 -158 563 -185 q 629 -73 629 -131 q 629 -44 629 -60 q 627 -16 628 -29 q 599 -18 614 -17 q 572 -18 585 -18 q 373 13 463 -18 q 216 109 283 43 q 115 273 151 174 q 78 504 78 372 q 113 727 78 629 q 215 893 149 825 q 371 994 279 959 q 573 1028 462 1028 q 735 1008 654 1028 q 916 939 817 989 l 916 780 l 905 780 q 740 882 822 850 q 564 913 658 913 q 426 889 488 913 q 317 812 365 864 q 244 683 270 761 q 218 504 218 606 q 247 321 218 397 q 321 196 275 244 q 432 122 368 146 q 566 98 495 98 q 747 131 663 98 q 906 231 832 164 l 916 231 l 916 73 z "},"É":{"ha":878,"x_min":136,"x_max":801,"o":"m 801 0 l 136 0 l 136 1010 l 801 1010 l 801 890 l 270 890 l 270 614 l 801 614 l 801 494 l 270 494 l 270 119 l 801 119 l 801 0 m 673 1390 l 488 1136 l 387 1136 l 509 1390 l 673 1390 z "},"Ñ":{"ha":1039,"x_min":136,"x_max":906,"o":"m 906 0 l 740 0 l 261 903 l 261 0 l 136 0 l 136 1010 l 344 1010 l 781 185 l 781 1010 l 906 1010 l 906 0 m 819 1351 q 767 1196 812 1248 q 647 1143 722 1143 q 579 1157 610 1143 q 520 1195 548 1170 q 466 1239 488 1224 q 418 1253 444 1253 q 365 1223 382 1253 q 345 1141 347 1192 l 256 1141 q 309 1295 261 1243 q 427 1348 357 1348 q 493 1334 461 1348 q 553 1297 524 1321 q 609 1255 585 1269 q 656 1241 634 1241 q 710 1272 691 1241 q 732 1351 730 1303 l 819 1351 z "},"Ö":{"ha":1093,"x_min":78,"x_max":1016,"o":"m 888 894 q 983 728 950 826 q 1016 505 1016 629 q 982 281 1016 380 q 888 117 949 182 q 741 14 826 48 q 547 -21 656 -21 q 353 14 440 -21 q 205 117 266 50 q 111 281 144 184 q 78 505 78 379 q 111 726 78 628 q 205 894 143 824 q 354 996 265 960 q 547 1031 442 1031 q 742 995 655 1031 q 888 894 828 960 m 876 505 q 788 808 876 701 q 547 915 700 915 q 306 808 393 915 q 218 505 218 701 q 307 200 218 306 q 547 95 397 95 q 787 200 698 95 q 876 505 876 306 m 753 1137 l 618 1137 l 618 1270 l 753 1270 l 753 1137 m 473 1137 l 338 1137 l 338 1270 l 473 1270 l 473 1137 z "},"Ü":{"ha":1017,"x_min":121,"x_max":896,"o":"m 896 406 q 872 214 896 296 q 793 78 848 132 q 671 3 741 26 q 508 -21 601 -21 q 342 4 413 -21 q 224 78 272 29 q 145 212 169 134 q 121 406 121 291 l 121 1010 l 255 1010 l 255 399 q 266 269 255 317 q 304 183 277 222 q 385 117 334 139 q 508 94 436 94 q 631 116 581 94 q 713 183 682 138 q 750 272 739 222 q 762 395 762 321 l 762 1010 l 896 1010 l 896 406 m 716 1137 l 581 1137 l 581 1270 l 716 1270 l 716 1137 m 436 1137 l 301 1137 l 301 1270 l 436 1270 l 436 1137 z "},"á":{"ha":834,"x_min":71,"x_max":714,"o":"m 714 0 l 587 0 l 587 81 q 542 48 570 69 q 486 16 513 28 q 412 -11 454 0 q 315 -21 371 -21 q 142 47 213 -21 q 71 220 71 115 q 107 359 71 306 q 213 443 144 412 q 379 484 282 473 q 587 500 476 495 l 587 520 q 572 592 587 564 q 528 637 557 621 q 463 658 501 652 q 384 663 425 663 q 272 650 334 663 q 144 612 210 637 l 138 612 l 138 741 q 245 764 175 751 q 385 776 316 776 q 524 763 465 776 q 627 718 583 749 q 692 637 669 686 q 714 514 714 587 l 714 0 m 587 186 l 587 397 q 450 387 529 394 q 325 368 371 380 q 236 319 270 352 q 202 229 202 286 q 241 131 202 163 q 361 98 281 98 q 484 124 429 98 q 587 186 540 150 m 633 1137 l 448 883 l 347 883 l 469 1137 l 633 1137 z "},"à":{"ha":834,"x_min":71,"x_max":714,"o":"m 714 0 l 587 0 l 587 81 q 542 48 570 69 q 486 16 513 28 q 412 -11 454 0 q 315 -21 371 -21 q 142 47 213 -21 q 71 220 71 115 q 107 359 71 306 q 213 443 144 412 q 379 484 282 473 q 587 500 476 495 l 587 520 q 572 592 587 564 q 528 637 557 621 q 463 658 501 652 q 384 663 425 663 q 272 650 334 663 q 144 612 210 637 l 138 612 l 138 741 q 245 764 175 751 q 385 776 316 776 q 524 763 465 776 q 627 718 583 749 q 692 637 669 686 q 714 514 714 587 l 714 0 m 587 186 l 587 397 q 450 387 529 394 q 325 368 371 380 q 236 319 270 352 q 202 229 202 286 q 241 131 202 163 q 361 98 281 98 q 484 124 429 98 q 587 186 540 150 m 500 883 l 399 883 l 214 1137 l 379 1137 l 500 883 z "},"â":{"ha":834,"x_min":71,"x_max":714,"o":"m 714 0 l 587 0 l 587 81 q 542 48 570 69 q 486 16 513 28 q 412 -11 454 0 q 315 -21 371 -21 q 142 47 213 -21 q 71 220 71 115 q 107 359 71 306 q 213 443 144 412 q 379 484 282 473 q 587 500 476 495 l 587 520 q 572 592 587 564 q 528 637 557 621 q 463 658 501 652 q 384 663 425 663 q 272 650 334 663 q 144 612 210 637 l 138 612 l 138 741 q 245 764 175 751 q 385 776 316 776 q 524 763 465 776 q 627 718 583 749 q 692 637 669 686 q 714 514 714 587 l 714 0 m 587 186 l 587 397 q 450 387 529 394 q 325 368 371 380 q 236 319 270 352 q 202 229 202 286 q 241 131 202 163 q 361 98 281 98 q 484 124 429 98 q 587 186 540 150 m 652 880 l 544 880 l 418 1053 l 294 880 l 189 880 l 343 1137 l 497 1137 l 652 880 z "},"ä":{"ha":834,"x_min":71,"x_max":714,"o":"m 714 0 l 587 0 l 587 81 q 542 48 570 69 q 486 16 513 28 q 412 -11 454 0 q 315 -21 371 -21 q 142 47 213 -21 q 71 220 71 115 q 107 359 71 306 q 213 443 144 412 q 379 484 282 473 q 587 500 476 495 l 587 520 q 572 592 587 564 q 528 637 557 621 q 463 658 501 652 q 384 663 425 663 q 272 650 334 663 q 144 612 210 637 l 138 612 l 138 741 q 245 764 175 751 q 385 776 316 776 q 524 763 465 776 q 627 718 583 749 q 692 637 669 686 q 714 514 714 587 l 714 0 m 587 186 l 587 397 q 450 387 529 394 q 325 368 371 380 q 236 319 270 352 q 202 229 202 286 q 241 131 202 163 q 361 98 281 98 q 484 124 429 98 q 587 186 540 150 m 628 884 l 493 884 l 493 1017 l 628 1017 l 628 884 m 348 884 l 213 884 l 213 1017 l 348 1017 l 348 884 z "},"ã":{"ha":834,"x_min":71,"x_max":714,"o":"m 714 0 l 587 0 l 587 81 q 542 48 570 69 q 486 16 513 28 q 412 -11 454 0 q 315 -21 371 -21 q 142 47 213 -21 q 71 220 71 115 q 107 359 71 306 q 213 443 144 412 q 379 484 282 473 q 587 500 476 495 l 587 520 q 572 592 587 564 q 528 637 557 621 q 463 658 501 652 q 384 663 425 663 q 272 650 334 663 q 144 612 210 637 l 138 612 l 138 741 q 245 764 175 751 q 385 776 316 776 q 524 763 465 776 q 627 718 583 749 q 692 637 669 686 q 714 514 714 587 l 714 0 m 587 186 l 587 397 q 450 387 529 394 q 325 368 371 380 q 236 319 270 352 q 202 229 202 286 q 241 131 202 163 q 361 98 281 98 q 484 124 429 98 q 587 186 540 150 m 704 1098 q 652 943 696 995 q 532 890 607 890 q 464 904 495 890 q 405 942 433 917 q 351 986 373 971 q 302 1000 329 1000 q 250 970 267 1000 q 229 888 232 939 l 140 888 q 194 1042 146 990 q 312 1095 242 1095 q 377 1081 346 1095 q 437 1044 409 1068 q 494 1002 469 1016 q 541 988 519 988 q 595 1019 576 988 q 616 1098 614 1050 l 704 1098 z "},"å":{"ha":834,"x_min":71,"x_max":714,"o":"m 714 0 l 587 0 l 587 81 q 542 48 570 69 q 486 16 513 28 q 412 -11 454 0 q 315 -21 371 -21 q 142 47 213 -21 q 71 220 71 115 q 107 359 71 306 q 213 443 144 412 q 379 484 282 473 q 587 500 476 495 l 587 520 q 572 592 587 564 q 528 637 557 621 q 463 658 501 652 q 384 663 425 663 q 272 650 334 663 q 144 612 210 637 l 138 612 l 138 741 q 245 764 175 751 q 385 776 316 776 q 524 763 465 776 q 627 718 583 749 q 692 637 669 686 q 714 514 714 587 l 714 0 m 587 186 l 587 397 q 450 387 529 394 q 325 368 371 380 q 236 319 270 352 q 202 229 202 286 q 241 131 202 163 q 361 98 281 98 q 484 124 429 98 q 587 186 540 150 m 648 1105 q 579 941 648 1008 q 411 874 510 874 q 243 941 313 874 q 174 1105 174 1008 q 243 1269 174 1202 q 411 1335 312 1335 q 579 1269 511 1335 q 648 1105 648 1202 m 550 1105 q 510 1204 550 1164 q 411 1244 471 1244 q 312 1204 351 1244 q 272 1105 272 1164 q 312 1006 272 1046 q 411 966 352 966 q 510 1006 471 966 q 550 1105 550 1046 z "},"ç":{"ha":724,"x_min":71,"x_max":686,"o":"m 686 47 q 637 27 663 37 q 591 10 611 16 q 595 -22 593 -3 q 597 -60 597 -41 q 535 -229 597 -170 q 374 -287 473 -287 q 309 -282 349 -287 q 239 -269 270 -277 l 239 -161 l 245 -161 q 293 -176 263 -168 q 357 -185 323 -185 q 460 -159 427 -185 q 494 -73 494 -132 q 493 -42 494 -58 q 490 -13 492 -26 q 470 -16 479 -14 q 443 -17 460 -17 q 292 7 361 -17 q 175 80 224 31 q 98 203 125 129 q 71 378 71 278 q 173 669 71 564 q 443 775 275 775 q 571 757 508 775 q 686 712 633 739 l 686 570 l 679 570 q 558 640 621 616 q 437 665 496 665 q 266 592 329 665 q 203 378 203 519 q 265 167 203 241 q 437 94 326 94 q 516 104 476 94 q 588 130 556 114 q 640 160 616 144 q 679 188 665 176 l 686 188 l 686 47 z "},"é":{"ha":827,"x_min":72,"x_max":760,"o":"m 760 366 l 201 366 q 222 244 201 296 q 280 159 243 192 q 364 110 315 126 q 471 94 412 94 q 626 124 548 94 q 738 185 705 155 l 745 185 l 745 46 q 613 1 680 19 q 472 -18 546 -18 q 178 84 283 -18 q 72 374 72 186 q 173 669 72 560 q 440 779 275 779 q 676 689 593 779 q 760 435 760 600 l 760 366 m 635 463 q 585 618 635 564 q 433 673 535 673 q 270 613 331 673 q 201 463 210 553 l 635 463 m 651 1137 l 466 883 l 365 883 l 486 1137 l 651 1137 z "},"è":{"ha":827,"x_min":72,"x_max":760,"o":"m 760 366 l 201 366 q 222 244 201 296 q 280 159 243 192 q 364 110 315 126 q 471 94 412 94 q 626 124 548 94 q 738 185 705 155 l 745 185 l 745 46 q 613 1 680 19 q 472 -18 546 -18 q 178 84 283 -18 q 72 374 72 186 q 173 669 72 560 q 440 779 275 779 q 676 689 593 779 q 760 435 760 600 l 760 366 m 635 463 q 585 618 635 564 q 433 673 535 673 q 270 613 331 673 q 201 463 210 553 l 635 463 m 515 883 l 414 883 l 229 1137 l 393 1137 l 515 883 z "},"ê":{"ha":827,"x_min":72,"x_max":760,"o":"m 760 366 l 201 366 q 222 244 201 296 q 280 159 243 192 q 364 110 315 126 q 471 94 412 94 q 626 124 548 94 q 738 185 705 155 l 745 185 l 745 46 q 613 1 680 19 q 472 -18 546 -18 q 178 84 283 -18 q 72 374 72 186 q 173 669 72 560 q 440 779 275 779 q 676 689 593 779 q 760 435 760 600 l 760 366 m 635 463 q 585 618 635 564 q 433 673 535 673 q 270 613 331 673 q 201 463 210 553 l 635 463 m 669 880 l 561 880 l 435 1053 l 311 880 l 205 880 l 360 1137 l 514 1137 l 669 880 z "},"ë":{"ha":827,"x_min":72,"x_max":760,"o":"m 760 366 l 201 366 q 222 244 201 296 q 280 159 243 192 q 364 110 315 126 q 471 94 412 94 q 626 124 548 94 q 738 185 705 155 l 745 185 l 745 46 q 613 1 680 19 q 472 -18 546 -18 q 178 84 283 -18 q 72 374 72 186 q 173 669 72 560 q 440 779 275 779 q 676 689 593 779 q 760 435 760 600 l 760 366 m 635 463 q 585 618 635 564 q 433 673 535 673 q 270 613 331 673 q 201 463 210 553 l 635 463 m 645 884 l 510 884 l 510 1017 l 645 1017 l 645 884 m 365 884 l 230 884 l 230 1017 l 365 1017 l 365 884 z "},"í":{"ha":381,"x_min":109,"x_max":395,"o":"m 254 0 l 127 0 l 127 758 l 254 758 l 254 0 m 395 1137 l 210 883 l 109 883 l 230 1137 l 395 1137 z "},"ì":{"ha":381,"x_min":-14,"x_max":272,"o":"m 254 0 l 127 0 l 127 758 l 254 758 l 254 0 m 272 883 l 171 883 l -14 1137 l 151 1137 l 272 883 z "},"î":{"ha":381,"x_min":-7,"x_max":388,"o":"m 388 880 l 286 880 l 189 1061 l 92 880 l -7 880 l 113 1137 l 267 1137 l 388 880 m 254 0 l 127 0 l 127 758 l 254 758 l 254 0 z "},"ï":{"ha":381,"x_min":3,"x_max":378,"o":"m 378 884 l 250 884 l 250 1017 l 378 1017 l 378 884 m 132 884 l 3 884 l 3 1017 l 132 1017 l 132 884 m 254 0 l 127 0 l 127 758 l 254 758 l 254 0 z "},"ñ":{"ha":879,"x_min":125,"x_max":759,"o":"m 759 0 l 631 0 l 631 431 q 625 529 631 484 q 603 601 619 575 q 554 643 586 629 q 471 657 522 657 q 362 631 419 657 q 253 566 305 606 l 253 0 l 125 0 l 125 758 l 253 758 l 253 673 q 376 751 313 723 q 507 779 440 779 q 694 705 630 779 q 759 492 759 631 l 759 0 m 729 1098 q 677 943 722 995 q 557 890 632 890 q 489 904 520 890 q 430 942 458 917 q 376 986 398 971 q 328 1000 354 1000 q 275 970 292 1000 q 254 888 257 939 l 165 888 q 219 1042 171 990 q 337 1095 267 1095 q 402 1081 371 1095 q 463 1044 434 1068 q 519 1002 494 1016 q 566 988 544 988 q 620 1019 601 988 q 642 1098 640 1050 l 729 1098 z "},"ó":{"ha":843,"x_min":72,"x_max":771,"o":"m 771 378 q 676 86 771 193 q 422 -21 581 -21 q 166 86 261 -21 q 72 378 72 193 q 166 671 72 564 q 422 779 261 779 q 676 671 581 779 q 771 378 771 564 m 640 378 q 582 597 640 526 q 422 669 524 669 q 261 597 318 669 q 203 378 203 526 q 261 162 203 236 q 422 89 319 89 q 582 162 524 89 q 640 378 640 235 m 633 1137 l 448 883 l 347 883 l 468 1137 l 633 1137 z "},"ò":{"ha":843,"x_min":72,"x_max":771,"o":"m 771 378 q 676 86 771 193 q 422 -21 581 -21 q 166 86 261 -21 q 72 378 72 193 q 166 671 72 564 q 422 779 261 779 q 676 671 581 779 q 771 378 771 564 m 640 378 q 582 597 640 526 q 422 669 524 669 q 261 597 318 669 q 203 378 203 526 q 261 162 203 236 q 422 89 319 89 q 582 162 524 89 q 640 378 640 235 m 496 883 l 395 883 l 210 1137 l 375 1137 l 496 883 z "},"ô":{"ha":843,"x_min":72,"x_max":771,"o":"m 771 378 q 676 86 771 193 q 422 -21 581 -21 q 166 86 261 -21 q 72 378 72 193 q 166 671 72 564 q 422 779 261 779 q 676 671 581 779 q 771 378 771 564 m 640 378 q 582 597 640 526 q 422 669 524 669 q 261 597 318 669 q 203 378 203 526 q 261 162 203 236 q 422 89 319 89 q 582 162 524 89 q 640 378 640 235 m 653 880 l 545 880 l 420 1053 l 295 880 l 190 880 l 345 1137 l 498 1137 l 653 880 z "},"ö":{"ha":843,"x_min":72,"x_max":771,"o":"m 771 378 q 676 86 771 193 q 422 -21 581 -21 q 166 86 261 -21 q 72 378 72 193 q 166 671 72 564 q 422 779 261 779 q 676 671 581 779 q 771 378 771 564 m 640 378 q 582 597 640 526 q 422 669 524 669 q 261 597 318 669 q 203 378 203 526 q 261 162 203 236 q 422 89 319 89 q 582 162 524 89 q 640 378 640 235 m 629 884 l 494 884 l 494 1017 l 629 1017 l 629 884 m 349 884 l 214 884 l 214 1017 l 349 1017 l 349 884 z "},"õ":{"ha":843,"x_min":72,"x_max":771,"o":"m 771 378 q 676 86 771 193 q 422 -21 581 -21 q 166 86 261 -21 q 72 378 72 193 q 166 671 72 564 q 422 779 261 779 q 676 671 581 779 q 771 378 771 564 m 640 378 q 582 597 640 526 q 422 669 524 669 q 261 597 318 669 q 203 378 203 526 q 261 162 203 236 q 422 89 319 89 q 582 162 524 89 q 640 378 640 235 m 704 1098 q 652 943 696 995 q 532 890 607 890 q 464 904 495 890 q 405 942 433 917 q 351 986 373 971 q 302 1000 329 1000 q 250 970 267 1000 q 229 888 232 939 l 140 888 q 194 1042 146 990 q 312 1095 242 1095 q 377 1081 346 1095 q 437 1044 409 1068 q 494 1002 469 1016 q 541 988 519 988 q 595 1019 576 988 q 616 1098 614 1050 l 704 1098 z "},"ú":{"ha":879,"x_min":120,"x_max":753,"o":"m 753 0 l 626 0 l 626 84 q 503 6 562 33 q 372 -21 444 -21 q 186 52 253 -21 q 120 266 120 125 l 120 758 l 248 758 l 248 326 q 253 228 248 269 q 276 157 258 186 q 323 114 294 127 q 408 100 353 100 q 516 126 458 100 q 626 192 575 152 l 626 758 l 753 758 l 753 0 m 641 1137 l 456 883 l 355 883 l 476 1137 l 641 1137 z "},"ù":{"ha":879,"x_min":120,"x_max":753,"o":"m 753 0 l 626 0 l 626 84 q 503 6 562 33 q 372 -21 444 -21 q 186 52 253 -21 q 120 266 120 125 l 120 758 l 248 758 l 248 326 q 253 228 248 269 q 276 157 258 186 q 323 114 294 127 q 408 100 353 100 q 516 126 458 100 q 626 192 575 152 l 626 758 l 753 758 l 753 0 m 518 883 l 417 883 l 232 1137 l 397 1137 l 518 883 z "},"û":{"ha":879,"x_min":120,"x_max":753,"o":"m 753 0 l 626 0 l 626 84 q 503 6 562 33 q 372 -21 444 -21 q 186 52 253 -21 q 120 266 120 125 l 120 758 l 248 758 l 248 326 q 253 228 248 269 q 276 157 258 186 q 323 114 294 127 q 408 100 353 100 q 516 126 458 100 q 626 192 575 152 l 626 758 l 753 758 l 753 0 m 668 880 l 560 880 l 435 1053 l 310 880 l 205 880 l 359 1137 l 513 1137 l 668 880 z "},"ü":{"ha":879,"x_min":120,"x_max":753,"o":"m 753 0 l 626 0 l 626 84 q 503 6 562 33 q 372 -21 444 -21 q 186 52 253 -21 q 120 266 120 125 l 120 758 l 248 758 l 248 326 q 253 228 248 269 q 276 157 258 186 q 323 114 294 127 q 408 100 353 100 q 516 126 458 100 q 626 192 575 152 l 626 758 l 753 758 l 753 0 m 648 884 l 513 884 l 513 1017 l 648 1017 l 648 884 m 368 884 l 233 884 l 233 1017 l 368 1017 l 368 884 z "},"†":{"ha":883,"x_min":127,"x_max":756,"o":"m 756 701 l 483 705 l 486 92 l 397 92 l 400 705 l 127 701 l 127 789 l 400 785 l 397 1055 l 486 1055 l 483 785 l 756 789 l 756 701 z "},"°":{"ha":753,"x_min":104,"x_max":648,"o":"m 648 757 q 570 564 648 643 q 376 486 491 486 q 183 564 262 486 q 104 757 104 642 q 183 949 104 871 q 376 1028 262 1028 q 570 949 492 1028 q 648 757 648 871 m 536 757 q 491 873 536 826 q 376 920 446 920 q 262 873 307 920 q 216 757 216 826 q 263 640 216 686 q 376 593 309 593 q 491 641 446 593 q 536 757 536 688 z "},"¢":{"ha":883,"x_min":108,"x_max":760,"o":"m 760 50 q 650 14 711 30 q 519 -4 589 -2 l 519 -245 l 439 -245 l 439 -1 q 196 111 285 13 q 108 378 108 208 q 198 643 108 542 q 439 760 289 745 l 439 1000 l 519 1000 l 519 762 q 652 745 589 760 q 760 709 715 730 l 760 572 l 752 572 q 656 629 715 602 q 519 663 597 657 l 519 94 q 659 130 600 101 q 752 186 718 159 l 760 186 l 760 50 m 439 96 l 439 662 q 292 577 347 648 q 237 378 237 506 q 289 184 237 255 q 439 96 340 113 z "},"£":{"ha":883,"x_min":93,"x_max":789,"o":"m 789 0 l 93 0 l 93 140 q 208 226 173 162 q 243 416 243 290 l 123 416 l 123 509 l 243 509 l 243 720 q 329 942 243 855 q 553 1029 414 1029 q 676 1018 625 1029 q 771 995 728 1006 l 771 855 l 764 855 q 671 900 722 884 q 561 916 619 916 q 419 860 466 916 q 372 707 372 804 l 372 509 l 653 509 l 653 416 l 372 416 l 372 374 q 330 225 372 289 q 221 123 288 162 l 221 116 l 789 116 l 789 0 z "},"§":{"ha":883,"x_min":117,"x_max":765,"o":"m 765 408 q 725 281 765 336 q 618 189 685 226 l 618 184 q 713 103 684 153 q 743 -7 743 54 q 721 -106 743 -59 q 654 -186 699 -153 q 540 -243 606 -224 q 390 -261 474 -261 q 274 -252 331 -261 q 155 -222 218 -243 l 155 -90 l 162 -90 q 277 -132 216 -115 q 411 -149 338 -149 q 557 -116 502 -149 q 612 -24 612 -83 q 598 36 612 14 q 555 75 585 58 q 478 103 527 90 q 374 129 429 115 q 173 219 229 164 q 117 361 117 274 q 155 485 117 428 q 263 581 194 543 l 263 586 q 166 668 195 618 q 138 778 138 718 q 159 877 138 833 q 227 957 181 922 q 337 1010 270 991 q 492 1030 405 1030 q 608 1021 551 1030 q 726 991 665 1011 l 726 860 l 720 860 q 616 899 680 878 q 470 919 552 919 q 327 888 384 919 q 269 798 269 857 q 284 735 269 759 q 328 695 298 711 q 401 667 357 680 q 508 640 446 654 q 705 555 644 609 q 765 408 765 502 m 597 271 q 627 315 616 293 q 637 376 637 337 q 626 435 637 411 q 595 474 614 458 q 549 501 576 490 q 493 519 523 511 q 435 534 467 527 q 356 555 404 541 q 323 533 344 549 q 287 502 302 518 q 258 455 271 484 q 245 393 245 426 q 255 335 245 359 q 286 295 266 311 q 331 269 304 279 q 389 250 359 258 q 447 235 414 243 q 525 214 479 227 q 561 238 538 222 q 597 271 583 254 z "},"•":{"ha":758,"x_min":125,"x_max":632,"o":"m 632 449 q 557 270 632 345 q 378 196 483 196 q 200 270 274 196 q 125 449 125 345 q 200 628 125 553 q 378 702 274 702 q 557 628 483 702 q 632 449 632 553 z "},"¶":{"ha":883,"x_min":93,"x_max":750,"o":"m 750 -246 l 650 -246 l 650 922 l 505 922 l 505 -246 l 404 -246 l 404 402 q 178 490 264 406 q 93 712 93 574 q 181 931 93 852 q 434 1010 269 1010 l 750 1010 l 750 -246 z "},"ß":{"ha":861,"x_min":125,"x_max":790,"o":"m 790 326 q 698 82 790 181 q 458 -16 606 -16 q 389 -11 428 -16 q 326 3 350 -6 l 326 115 l 332 115 q 394 92 361 98 q 466 86 428 86 q 553 106 516 86 q 613 159 591 125 q 647 237 637 194 q 658 332 658 280 q 586 502 658 444 q 380 559 515 559 l 380 661 q 539 701 487 661 q 591 829 591 741 q 584 875 591 852 q 556 918 576 897 q 508 950 538 938 q 437 962 478 962 q 367 952 398 962 q 309 916 336 942 q 268 846 283 891 q 253 737 253 802 l 253 0 l 125 0 l 125 732 q 150 879 125 817 q 218 983 174 941 q 319 1042 258 1022 q 444 1062 380 1062 q 645 1003 568 1062 q 723 842 723 944 q 675 705 723 766 q 550 623 627 645 l 550 617 q 726 516 661 592 q 790 326 790 441 z "},"®":{"ha":1389,"x_min":108,"x_max":1281,"o":"m 1281 444 q 1109 30 1281 201 q 694 -142 937 -142 q 280 30 452 -142 q 108 444 108 201 q 280 859 108 687 q 694 1031 452 1031 q 1109 859 937 1031 q 1281 444 1281 687 m 1202 444 q 1054 805 1202 654 q 694 956 905 956 q 335 805 484 956 q 186 444 186 654 q 335 83 186 234 q 694 -67 484 -67 q 1054 83 905 -67 q 1202 444 1202 234 m 1072 146 l 921 146 l 696 387 l 587 387 l 587 146 l 475 146 l 475 766 l 686 766 q 791 761 750 766 q 873 734 833 755 q 936 679 916 711 q 956 596 956 646 q 917 487 956 530 q 812 417 879 443 l 1072 146 m 833 589 q 824 632 833 613 q 792 663 814 651 q 747 678 771 675 q 688 682 724 682 l 587 682 l 587 472 l 673 472 q 745 478 715 472 q 795 500 776 485 q 825 538 817 517 q 833 589 833 558 z "},"©":{"ha":1389,"x_min":108,"x_max":1281,"o":"m 1281 444 q 1109 30 1281 201 q 694 -142 937 -142 q 280 30 452 -142 q 108 444 108 201 q 280 859 108 687 q 694 1031 452 1031 q 1109 859 937 1031 q 1281 444 1281 687 m 1202 444 q 1054 805 1202 654 q 694 956 905 956 q 335 805 484 956 q 186 444 186 654 q 335 83 186 234 q 694 -67 484 -67 q 1054 83 905 -67 q 1202 444 1202 234 m 932 175 q 820 135 874 149 q 713 122 766 122 q 470 205 559 122 q 380 448 380 289 q 472 688 380 600 q 713 775 563 775 q 832 759 774 775 q 932 724 890 743 l 932 601 l 922 601 q 828 652 885 628 q 710 675 770 675 q 560 617 614 675 q 506 448 506 559 q 558 281 506 340 q 710 222 610 222 q 820 241 766 222 q 922 296 873 261 l 932 296 l 932 175 z "},"™":{"ha":1356,"x_min":115,"x_max":1205,"o":"m 1205 532 l 1121 532 l 1121 951 l 1107 951 l 947 645 l 893 645 l 731 956 l 714 956 l 714 532 l 631 532 l 631 1010 l 792 1010 l 922 751 l 1051 1010 l 1205 1010 l 1205 532 m 512 930 l 357 930 l 357 532 l 271 532 l 271 930 l 115 930 l 115 1010 l 512 1010 l 512 930 z "},"´":{"ha":883,"x_min":367,"x_max":653,"o":"m 653 1137 l 468 883 l 367 883 l 488 1137 l 653 1137 z "},"¨":{"ha":883,"x_min":235,"x_max":650,"o":"m 650 884 l 515 884 l 515 1017 l 650 1017 l 650 884 m 370 884 l 235 884 l 235 1017 l 370 1017 l 370 884 z "},"≠":{"ha":1137,"x_min":166,"x_max":970,"o":"m 970 245 l 558 245 l 488 18 l 384 18 l 454 245 l 166 245 l 166 351 l 488 351 l 545 533 l 166 533 l 166 639 l 577 639 l 648 866 l 752 866 l 681 639 l 970 639 l 970 533 l 648 533 l 591 351 l 970 351 l 970 245 z "},"Æ":{"ha":1367,"x_min":9,"x_max":1289,"o":"m 1289 0 l 649 0 l 649 377 l 294 377 l 150 0 l 9 0 l 412 1010 l 1289 1010 l 1289 890 l 781 890 l 781 614 l 1289 614 l 1289 494 l 781 494 l 781 119 l 1289 119 l 1289 0 m 649 490 l 649 898 l 500 898 l 338 490 l 649 490 z "},"Ø":{"ha":1093,"x_min":78,"x_max":1016,"o":"m 1016 505 q 982 281 1016 380 q 888 117 949 182 q 741 14 826 48 q 547 -21 656 -21 q 400 -1 469 -21 q 279 56 332 18 l 171 -99 l 81 -99 l 220 100 q 115 270 152 168 q 78 505 78 372 q 111 726 78 628 q 205 894 143 824 q 354 996 265 960 q 547 1031 442 1031 q 692 1012 627 1031 q 814 956 758 994 l 910 1093 l 1000 1093 l 872 911 q 978 742 941 843 q 1016 505 1016 642 m 744 854 q 656 901 705 886 q 547 916 608 916 q 412 890 473 916 q 306 811 351 864 q 239 682 262 760 q 216 505 216 604 q 236 334 216 410 q 295 206 256 258 l 744 854 m 878 505 q 858 676 878 599 q 798 804 838 753 l 348 155 q 438 109 389 125 q 547 94 487 94 q 684 121 622 94 q 788 199 746 148 q 856 331 833 255 q 878 505 878 408 z "},"∞":{"ha":1389,"x_min":109,"x_max":1280,"o":"m 1280 450 q 1197 197 1280 288 q 973 106 1114 106 q 808 158 883 106 q 686 309 732 210 q 561 157 632 207 q 392 106 489 106 q 186 198 262 106 q 109 435 109 290 q 194 688 109 597 q 416 779 279 779 q 582 726 507 779 q 703 576 657 674 q 829 728 757 677 q 997 779 901 779 q 1203 687 1126 779 q 1280 450 1280 595 m 656 494 q 551 613 613 574 q 423 653 488 653 q 277 596 330 653 q 224 435 224 540 q 267 289 224 345 q 391 233 310 233 q 507 266 465 233 q 588 362 549 298 q 624 425 611 401 q 656 494 636 449 m 1165 450 q 1122 596 1165 541 q 998 652 1078 652 q 895 628 939 652 q 801 523 851 604 q 763 455 781 490 q 733 391 746 420 q 837 272 774 313 q 966 232 901 232 q 1112 288 1059 232 q 1165 450 1165 345 z "},"±":{"ha":1137,"x_min":146,"x_max":991,"o":"m 991 121 l 146 121 l 146 229 l 512 229 l 512 515 l 146 515 l 146 622 l 512 622 l 512 991 l 625 991 l 625 622 l 991 622 l 991 515 l 625 515 l 625 229 l 991 229 l 991 121 z "},"≤":{"ha":1137,"x_min":172,"x_max":955,"o":"m 955 205 l 172 533 l 172 617 l 955 945 l 955 821 l 352 575 l 955 330 l 955 205 m 955 0 l 172 0 l 172 109 l 955 109 l 955 0 z "},"≥":{"ha":1137,"x_min":182,"x_max":964,"o":"m 964 533 l 182 205 l 182 330 l 785 575 l 182 821 l 182 945 l 964 617 l 964 533 m 964 0 l 182 0 l 182 109 l 964 109 l 964 0 z "},"¥":{"ha":883,"x_min":73,"x_max":808,"o":"m 808 1010 l 504 446 l 504 382 l 756 382 l 756 289 l 505 289 l 505 0 l 378 0 l 378 289 l 127 289 l 127 382 l 379 382 l 379 432 l 73 1010 l 217 1010 l 442 563 l 670 1010 l 808 1010 z "},"µ":{"ha":891,"x_min":129,"x_max":762,"o":"m 762 0 l 642 0 l 635 80 q 551 11 595 36 q 446 -14 507 -14 q 344 9 387 -14 q 256 77 301 33 l 256 -279 l 129 -279 l 129 758 l 256 758 l 256 189 q 331 135 278 163 q 445 107 383 107 q 553 130 508 107 q 635 193 598 153 l 635 758 l 762 758 l 762 0 z "},"∂":{"ha":883,"x_min":101,"x_max":777,"o":"m 777 568 q 750 334 777 456 q 668 129 724 212 q 542 12 610 45 q 396 -22 473 -22 q 183 64 266 -22 q 101 288 101 150 q 192 540 101 442 q 420 638 283 638 q 535 621 481 638 q 643 559 589 603 q 645 596 644 576 q 646 634 646 616 q 592 850 646 781 q 435 918 538 918 q 320 897 382 918 q 205 838 258 876 l 198 838 l 198 970 q 321 1015 253 1000 q 454 1030 389 1030 q 617 993 547 1030 q 728 872 686 956 q 767 744 757 814 q 777 568 777 674 m 639 460 q 547 510 598 492 q 446 528 495 528 q 294 467 351 528 q 237 290 237 405 q 282 139 237 191 q 404 87 328 87 q 546 153 491 87 q 625 348 602 219 q 632 397 629 370 q 639 460 636 425 z "},"∑":{"ha":1010,"x_min":127,"x_max":928,"o":"m 928 -128 l 127 -128 l 127 1 l 583 454 l 134 882 l 134 1010 l 902 1010 l 902 890 l 298 890 l 737 483 l 737 434 l 286 -9 l 928 -9 l 928 -128 z "},"∏":{"ha":1137,"x_min":98,"x_max":1039,"o":"m 1039 892 l 903 892 l 903 -131 l 769 -131 l 769 892 l 368 892 l 368 -131 l 233 -131 l 233 892 l 98 892 l 98 1010 l 1039 1010 l 1039 892 z "},"∫":{"ha":883,"x_min":94,"x_max":792,"o":"m 792 927 l 785 927 q 725 940 764 932 q 664 947 686 947 q 541 905 576 947 q 505 763 505 864 l 505 1 q 435 -212 505 -138 q 236 -287 363 -287 q 164 -283 201 -287 q 94 -273 127 -279 l 94 -152 l 100 -152 q 159 -164 123 -157 q 219 -172 196 -172 q 342 -130 307 -172 q 378 12 378 -89 l 378 774 q 448 987 378 912 q 647 1062 519 1062 q 721 1058 686 1062 q 792 1048 755 1055 l 792 927 z "},"ª":{"ha":758,"x_min":102,"x_max":640,"o":"m 640 376 l 525 376 l 525 439 q 489 413 506 426 q 443 388 473 401 q 385 367 412 374 q 308 360 357 360 q 162 418 221 360 q 102 565 102 475 q 134 683 102 637 q 218 753 165 728 q 352 788 271 777 q 525 802 433 798 l 525 814 q 513 872 525 850 q 478 907 500 894 q 426 922 455 919 q 363 926 396 926 q 250 909 307 926 q 166 884 193 893 l 157 884 l 157 1000 q 250 1020 187 1009 q 364 1031 312 1031 q 576 974 511 1031 q 640 808 640 916 l 640 376 m 525 540 l 525 706 q 416 698 478 703 q 317 682 354 692 q 248 644 274 670 q 221 572 221 618 q 252 494 221 520 q 347 469 283 469 q 447 491 402 469 q 525 540 491 514 z "},"º":{"ha":758,"x_min":82,"x_max":675,"o":"m 675 695 q 593 448 675 536 q 379 360 510 360 q 162 450 243 360 q 82 695 82 540 q 162 941 82 850 q 379 1031 243 1031 q 593 943 510 1031 q 675 695 675 854 m 552 695 q 506 870 552 812 q 379 928 460 928 q 251 869 296 928 q 205 695 205 810 q 251 521 205 580 q 379 463 296 463 q 506 520 460 463 q 552 695 552 578 z "},"Ω":{"ha":1137,"x_min":73,"x_max":1064,"o":"m 1064 0 l 654 0 l 654 264 q 745 321 700 290 q 820 389 789 351 q 871 480 852 428 q 890 608 890 532 q 806 829 890 743 q 568 915 722 915 q 331 829 415 915 q 247 608 247 743 q 267 479 247 533 q 318 388 286 426 q 393 320 350 349 q 482 264 436 290 l 482 0 l 73 0 l 73 118 l 368 118 l 368 202 q 181 366 254 262 q 107 608 107 469 q 233 913 107 796 q 568 1031 358 1031 q 904 913 779 1031 q 1029 608 1029 796 q 956 366 1029 469 q 768 202 882 262 l 768 118 l 1064 118 l 1064 0 z "},"æ":{"ha":1326,"x_min":71,"x_max":1258,"o":"m 1258 379 l 703 379 q 723 247 703 302 q 781 157 743 192 q 864 109 816 124 q 970 94 912 94 q 1118 122 1046 94 q 1235 185 1190 150 l 1243 185 l 1243 46 q 1118 2 1190 22 q 972 -18 1046 -18 q 779 18 859 -18 q 647 123 699 53 q 602 83 633 110 q 536 37 570 56 q 444 -4 494 12 q 315 -20 393 -20 q 142 46 214 -20 q 71 215 71 112 q 107 351 71 299 q 212 431 144 403 q 376 467 277 458 q 585 479 475 477 l 585 520 q 569 593 585 564 q 526 637 553 622 q 460 659 498 653 q 382 665 422 665 q 268 650 328 665 q 146 612 207 636 l 137 612 l 137 741 q 244 764 174 751 q 382 777 314 777 q 562 746 490 777 q 672 652 633 714 q 787 743 719 708 q 941 779 856 779 q 1173 692 1088 779 q 1258 435 1258 605 l 1258 379 m 1135 477 q 1119 557 1131 523 q 1084 617 1106 592 q 1024 659 1061 644 q 934 673 987 673 q 783 623 844 673 q 705 477 722 572 l 1135 477 m 606 202 q 586 283 593 238 q 578 378 578 328 q 442 373 507 376 q 321 356 377 370 q 235 312 268 342 q 202 224 202 281 q 241 129 202 160 q 361 98 281 98 q 493 127 428 98 q 606 202 559 156 z "},"ø":{"ha":843,"x_min":63,"x_max":771,"o":"m 771 378 q 676 86 771 193 q 422 -21 581 -21 q 316 -7 365 -21 q 228 34 268 7 l 138 -100 l 63 -100 l 179 73 q 100 202 128 125 q 72 378 72 279 q 166 671 72 564 q 422 779 261 779 q 529 764 481 779 q 614 725 577 749 l 692 842 l 768 842 l 663 685 q 743 557 714 633 q 771 378 771 481 m 551 631 q 493 660 526 650 q 422 670 459 670 q 259 595 317 670 q 201 378 201 521 q 213 262 201 313 q 248 176 224 212 l 551 631 m 642 378 q 630 496 642 444 q 595 584 618 547 l 291 129 q 350 98 317 108 q 422 87 382 87 q 583 161 524 87 q 642 378 642 235 z "},"¿":{"ha":758,"x_min":77,"x_max":650,"o":"m 483 867 l 345 867 l 345 1010 l 483 1010 l 483 867 m 650 27 q 530 -7 593 7 q 391 -20 467 -20 q 161 51 245 -20 q 77 237 77 121 q 100 355 77 304 q 163 448 123 406 q 256 524 203 490 q 355 586 309 558 l 355 739 l 477 739 l 477 532 q 382 476 436 509 q 298 416 329 444 q 238 342 261 385 q 215 248 215 300 q 267 133 215 171 q 401 96 319 96 q 537 118 471 96 q 643 165 604 140 l 650 165 l 650 27 z "},"¡":{"ha":547,"x_min":197,"x_max":349,"o":"m 342 867 l 204 867 l 204 1010 l 342 1010 l 342 867 m 349 0 l 197 0 l 215 732 l 330 732 l 349 0 z "},"¬":{"ha":1137,"x_min":142,"x_max":987,"o":"m 987 39 l 871 39 l 871 408 l 142 408 l 142 517 l 987 517 l 987 39 z "},"√":{"ha":1137,"x_min":91,"x_max":1178,"o":"m 1178 1213 l 581 -102 l 512 -102 l 252 571 l 91 571 l 91 665 l 357 665 l 570 109 l 1065 1213 l 1178 1213 z "},"ƒ":{"ha":883,"x_min":-24,"x_max":868,"o":"m 868 896 l 861 896 q 803 911 842 903 q 736 920 764 920 q 612 880 654 920 q 545 731 569 840 l 517 600 l 734 600 l 734 506 l 498 506 l 428 174 q 377 23 408 83 q 302 -72 346 -37 q 207 -122 258 -108 q 93 -136 155 -136 q 38 -134 65 -136 q -24 -125 11 -132 l -24 -3 l -18 -3 q 37 -20 5 -13 q 98 -26 68 -26 q 228 17 184 -26 q 296 174 272 60 l 366 506 l 218 506 l 218 600 l 385 600 l 413 734 q 462 874 431 817 q 535 966 493 931 q 629 1015 577 1000 q 740 1030 681 1030 q 806 1027 779 1030 q 868 1018 833 1023 l 868 896 z "},"≈":{"ha":1137,"x_min":165,"x_max":971,"o":"m 970 749 q 895 550 957 617 q 726 483 833 483 q 627 508 674 483 q 541 564 579 534 q 462 618 497 600 q 397 637 427 637 q 317 604 346 637 q 270 488 289 572 l 165 488 q 241 677 180 611 q 410 744 302 744 q 507 719 458 744 q 595 663 555 694 q 672 610 636 630 q 739 590 709 590 q 821 627 791 590 q 864 749 851 664 l 970 749 m 971 399 q 895 208 954 274 q 726 142 836 142 q 628 167 677 142 q 541 223 579 193 q 471 270 514 244 q 396 296 427 296 q 314 258 343 296 q 271 137 285 221 l 165 137 q 240 335 178 267 q 409 403 302 403 q 508 378 461 403 q 594 321 555 353 q 660 276 618 302 q 739 249 702 249 q 818 282 789 249 q 865 399 846 316 l 971 399 z "},"∆":{"ha":1010,"x_min":34,"x_max":975,"o":"m 975 0 l 34 0 l 415 1010 l 594 1010 l 975 0 m 794 114 l 501 892 l 209 114 l 794 114 z "},"«":{"ha":895,"x_min":113,"x_max":777,"o":"m 777 130 l 419 414 l 419 471 l 777 755 l 777 627 l 535 442 l 777 257 l 777 130 m 486 110 l 113 412 l 113 473 l 486 774 l 486 642 l 234 442 l 486 243 l 486 110 z "},"»":{"ha":895,"x_min":118,"x_max":783,"o":"m 783 412 l 410 110 l 410 243 l 661 442 l 410 642 l 410 774 l 783 473 l 783 412 m 476 414 l 118 130 l 118 257 l 360 442 l 118 627 l 118 755 l 476 471 l 476 414 z "},"…":{"ha":1137,"x_min":121,"x_max":1016,"o":"m 1016 0 l 878 0 l 878 151 l 1016 151 l 1016 0 m 637 0 l 499 0 l 499 151 l 637 151 l 637 0 m 259 0 l 121 0 l 121 151 l 259 151 l 259 0 z "},"À":{"ha":949,"x_min":18,"x_max":932,"o":"m 932 0 l 789 0 l 690 281 l 253 281 l 154 0 l 18 0 l 385 1010 l 564 1010 l 932 0 m 648 397 l 471 892 l 294 397 l 648 397 m 585 1136 l 484 1136 l 298 1390 l 463 1390 l 585 1136 z "},"Ã":{"ha":949,"x_min":18,"x_max":932,"o":"m 932 0 l 789 0 l 690 281 l 253 281 l 154 0 l 18 0 l 385 1010 l 564 1010 l 932 0 m 648 397 l 471 892 l 294 397 l 648 397 m 759 1351 q 707 1196 751 1248 q 587 1143 662 1143 q 519 1157 550 1143 q 460 1195 488 1170 q 406 1239 428 1224 q 357 1253 384 1253 q 304 1223 322 1253 q 284 1141 287 1192 l 195 1141 q 249 1295 201 1243 q 367 1348 297 1348 q 432 1334 401 1348 q 492 1297 464 1321 q 549 1255 524 1269 q 596 1241 574 1241 q 650 1272 631 1241 q 671 1351 669 1303 l 759 1351 z "},"Õ":{"ha":1093,"x_min":78,"x_max":1016,"o":"m 888 894 q 983 728 950 826 q 1016 505 1016 629 q 982 281 1016 380 q 888 117 949 182 q 741 14 826 48 q 547 -21 656 -21 q 353 14 440 -21 q 205 117 266 50 q 111 281 144 184 q 78 505 78 379 q 111 726 78 628 q 205 894 143 824 q 354 996 265 960 q 547 1031 442 1031 q 742 995 655 1031 q 888 894 828 960 m 876 505 q 788 808 876 701 q 547 915 700 915 q 306 808 393 915 q 218 505 218 701 q 307 200 218 306 q 547 95 397 95 q 787 200 698 95 q 876 505 876 306 m 819 1351 q 766 1196 811 1248 q 646 1143 722 1143 q 578 1157 610 1143 q 519 1195 547 1170 q 466 1239 488 1224 q 417 1253 444 1253 q 364 1223 382 1253 q 344 1141 347 1192 l 255 1141 q 309 1295 260 1243 q 427 1348 357 1348 q 492 1334 460 1348 q 552 1297 524 1321 q 609 1255 584 1269 q 656 1241 633 1241 q 710 1272 690 1241 q 731 1351 729 1303 l 819 1351 z "},"Œ":{"ha":1486,"x_min":81,"x_max":1408,"o":"m 1408 0 l 680 0 q 459 18 547 0 q 301 81 371 37 q 142 253 203 142 q 81 504 81 363 q 140 757 81 650 q 302 929 199 864 q 440 987 356 964 q 682 1010 525 1010 l 1408 1010 l 1408 890 l 890 890 l 890 614 l 1408 614 l 1408 494 l 890 494 l 890 119 l 1408 119 l 1408 0 m 757 117 l 757 893 l 674 893 q 514 882 575 893 q 388 835 452 871 q 266 706 309 790 q 222 506 222 622 q 260 309 222 390 q 372 182 298 229 q 505 130 434 144 q 674 117 575 117 l 757 117 z "},"œ":{"ha":1363,"x_min":72,"x_max":1295,"o":"m 1295 366 l 750 366 q 770 243 750 295 q 826 159 791 192 q 909 110 861 125 q 1013 94 957 94 q 1156 120 1086 94 q 1273 185 1225 147 l 1281 185 l 1281 46 q 1150 0 1215 18 q 1014 -18 1085 -18 q 821 24 900 -18 q 692 136 743 65 q 575 20 646 60 q 415 -21 504 -21 q 164 86 257 -21 q 72 378 72 193 q 166 672 72 566 q 415 779 261 779 q 578 738 510 779 q 692 619 646 696 q 813 735 740 691 q 983 779 886 779 q 1215 688 1135 779 q 1295 435 1295 597 l 1295 366 m 1171 463 q 1120 621 1169 568 q 975 673 1071 673 q 822 618 881 673 q 751 463 762 562 l 1171 463 m 627 378 q 571 596 627 524 q 416 669 515 669 q 258 593 312 669 q 203 378 203 517 q 260 162 203 235 q 416 89 317 89 q 571 161 515 89 q 627 378 627 233 z "},"–":{"ha":883,"x_min":104,"x_max":779,"o":"m 779 388 l 104 388 l 104 496 l 779 496 l 779 388 z "},"—":{"ha":1389,"x_min":104,"x_max":1285,"o":"m 1285 388 l 104 388 l 104 496 l 1285 496 l 1285 388 z "},"“":{"ha":637,"x_min":-13,"x_max":536,"o":"m 536 676 l 445 676 l 261 1055 l 424 1055 l 536 676 m 262 676 l 171 676 l -13 1055 l 150 1055 l 262 676 z "},"”":{"ha":637,"x_min":102,"x_max":650,"o":"m 650 1055 l 467 676 l 376 676 l 488 1055 l 650 1055 m 376 1055 l 193 676 l 102 676 l 214 1055 l 376 1055 z "},"‘":{"ha":373,"x_min":-13,"x_max":264,"o":"m 264 676 l 171 676 l -13 1055 l 153 1055 l 264 676 z "},"’":{"ha":373,"x_min":109,"x_max":386,"o":"m 386 1055 l 202 676 l 109 676 l 220 1055 l 386 1055 z "},"÷":{"ha":1137,"x_min":142,"x_max":994,"o":"m 649 693 l 488 693 l 488 880 l 649 880 l 649 693 m 994 388 l 142 388 l 142 496 l 994 496 l 994 388 m 649 5 l 488 5 l 488 191 l 649 191 l 649 5 z "},"◊":{"ha":1137,"x_min":117,"x_max":1020,"o":"m 1020 444 l 568 -38 l 117 444 l 568 925 l 1020 444 m 870 444 l 568 767 l 267 444 l 568 120 l 870 444 z "},"ÿ":{"ha":822,"x_min":41,"x_max":781,"o":"m 781 758 l 338 -279 l 202 -279 l 343 37 l 41 758 l 180 758 l 412 196 l 647 758 l 781 758 m 626 884 l 491 884 l 491 1017 l 626 1017 l 626 884 m 346 884 l 211 884 l 211 1017 l 346 1017 l 346 884 z "},"Ÿ":{"ha":854,"x_min":4,"x_max":850,"o":"m 850 1010 l 495 443 l 495 0 l 361 0 l 361 429 l 4 1010 l 153 1010 l 429 558 l 707 1010 l 850 1010 m 637 1137 l 502 1137 l 502 1270 l 637 1270 l 637 1137 m 357 1137 l 222 1137 l 222 1270 l 357 1270 l 357 1137 z "},"⁄":{"ha":502,"x_min":-69,"x_max":572,"o":"m 572 1010 l 43 0 l -69 0 l 460 1010 l 572 1010 z "},"¤":{"ha":883,"x_min":94,"x_max":792,"o":"m 792 174 l 718 100 l 557 258 q 503 233 528 241 q 442 226 477 226 q 381 234 411 226 q 328 258 352 243 l 168 98 l 94 175 l 252 334 q 228 389 236 359 q 220 448 220 419 q 227 508 220 484 q 252 562 235 533 l 94 723 l 169 798 l 328 638 q 382 662 353 654 q 442 671 412 671 q 502 663 472 671 q 557 639 532 654 l 715 798 l 792 724 l 633 563 q 657 509 649 537 q 665 448 665 481 q 657 388 665 418 q 633 334 648 358 l 792 174 m 564 448 q 529 536 564 498 q 442 574 493 574 q 356 536 393 574 q 320 448 320 499 q 356 360 320 398 q 442 323 391 323 q 528 360 492 323 q 564 448 564 397 z "},"‹":{"ha":631,"x_min":126,"x_max":499,"o":"m 499 117 l 126 412 l 126 473 l 499 768 l 499 633 l 248 442 l 499 252 l 499 117 z "},"›":{"ha":631,"x_min":132,"x_max":505,"o":"m 505 412 l 132 117 l 132 252 l 383 442 l 132 633 l 132 768 l 505 473 l 505 412 z "},"":{"ha":868,"x_min":46,"x_max":751,"o":"m 751 884 l 610 884 l 610 1017 l 751 1017 l 751 884 m 739 0 l 612 0 l 612 652 l 260 652 l 260 0 l 132 0 l 132 650 l 46 650 l 46 758 l 132 758 l 132 791 q 200 992 132 922 q 392 1062 268 1062 q 468 1058 434 1062 q 530 1048 503 1053 l 530 933 l 524 933 q 469 945 505 939 q 410 952 433 952 q 292 916 328 952 q 256 785 256 880 l 256 758 l 739 758 l 739 0 z "},"":{"ha":869,"x_min":46,"x_max":743,"o":"m 743 0 l 615 0 l 615 942 q 539 951 586 947 q 456 956 492 956 q 301 919 346 956 q 256 787 256 882 l 256 758 l 479 758 l 479 650 l 260 650 l 260 0 l 132 0 l 132 650 l 46 650 l 46 758 l 132 758 l 132 791 q 211 991 132 920 q 441 1062 290 1062 q 536 1057 488 1062 q 615 1050 585 1053 l 743 1055 l 743 0 z "},"‡":{"ha":883,"x_min":127,"x_max":756,"o":"m 756 344 l 483 347 l 486 84 l 397 84 l 400 347 l 127 344 l 127 431 l 400 428 l 400 711 l 127 708 l 127 795 l 400 792 l 397 1055 l 486 1055 l 483 792 l 756 795 l 756 708 l 483 711 l 483 428 l 756 431 l 756 344 z "},"∙":{"ha":505,"x_min":172,"x_max":334,"o":"m 334 347 l 172 347 l 172 538 l 334 538 l 334 347 z "},"‚":{"ha":373,"x_min":-7,"x_max":271,"o":"m 271 192 l 87 -187 l -7 -187 l 105 192 l 271 192 z "},"„":{"ha":637,"x_min":-7,"x_max":542,"o":"m 542 192 l 358 -187 l 267 -187 l 379 192 l 542 192 m 268 192 l 84 -187 l -7 -187 l 105 192 l 268 192 z "},"‰":{"ha":2113,"x_min":101,"x_max":2009,"o":"m 600 730 q 535 504 600 578 q 351 430 471 430 q 164 504 227 430 q 101 729 101 578 q 165 955 101 881 q 351 1029 230 1029 q 536 954 473 1029 q 600 730 600 880 m 1068 1010 l 539 0 l 427 0 l 956 1010 l 1068 1010 m 1394 280 q 1329 54 1394 128 q 1144 -20 1265 -20 q 958 55 1021 -20 q 895 279 895 130 q 959 505 895 431 q 1144 579 1023 579 q 1331 505 1267 579 q 1394 280 1394 431 m 479 730 q 449 892 479 846 q 351 939 418 939 q 252 892 281 939 q 222 729 222 846 q 252 566 222 612 q 351 520 281 520 q 449 566 418 520 q 479 730 479 612 m 1273 280 q 1243 443 1273 397 q 1145 489 1213 489 q 1046 443 1076 489 q 1016 279 1016 397 q 1046 116 1016 162 q 1145 71 1076 71 q 1243 116 1213 71 q 1273 280 1273 162 m 2009 280 q 1945 54 2009 128 q 1760 -20 1881 -20 q 1574 55 1637 -20 q 1511 279 1511 130 q 1575 505 1511 431 q 1760 579 1639 579 q 1946 505 1883 579 q 2009 280 2009 431 m 1889 280 q 1859 443 1889 397 q 1761 489 1828 489 q 1662 443 1691 489 q 1632 279 1632 397 q 1662 116 1632 162 q 1761 71 1691 71 q 1859 116 1828 71 q 1889 280 1889 162 z "},"Â":{"ha":949,"x_min":18,"x_max":932,"o":"m 932 0 l 789 0 l 690 281 l 253 281 l 154 0 l 18 0 l 385 1010 l 564 1010 l 932 0 m 648 397 l 471 892 l 294 397 l 648 397 m 701 1133 l 593 1133 l 467 1306 l 342 1133 l 237 1133 l 392 1390 l 546 1390 l 701 1133 z "},"Ê":{"ha":878,"x_min":136,"x_max":801,"o":"m 801 0 l 136 0 l 136 1010 l 801 1010 l 801 890 l 270 890 l 270 614 l 801 614 l 801 494 l 270 494 l 270 119 l 801 119 l 801 0 m 699 1133 l 591 1133 l 466 1306 l 341 1133 l 236 1133 l 391 1390 l 545 1390 l 699 1133 z "},"Á":{"ha":949,"x_min":18,"x_max":932,"o":"m 932 0 l 789 0 l 690 281 l 253 281 l 154 0 l 18 0 l 385 1010 l 564 1010 l 932 0 m 648 397 l 471 892 l 294 397 l 648 397 m 648 1390 l 463 1136 l 361 1136 l 483 1390 l 648 1390 z "},"Ë":{"ha":878,"x_min":136,"x_max":801,"o":"m 801 0 l 136 0 l 136 1010 l 801 1010 l 801 890 l 270 890 l 270 614 l 801 614 l 801 494 l 270 494 l 270 119 l 801 119 l 801 0 m 704 1137 l 569 1137 l 569 1270 l 704 1270 l 704 1137 m 424 1137 l 289 1137 l 289 1270 l 424 1270 l 424 1137 z "},"È":{"ha":878,"x_min":136,"x_max":801,"o":"m 801 0 l 136 0 l 136 1010 l 801 1010 l 801 890 l 270 890 l 270 614 l 801 614 l 801 494 l 270 494 l 270 119 l 801 119 l 801 0 m 557 1136 l 456 1136 l 271 1390 l 436 1390 l 557 1136 z "},"Í":{"ha":585,"x_min":93,"x_max":492,"o":"m 492 0 l 93 0 l 93 103 l 225 103 l 225 907 l 93 907 l 93 1010 l 492 1010 l 492 907 l 359 907 l 359 103 l 492 103 l 492 0 m 492 1390 l 307 1136 l 205 1136 l 327 1390 l 492 1390 z "},"Î":{"ha":585,"x_min":63,"x_max":526,"o":"m 492 0 l 93 0 l 93 103 l 225 103 l 225 907 l 93 907 l 93 1010 l 492 1010 l 492 907 l 359 907 l 359 103 l 492 103 l 492 0 m 526 1133 l 418 1133 l 293 1306 l 168 1133 l 63 1133 l 218 1390 l 372 1390 l 526 1133 z "},"Ï":{"ha":585,"x_min":85,"x_max":500,"o":"m 492 0 l 93 0 l 93 103 l 225 103 l 225 907 l 93 907 l 93 1010 l 492 1010 l 492 907 l 359 907 l 359 103 l 492 103 l 492 0 m 500 1137 l 366 1137 l 366 1270 l 500 1270 l 500 1137 m 220 1137 l 85 1137 l 85 1270 l 220 1270 l 220 1137 z "},"Ì":{"ha":585,"x_min":93,"x_max":492,"o":"m 492 0 l 93 0 l 93 103 l 225 103 l 225 907 l 93 907 l 93 1010 l 492 1010 l 492 907 l 359 907 l 359 103 l 492 103 l 492 0 m 385 1136 l 284 1136 l 99 1390 l 264 1390 l 385 1136 z "},"Ó":{"ha":1093,"x_min":78,"x_max":1016,"o":"m 888 894 q 983 728 950 826 q 1016 505 1016 629 q 982 281 1016 380 q 888 117 949 182 q 741 14 826 48 q 547 -21 656 -21 q 353 14 440 -21 q 205 117 266 50 q 111 281 144 184 q 78 505 78 379 q 111 726 78 628 q 205 894 143 824 q 354 996 265 960 q 547 1031 442 1031 q 742 995 655 1031 q 888 894 828 960 m 876 505 q 788 808 876 701 q 547 915 700 915 q 306 808 393 915 q 218 505 218 701 q 307 200 218 306 q 547 95 397 95 q 787 200 698 95 q 876 505 876 306 m 734 1390 l 549 1136 l 448 1136 l 570 1390 l 734 1390 z "},"Ô":{"ha":1093,"x_min":78,"x_max":1016,"o":"m 888 894 q 983 728 950 826 q 1016 505 1016 629 q 982 281 1016 380 q 888 117 949 182 q 741 14 826 48 q 547 -21 656 -21 q 353 14 440 -21 q 205 117 266 50 q 111 281 144 184 q 78 505 78 379 q 111 726 78 628 q 205 894 143 824 q 354 996 265 960 q 547 1031 442 1031 q 742 995 655 1031 q 888 894 828 960 m 876 505 q 788 808 876 701 q 547 915 700 915 q 306 808 393 915 q 218 505 218 701 q 307 200 218 306 q 547 95 397 95 q 787 200 698 95 q 876 505 876 306 m 770 1133 l 663 1133 l 537 1306 l 412 1133 l 307 1133 l 462 1390 l 616 1390 l 770 1133 z "},"Ò":{"ha":1093,"x_min":78,"x_max":1016,"o":"m 888 894 q 983 728 950 826 q 1016 505 1016 629 q 982 281 1016 380 q 888 117 949 182 q 741 14 826 48 q 547 -21 656 -21 q 353 14 440 -21 q 205 117 266 50 q 111 281 144 184 q 78 505 78 379 q 111 726 78 628 q 205 894 143 824 q 354 996 265 960 q 547 1031 442 1031 q 742 995 655 1031 q 888 894 828 960 m 876 505 q 788 808 876 701 q 547 915 700 915 q 306 808 393 915 q 218 505 218 701 q 307 200 218 306 q 547 95 397 95 q 787 200 698 95 q 876 505 876 306 m 632 1136 l 531 1136 l 346 1390 l 511 1390 l 632 1136 z "},"Ú":{"ha":1017,"x_min":121,"x_max":896,"o":"m 896 406 q 872 214 896 296 q 793 78 848 132 q 671 3 741 26 q 508 -21 601 -21 q 342 4 413 -21 q 224 78 272 29 q 145 212 169 134 q 121 406 121 291 l 121 1010 l 255 1010 l 255 399 q 266 269 255 317 q 304 183 277 222 q 385 117 334 139 q 508 94 436 94 q 631 116 581 94 q 713 183 682 138 q 750 272 739 222 q 762 395 762 321 l 762 1010 l 896 1010 l 896 406 m 728 1390 l 543 1136 l 441 1136 l 563 1390 l 728 1390 z "},"Û":{"ha":1017,"x_min":121,"x_max":896,"o":"m 896 406 q 872 214 896 296 q 793 78 848 132 q 671 3 741 26 q 508 -21 601 -21 q 342 4 413 -21 q 224 78 272 29 q 145 212 169 134 q 121 406 121 291 l 121 1010 l 255 1010 l 255 399 q 266 269 255 317 q 304 183 277 222 q 385 117 334 139 q 508 94 436 94 q 631 116 581 94 q 713 183 682 138 q 750 272 739 222 q 762 395 762 321 l 762 1010 l 896 1010 l 896 406 m 735 1133 l 627 1133 l 502 1306 l 377 1133 l 272 1133 l 427 1390 l 581 1390 l 735 1133 z "},"Ù":{"ha":1017,"x_min":121,"x_max":896,"o":"m 896 406 q 872 214 896 296 q 793 78 848 132 q 671 3 741 26 q 508 -21 601 -21 q 342 4 413 -21 q 224 78 272 29 q 145 212 169 134 q 121 406 121 291 l 121 1010 l 255 1010 l 255 399 q 266 269 255 317 q 304 183 277 222 q 385 117 334 139 q 508 94 436 94 q 631 116 581 94 q 713 183 682 138 q 750 272 739 222 q 762 395 762 321 l 762 1010 l 896 1010 l 896 406 m 632 1136 l 531 1136 l 346 1390 l 511 1390 l 632 1136 z "},"ı":{"ha":381,"x_min":127,"x_max":254,"o":"m 254 0 l 127 0 l 127 758 l 254 758 l 254 0 z "},"ˆ":{"ha":883,"x_min":210,"x_max":673,"o":"m 673 880 l 566 880 l 440 1053 l 315 880 l 210 880 l 365 1137 l 519 1137 l 673 880 z "},"˜":{"ha":883,"x_min":161,"x_max":724,"o":"m 724 1098 q 672 943 717 995 q 552 890 627 890 q 484 904 515 890 q 425 942 453 917 q 371 986 393 971 q 323 1000 349 1000 q 270 970 288 1000 q 250 888 252 939 l 161 888 q 214 1042 166 990 q 332 1095 262 1095 q 398 1081 366 1095 q 458 1044 429 1068 q 514 1002 490 1016 q 562 988 539 988 q 615 1019 596 988 q 637 1098 635 1050 l 724 1098 z "},"ˉ":{"ha":883,"x_min":190,"x_max":693,"o":"m 693 905 l 190 905 l 190 1010 l 693 1010 l 693 905 z "},"˘":{"ha":883,"x_min":186,"x_max":696,"o":"m 696 1137 q 622 950 689 1023 q 441 878 555 878 q 259 950 326 878 q 186 1137 193 1023 l 299 1137 q 343 1006 307 1047 q 441 966 380 966 q 538 1006 502 966 q 584 1137 574 1047 l 696 1137 z "},"˙":{"ha":883,"x_min":370,"x_max":513,"o":"m 513 884 l 370 884 l 370 1017 l 513 1017 l 513 884 z "},"˚":{"ha":883,"x_min":204,"x_max":679,"o":"m 679 1105 q 610 941 679 1008 q 441 874 541 874 q 274 941 344 874 q 204 1105 204 1008 q 273 1269 204 1202 q 441 1335 342 1335 q 610 1269 541 1335 q 679 1105 679 1202 m 581 1105 q 541 1204 581 1164 q 441 1244 501 1244 q 342 1204 382 1244 q 302 1105 302 1164 q 342 1006 302 1046 q 441 966 382 966 q 541 1006 501 966 q 581 1105 581 1046 z "},"¸":{"ha":883,"x_min":239,"x_max":597,"o":"m 597 -60 q 535 -229 597 -170 q 374 -287 473 -287 q 309 -282 349 -287 q 239 -269 270 -277 l 239 -161 l 245 -161 q 293 -176 263 -168 q 357 -185 323 -185 q 460 -159 427 -185 q 494 -73 494 -132 q 492 -28 494 -53 q 488 14 490 -3 l 591 14 q 595 -17 593 1 q 597 -60 597 -35 z "},"˝":{"ha":883,"x_min":232,"x_max":775,"o":"m 775 1137 l 600 883 l 506 883 l 621 1137 l 775 1137 m 501 1137 l 326 883 l 232 883 l 347 1137 l 501 1137 z "},"˛":{"ha":883,"x_min":281,"x_max":605,"o":"m 605 -265 q 544 -279 570 -275 q 490 -283 519 -283 q 339 -229 396 -283 q 281 -79 281 -176 q 286 -32 281 -53 q 294 7 290 -11 l 399 7 q 393 -32 395 -12 q 391 -73 391 -52 q 419 -155 391 -128 q 509 -181 448 -181 q 561 -172 533 -181 q 600 -157 588 -163 l 605 -157 l 605 -265 z "},"ˇ":{"ha":883,"x_min":208,"x_max":671,"o":"m 671 1137 l 516 880 l 362 880 l 208 1137 l 315 1137 l 441 963 l 566 1137 l 671 1137 z "},"Ł":{"ha":780,"x_min":16,"x_max":781,"o":"m 781 0 l 142 0 l 142 363 l 16 260 l 16 370 l 142 471 l 142 1010 l 277 1010 l 277 570 l 513 762 l 513 652 l 277 462 l 277 119 l 781 119 l 781 0 z "},"ł":{"ha":395,"x_min":16,"x_max":384,"o":"m 384 604 l 261 505 l 261 0 l 134 0 l 134 412 l 16 317 l 16 425 l 134 518 l 134 1055 l 261 1055 l 261 611 l 384 711 l 384 604 z "},"Š":{"ha":949,"x_min":91,"x_max":869,"o":"m 869 288 q 842 172 869 229 q 765 74 814 114 q 638 6 711 31 q 465 -18 566 -18 q 268 2 355 -18 q 91 62 181 22 l 91 231 l 100 231 q 277 132 177 167 q 466 98 378 98 q 660 144 591 98 q 730 269 730 191 q 697 368 730 336 q 597 418 664 400 q 487 440 546 431 q 361 463 427 449 q 162 560 227 491 q 97 739 97 629 q 204 947 97 866 q 476 1028 311 1028 q 671 1008 583 1028 q 829 958 760 987 l 829 799 l 819 799 q 668 880 762 848 q 475 912 574 912 q 302 867 368 912 q 237 752 237 823 q 269 653 237 689 q 384 598 302 617 q 507 575 427 589 q 643 547 587 562 q 812 457 755 517 q 869 288 869 397 m 723 1390 l 568 1133 l 414 1133 l 260 1390 l 368 1390 l 493 1216 l 618 1390 l 723 1390 z "},"š":{"ha":724,"x_min":75,"x_max":667,"o":"m 667 218 q 581 48 667 115 q 347 -18 495 -18 q 192 2 262 -18 q 75 45 122 22 l 75 189 l 81 189 q 216 116 142 143 q 357 90 290 90 q 489 117 441 90 q 536 202 536 144 q 511 270 536 247 q 412 309 485 293 q 341 323 385 315 q 261 341 297 332 q 120 419 161 368 q 78 545 78 470 q 97 633 78 591 q 156 707 117 674 q 253 757 194 739 q 384 776 311 776 q 521 759 452 776 q 637 719 591 743 l 637 583 l 630 583 q 511 643 581 618 q 374 668 441 668 q 256 641 304 668 q 208 562 208 614 q 237 491 208 515 q 330 452 266 467 q 409 436 365 444 q 481 421 452 428 q 618 351 570 401 q 667 218 667 301 m 615 1137 l 460 880 l 307 880 l 152 1137 l 260 1137 l 385 963 l 510 1137 l 615 1137 z "},"Ž":{"ha":951,"x_min":85,"x_max":873,"o":"m 873 0 l 85 0 l 85 125 l 705 890 l 109 890 l 109 1010 l 859 1010 l 859 888 l 233 119 l 873 119 l 873 0 m 705 1390 l 550 1133 l 396 1133 l 241 1390 l 349 1390 l 475 1216 l 600 1390 l 705 1390 z "},"ž":{"ha":730,"x_min":63,"x_max":675,"o":"m 675 0 l 63 0 l 63 94 l 505 651 l 73 651 l 73 758 l 663 758 l 663 667 l 220 108 l 675 108 l 675 0 m 597 1137 l 443 880 l 289 880 l 134 1137 l 242 1137 l 368 963 l 492 1137 l 597 1137 z "},"¦":{"ha":631,"x_min":256,"x_max":374,"o":"m 374 514 l 256 514 l 256 1055 l 374 1055 l 374 514 m 374 -266 l 256 -266 l 256 275 l 374 275 l 374 -266 z "},"Ð":{"ha":1077,"x_min":9,"x_max":996,"o":"m 996 504 q 936 254 996 366 q 776 81 876 142 q 622 19 707 38 q 397 0 536 0 l 142 0 l 142 502 l 9 502 l 9 599 l 142 599 l 142 1010 l 395 1010 q 630 988 543 1010 q 777 930 718 967 q 938 758 880 865 q 996 504 996 651 m 855 506 q 814 706 855 625 q 690 834 772 787 q 564 881 631 868 q 403 895 496 895 l 275 895 l 275 599 l 520 599 l 520 502 l 275 502 l 275 115 l 403 115 q 572 130 500 115 q 705 182 644 144 q 818 309 780 231 q 855 506 855 388 z "},"ð":{"ha":850,"x_min":72,"x_max":771,"o":"m 771 432 q 675 96 771 212 q 415 -21 578 -21 q 166 71 260 -21 q 72 328 72 162 q 165 571 72 481 q 395 661 258 661 q 520 643 468 661 q 631 589 573 625 q 564 737 610 665 q 459 860 518 810 l 280 750 l 235 816 l 396 912 q 290 985 339 958 q 178 1044 241 1013 l 178 1055 l 378 1055 q 435 1016 402 1038 q 494 975 469 993 l 636 1062 l 681 996 l 555 922 q 715 702 659 823 q 771 432 771 581 m 574 153 q 625 251 608 193 q 643 410 643 308 q 642 450 643 431 q 640 489 641 469 q 533 534 589 519 q 418 549 477 549 q 261 489 319 549 q 204 327 204 430 q 261 146 204 205 q 416 87 319 87 q 502 102 460 87 q 574 153 544 117 z "},"Ý":{"ha":854,"x_min":4,"x_max":850,"o":"m 850 1010 l 495 443 l 495 0 l 361 0 l 361 429 l 4 1010 l 153 1010 l 429 558 l 707 1010 l 850 1010 m 634 1390 l 449 1136 l 348 1136 l 469 1390 l 634 1390 z "},"ý":{"ha":822,"x_min":41,"x_max":781,"o":"m 781 758 l 338 -279 l 202 -279 l 343 37 l 41 758 l 180 758 l 412 196 l 647 758 l 781 758 m 629 1137 l 444 883 l 343 883 l 465 1137 l 629 1137 z "},"Þ":{"ha":841,"x_min":136,"x_max":796,"o":"m 796 534 q 772 414 796 471 q 708 318 749 357 q 581 243 655 267 q 404 218 507 218 l 270 218 l 270 0 l 136 0 l 136 1010 l 270 1010 l 270 827 l 409 827 q 565 811 499 827 q 676 766 631 796 q 764 673 732 730 q 796 534 796 615 m 656 530 q 639 615 656 579 q 583 675 621 652 q 507 704 551 696 q 403 713 464 713 l 270 713 l 270 331 l 383 331 q 515 345 464 331 q 599 389 567 359 q 643 452 629 417 q 656 530 656 486 z "},"þ":{"ha":865,"x_min":125,"x_max":792,"o":"m 792 388 q 766 219 792 296 q 691 90 739 143 q 586 13 646 40 q 457 -15 525 -15 q 350 -2 398 -15 q 253 38 302 11 l 253 -279 l 125 -279 l 125 1055 l 253 1055 l 253 678 q 367 750 304 721 q 503 779 431 779 q 716 675 640 779 q 792 388 792 572 m 661 385 q 614 589 661 522 q 470 657 567 657 q 359 633 415 657 q 253 571 304 610 l 253 142 q 346 109 307 117 q 435 100 385 100 q 601 172 541 100 q 661 385 661 243 z "},"−":{"ha":1137,"x_min":149,"x_max":987,"o":"m 987 388 l 149 388 l 149 496 l 987 496 l 987 388 z "},"×":{"ha":1137,"x_min":197,"x_max":939,"o":"m 939 146 l 864 71 l 568 370 l 273 71 l 197 146 l 496 442 l 197 738 l 273 813 l 568 515 l 864 813 l 939 738 l 641 442 l 939 146 z "},"¹":{"ha":753,"x_min":197,"x_max":620,"o":"m 620 384 l 203 384 l 203 467 l 361 467 l 361 852 l 197 852 l 197 928 q 264 932 228 928 q 321 945 301 937 q 361 970 347 956 q 378 1013 376 985 l 470 1013 l 470 467 l 620 467 l 620 384 z "},"²":{"ha":753,"x_min":140,"x_max":656,"o":"m 656 384 l 140 384 l 140 490 q 265 569 208 532 q 356 634 321 606 q 470 739 445 704 q 495 831 495 774 q 459 903 495 878 q 361 929 422 929 q 243 908 301 929 q 152 867 184 888 l 143 867 l 143 989 q 251 1018 191 1006 q 369 1030 310 1030 q 554 977 491 1030 q 618 839 618 924 q 585 721 618 772 q 474 608 552 669 q 384 545 437 579 q 287 482 332 510 l 656 482 l 656 384 z "},"³":{"ha":753,"x_min":140,"x_max":648,"o":"m 648 554 q 626 465 648 503 q 566 404 604 427 q 477 369 527 380 q 366 357 427 357 q 247 368 302 357 q 140 397 191 378 l 140 518 l 150 518 q 244 474 178 494 q 373 454 310 454 q 486 478 441 454 q 531 553 531 502 q 491 631 531 610 q 375 651 451 651 l 278 651 l 278 747 l 365 747 q 477 773 441 747 q 513 845 513 799 q 480 910 513 886 q 376 935 446 935 q 257 913 323 935 q 161 868 191 892 l 152 868 l 152 989 q 261 1019 202 1007 q 380 1031 319 1031 q 565 985 499 1031 q 630 867 630 939 q 593 768 630 806 q 495 711 555 729 l 495 706 q 604 657 559 694 q 648 554 648 619 z "},"½":{"ha":1389,"x_min":116,"x_max":1326,"o":"m 370 383 l 258 383 l 258 845 l 116 845 l 116 924 q 228 939 185 924 q 277 1013 271 954 l 370 1013 l 370 383 m 956 1010 l 427 0 l 315 0 l 844 1010 l 956 1010 m 1326 0 l 859 0 l 859 100 q 966 182 921 147 q 1038 243 1012 218 q 1134 350 1112 313 q 1156 442 1156 387 q 1126 515 1156 490 q 1044 540 1096 540 q 948 519 997 540 q 872 477 900 499 l 862 477 l 862 599 q 957 629 906 617 q 1061 640 1008 640 q 1224 587 1167 640 q 1282 450 1282 533 q 1254 337 1282 387 q 1154 223 1226 287 q 1073 158 1121 194 q 988 94 1025 122 l 1326 94 l 1326 0 z "},"¼":{"ha":1389,"x_min":116,"x_max":1259,"o":"m 370 383 l 258 383 l 258 845 l 116 845 l 116 924 q 228 939 185 924 q 277 1013 271 954 l 370 1013 l 370 383 m 956 1010 l 427 0 l 315 0 l 844 1010 l 956 1010 m 1259 149 l 1149 149 l 1149 0 l 1047 0 l 1047 149 l 732 149 l 732 275 l 1048 640 l 1149 640 l 1149 239 l 1259 239 l 1259 149 m 1050 239 l 1050 511 l 810 239 l 1050 239 z "},"¾":{"ha":1389,"x_min":95,"x_max":1297,"o":"m 538 560 q 517 474 538 512 q 465 413 497 436 q 387 377 429 388 q 292 366 345 366 q 188 376 236 366 q 95 406 139 387 l 95 524 l 106 524 q 184 480 132 500 q 290 460 236 460 q 384 485 347 460 q 421 559 421 510 q 387 635 421 615 q 292 655 353 655 l 197 655 l 197 749 l 281 749 q 373 775 340 749 q 405 846 405 801 q 377 910 405 886 q 290 935 349 935 q 194 913 245 935 q 117 869 142 892 l 105 869 l 105 987 q 199 1017 149 1006 q 304 1029 250 1029 q 465 981 407 1029 q 522 867 522 934 q 489 770 522 808 q 404 714 456 732 l 404 709 q 498 661 458 698 q 538 560 538 624 m 1017 1010 l 488 0 l 376 0 l 905 1010 l 1017 1010 m 1297 149 l 1187 149 l 1187 0 l 1085 0 l 1085 149 l 770 149 l 770 275 l 1086 640 l 1187 640 l 1187 239 l 1297 239 l 1297 149 m 1088 239 l 1088 511 l 848 239 l 1088 239 z "},"₣":{"ha":883,"x_min":41,"x_max":773,"o":"m 773 894 l 294 894 l 294 604 l 735 604 l 735 488 l 294 488 l 294 303 l 518 303 l 518 209 l 294 209 l 294 0 l 164 0 l 164 209 l 41 209 l 41 303 l 164 303 l 164 1010 l 773 1010 l 773 894 z "},"Ğ":{"ha":1077,"x_min":78,"x_max":978,"o":"m 978 75 q 797 8 895 37 q 608 -20 699 -20 q 391 13 490 -20 q 224 111 293 45 q 116 275 154 176 q 78 506 78 374 q 219 888 78 748 q 608 1028 361 1028 q 784 1007 694 1028 q 977 937 873 987 l 977 778 l 965 778 q 904 821 944 794 q 825 865 864 847 q 719 900 779 886 q 585 913 660 913 q 316 805 415 913 q 218 510 218 696 q 321 205 218 314 q 602 96 424 96 q 731 109 667 96 q 845 142 796 122 l 845 390 l 574 390 l 574 508 l 978 508 l 978 75 m 836 1390 q 763 1203 829 1276 q 581 1131 696 1131 q 400 1203 467 1131 q 327 1390 333 1276 l 439 1390 q 484 1259 448 1300 q 582 1219 520 1219 q 679 1259 642 1219 q 724 1390 715 1300 l 836 1390 z "},"ğ":{"ha":865,"x_min":73,"x_max":740,"o":"m 740 86 q 652 -197 740 -106 q 383 -287 565 -287 q 266 -278 323 -287 q 153 -254 208 -270 l 153 -124 l 159 -124 q 258 -154 191 -136 q 394 -172 326 -172 q 502 -157 459 -172 q 568 -113 545 -141 q 602 -50 592 -87 q 612 34 612 -12 l 612 103 q 502 34 555 57 q 368 12 450 12 q 153 110 233 12 q 73 386 73 208 q 101 554 73 484 q 176 677 128 625 q 283 752 220 725 q 408 779 346 779 q 518 765 474 779 q 612 725 563 752 l 621 758 l 740 758 l 740 86 m 612 208 l 612 621 q 518 654 562 644 q 431 664 474 664 q 265 593 326 664 q 205 389 205 523 q 250 195 205 261 q 398 130 294 130 q 510 151 454 130 q 612 208 566 172 m 694 1137 q 621 950 688 1023 q 439 878 554 878 q 258 950 325 878 q 185 1137 191 1023 l 298 1137 q 342 1006 306 1047 q 440 966 378 966 q 537 1006 500 966 q 583 1137 573 1047 l 694 1137 z "},"İ":{"ha":585,"x_min":93,"x_max":492,"o":"m 492 0 l 93 0 l 93 103 l 225 103 l 225 907 l 93 907 l 93 1010 l 492 1010 l 492 907 l 359 907 l 359 103 l 492 103 l 492 0 m 364 1137 l 220 1137 l 220 1270 l 364 1270 l 364 1137 z "},"Ş":{"ha":949,"x_min":91,"x_max":869,"o":"m 869 288 q 842 172 869 229 q 765 74 814 114 q 700 32 735 50 q 623 1 665 13 q 626 -28 625 -14 q 627 -60 627 -43 q 566 -227 627 -167 q 401 -287 505 -287 q 336 -282 376 -287 q 267 -269 297 -277 l 267 -159 l 273 -159 q 318 -176 290 -166 q 384 -185 346 -185 q 488 -159 454 -185 q 521 -73 521 -132 q 520 -42 521 -56 q 517 -16 519 -28 q 491 -18 504 -17 q 465 -18 479 -18 q 268 2 355 -18 q 91 62 181 22 l 91 231 l 100 231 q 277 132 177 167 q 466 98 378 98 q 660 144 591 98 q 730 269 730 191 q 697 368 730 336 q 597 418 664 400 q 487 440 546 431 q 361 463 427 449 q 162 560 227 491 q 97 739 97 629 q 204 947 97 866 q 476 1028 311 1028 q 671 1008 583 1028 q 829 958 760 987 l 829 799 l 819 799 q 668 880 762 848 q 475 912 574 912 q 302 867 368 912 q 237 752 237 823 q 269 653 237 689 q 384 598 302 617 q 507 575 427 589 q 643 547 587 562 q 812 457 755 517 q 869 288 869 397 z "},"ş":{"ha":724,"x_min":75,"x_max":667,"o":"m 667 218 q 624 91 667 146 q 505 7 581 35 q 508 -24 507 -6 q 510 -60 510 -43 q 448 -229 510 -170 q 287 -287 386 -287 q 222 -282 262 -287 q 153 -269 183 -277 l 153 -161 l 159 -161 q 206 -176 176 -168 q 270 -185 236 -185 q 374 -159 340 -185 q 407 -73 407 -132 q 406 -41 407 -56 q 404 -16 405 -26 q 376 -18 389 -17 q 347 -18 362 -18 q 192 2 262 -18 q 75 45 122 22 l 75 189 l 81 189 q 216 116 142 143 q 357 90 290 90 q 489 117 441 90 q 536 202 536 144 q 511 270 536 247 q 412 309 485 293 q 341 323 385 315 q 261 341 297 332 q 120 419 161 368 q 78 545 78 470 q 97 633 78 591 q 156 707 117 674 q 253 757 194 739 q 384 776 311 776 q 521 759 452 776 q 637 719 591 743 l 637 583 l 630 583 q 511 643 581 618 q 374 668 441 668 q 256 641 304 668 q 208 562 208 614 q 237 491 208 515 q 330 452 266 467 q 409 436 365 444 q 481 421 452 428 q 618 351 570 401 q 667 218 667 301 z "},"Ć":{"ha":970,"x_min":78,"x_max":916,"o":"m 916 73 q 848 43 878 57 q 769 13 818 28 q 679 -9 728 0 q 572 -18 631 -18 q 373 13 463 -18 q 216 109 283 43 q 115 273 151 174 q 78 504 78 372 q 113 727 78 629 q 215 893 149 825 q 371 994 279 959 q 573 1028 462 1028 q 735 1008 654 1028 q 916 939 817 989 l 916 780 l 905 780 q 740 882 822 850 q 564 913 658 913 q 426 889 488 913 q 317 812 365 864 q 244 683 270 761 q 218 504 218 606 q 247 321 218 397 q 321 196 275 244 q 432 122 368 146 q 566 98 495 98 q 747 131 663 98 q 906 231 832 164 l 916 231 l 916 73 m 728 1390 l 543 1136 l 441 1136 l 563 1390 l 728 1390 z "},"ć":{"ha":724,"x_min":71,"x_max":686,"o":"m 686 47 q 565 0 622 17 q 443 -17 507 -17 q 292 7 361 -17 q 175 80 224 31 q 98 203 125 129 q 71 378 71 278 q 173 669 71 564 q 443 775 275 775 q 571 757 508 775 q 686 712 633 739 l 686 570 l 679 570 q 558 640 621 616 q 437 665 496 665 q 266 592 329 665 q 203 378 203 519 q 265 167 203 241 q 437 94 326 94 q 516 104 476 94 q 588 130 556 114 q 640 160 616 144 q 679 188 665 176 l 686 188 l 686 47 m 619 1137 l 434 883 l 333 883 l 454 1137 l 619 1137 z "},"Č":{"ha":970,"x_min":78,"x_max":916,"o":"m 916 73 q 848 43 878 57 q 769 13 818 28 q 679 -9 728 0 q 572 -18 631 -18 q 373 13 463 -18 q 216 109 283 43 q 115 273 151 174 q 78 504 78 372 q 113 727 78 629 q 215 893 149 825 q 371 994 279 959 q 573 1028 462 1028 q 735 1008 654 1028 q 916 939 817 989 l 916 780 l 905 780 q 740 882 822 850 q 564 913 658 913 q 426 889 488 913 q 317 812 365 864 q 244 683 270 761 q 218 504 218 606 q 247 321 218 397 q 321 196 275 244 q 432 122 368 146 q 566 98 495 98 q 747 131 663 98 q 906 231 832 164 l 916 231 l 916 73 m 785 1390 l 630 1133 l 476 1133 l 321 1390 l 429 1390 l 555 1216 l 680 1390 l 785 1390 z "},"č":{"ha":724,"x_min":71,"x_max":686,"o":"m 686 47 q 565 0 622 17 q 443 -17 507 -17 q 292 7 361 -17 q 175 80 224 31 q 98 203 125 129 q 71 378 71 278 q 173 669 71 564 q 443 775 275 775 q 571 757 508 775 q 686 712 633 739 l 686 570 l 679 570 q 558 640 621 616 q 437 665 496 665 q 266 592 329 665 q 203 378 203 519 q 265 167 203 241 q 437 94 326 94 q 516 104 476 94 q 588 130 556 114 q 640 160 616 144 q 679 188 665 176 l 686 188 l 686 47 m 664 1137 l 509 880 l 355 880 l 201 1137 l 309 1137 l 434 963 l 559 1137 l 664 1137 z "},"đ":{"ha":865,"x_min":73,"x_max":865,"o":"m 865 860 l 740 860 l 740 0 l 612 0 l 612 79 q 502 7 560 35 q 368 -21 443 -21 q 154 81 234 -21 q 73 369 73 184 q 101 539 73 465 q 175 666 129 614 q 283 744 221 718 q 410 771 345 771 q 515 759 470 771 q 612 720 561 747 l 612 860 l 366 860 l 366 951 l 612 951 l 612 1055 l 740 1055 l 740 951 l 865 951 l 865 860 m 612 186 l 612 616 q 520 647 559 639 q 431 655 481 655 q 265 583 326 655 q 205 372 205 510 q 251 170 205 239 q 399 100 296 100 q 509 124 453 100 q 612 186 564 149 z "},"¯":{"ha":883,"x_min":-3,"x_max":886,"o":"m 886 1131 l 1 1131 l -3 1213 l 886 1213 l 886 1131 z "},"·":{"ha":505,"x_min":172,"x_max":334,"o":"m 334 347 l 172 347 l 172 538 l 334 538 l 334 347 z "},"Ă":{"ha":949,"x_min":18,"x_max":932,"o":"m 932 0 l 789 0 l 690 281 l 253 281 l 154 0 l 18 0 l 385 1010 l 564 1010 l 932 0 m 648 397 l 471 892 l 294 397 l 648 397 m 729 1390 q 655 1203 722 1276 q 474 1131 589 1131 q 293 1203 359 1131 q 220 1390 226 1276 l 332 1390 q 377 1259 340 1300 q 475 1219 413 1219 q 571 1259 535 1219 q 617 1390 608 1300 l 729 1390 z "},"ă":{"ha":834,"x_min":71,"x_max":714,"o":"m 714 0 l 587 0 l 587 81 q 542 48 570 69 q 486 16 513 28 q 412 -11 454 0 q 315 -21 371 -21 q 142 47 213 -21 q 71 220 71 115 q 107 359 71 306 q 213 443 144 412 q 379 484 282 473 q 587 500 476 495 l 587 520 q 572 592 587 564 q 528 637 557 621 q 463 658 501 652 q 384 663 425 663 q 272 650 334 663 q 144 612 210 637 l 138 612 l 138 741 q 245 764 175 751 q 385 776 316 776 q 524 763 465 776 q 627 718 583 749 q 692 637 669 686 q 714 514 714 587 l 714 0 m 587 186 l 587 397 q 450 387 529 394 q 325 368 371 380 q 236 319 270 352 q 202 229 202 286 q 241 131 202 163 q 361 98 281 98 q 484 124 429 98 q 587 186 540 150 m 667 1137 q 594 950 661 1023 q 412 878 527 878 q 231 950 298 878 q 158 1137 164 1023 l 271 1137 q 315 1006 279 1047 q 413 966 351 966 q 510 1006 473 966 q 555 1137 546 1047 l 667 1137 z "},"Ą":{"ha":949,"x_min":18,"x_max":1071,"o":"m 1071 -265 q 1010 -279 1036 -275 q 956 -283 985 -283 q 805 -230 862 -283 q 747 -79 747 -176 q 758 1 747 -35 q 772 51 768 37 l 690 281 l 253 281 l 154 0 l 18 0 l 385 1010 l 564 1010 l 932 0 l 866 0 q 860 -36 862 -18 q 857 -73 857 -54 q 885 -155 857 -128 q 975 -181 913 -181 q 1026 -172 999 -181 q 1065 -157 1054 -163 l 1071 -157 l 1071 -265 m 648 397 l 471 892 l 294 397 l 648 397 z "},"ą":{"ha":834,"x_min":71,"x_max":899,"o":"m 899 -265 q 839 -279 864 -275 q 785 -283 813 -283 q 633 -229 690 -283 q 576 -79 576 -176 q 580 -33 576 -53 q 587 0 585 -13 l 587 81 q 542 48 570 69 q 486 16 513 28 q 412 -11 454 0 q 315 -21 371 -21 q 142 47 213 -21 q 71 220 71 115 q 107 359 71 306 q 213 443 144 412 q 379 484 282 473 q 587 500 476 495 l 587 520 q 572 592 587 564 q 528 637 557 621 q 463 658 501 652 q 384 663 425 663 q 272 650 334 663 q 144 612 210 637 l 138 612 l 138 741 q 245 764 175 751 q 385 776 316 776 q 524 763 465 776 q 627 718 583 749 q 692 637 669 686 q 714 514 714 587 l 714 0 l 694 0 q 688 -35 690 -18 q 686 -73 686 -52 q 714 -155 686 -128 q 803 -181 742 -181 q 855 -172 827 -181 q 894 -157 882 -163 l 899 -157 l 899 -265 m 587 186 l 587 397 q 450 387 529 394 q 325 368 371 380 q 236 319 270 352 q 202 229 202 286 q 241 131 202 163 q 361 98 281 98 q 484 124 429 98 q 587 186 540 150 z "},"Ď":{"ha":1070,"x_min":136,"x_max":989,"o":"m 989 504 q 929 254 989 366 q 769 81 869 142 q 615 19 700 38 q 391 0 530 0 l 136 0 l 136 1010 l 388 1010 q 623 988 536 1010 q 770 930 710 967 q 931 758 873 865 q 989 504 989 651 m 848 506 q 807 706 848 625 q 684 834 766 787 q 557 881 624 868 q 396 895 490 895 l 270 895 l 270 115 l 396 115 q 565 130 493 115 q 698 182 637 144 q 811 309 773 231 q 848 506 848 388 m 698 1390 l 543 1133 l 389 1133 l 235 1390 l 342 1390 l 468 1216 l 593 1390 l 698 1390 z "},"ď":{"ha":899,"x_min":73,"x_max":1068,"o":"m 1068 1055 l 899 713 l 812 713 l 916 1055 l 1068 1055 m 740 0 l 612 0 l 612 79 q 498 5 557 32 q 368 -21 438 -21 q 153 83 233 -21 q 73 373 73 188 q 101 545 73 469 q 175 673 128 620 q 282 751 221 724 q 410 779 344 779 q 515 766 469 779 q 612 727 562 753 l 612 1055 l 740 1055 l 740 0 m 612 186 l 612 621 q 520 653 561 644 q 431 662 479 662 q 264 587 324 662 q 205 376 205 513 q 251 171 205 241 q 399 100 297 100 q 509 124 453 100 q 612 186 564 149 z "},"Đ":{"ha":1077,"x_min":9,"x_max":996,"o":"m 996 504 q 936 254 996 366 q 776 81 876 142 q 622 19 707 38 q 397 0 536 0 l 142 0 l 142 502 l 9 502 l 9 599 l 142 599 l 142 1010 l 395 1010 q 630 988 543 1010 q 777 930 718 967 q 938 758 880 865 q 996 504 996 651 m 855 506 q 814 706 855 625 q 690 834 772 787 q 564 881 631 868 q 403 895 496 895 l 275 895 l 275 599 l 520 599 l 520 502 l 275 502 l 275 115 l 403 115 q 572 130 500 115 q 705 182 644 144 q 818 309 780 231 q 855 506 855 388 z "},"Ę":{"ha":878,"x_min":136,"x_max":833,"o":"m 833 -265 q 773 -279 798 -275 q 719 -283 747 -283 q 567 -229 625 -283 q 510 -79 510 -176 q 514 -37 510 -54 q 522 0 517 -20 l 136 0 l 136 1010 l 801 1010 l 801 890 l 270 890 l 270 614 l 801 614 l 801 494 l 270 494 l 270 119 l 801 119 l 801 0 l 629 0 q 622 -36 625 -18 q 620 -73 620 -54 q 648 -155 620 -128 q 737 -181 676 -181 q 789 -172 762 -181 q 828 -157 817 -163 l 833 -157 l 833 -265 z "},"ę":{"ha":827,"x_min":72,"x_max":760,"o":"m 760 366 l 201 366 q 222 244 201 296 q 280 159 243 192 q 364 110 315 126 q 471 94 412 94 q 626 124 548 94 q 738 185 705 155 l 745 185 l 745 46 q 642 8 694 25 q 534 -14 589 -8 q 532 -44 533 -28 q 531 -73 531 -60 q 559 -155 531 -128 q 648 -181 587 -181 q 700 -172 673 -181 q 739 -157 728 -163 l 745 -157 l 745 -265 q 684 -279 709 -275 q 630 -283 659 -283 q 478 -229 536 -283 q 421 -79 421 -176 q 423 -45 421 -62 q 428 -16 425 -28 q 166 97 260 -4 q 72 374 72 198 q 173 669 72 560 q 440 779 275 779 q 676 689 593 779 q 760 435 760 600 l 760 366 m 635 463 q 585 618 635 564 q 433 673 535 673 q 270 613 331 673 q 201 463 210 553 l 635 463 z "},"Ě":{"ha":878,"x_min":136,"x_max":801,"o":"m 801 0 l 136 0 l 136 1010 l 801 1010 l 801 890 l 270 890 l 270 614 l 801 614 l 801 494 l 270 494 l 270 119 l 801 119 l 801 0 m 694 1390 l 539 1133 l 385 1133 l 231 1390 l 338 1390 l 464 1216 l 589 1390 l 694 1390 z "},"ě":{"ha":827,"x_min":72,"x_max":760,"o":"m 760 366 l 201 366 q 222 244 201 296 q 280 159 243 192 q 364 110 315 126 q 471 94 412 94 q 626 124 548 94 q 738 185 705 155 l 745 185 l 745 46 q 613 1 680 19 q 472 -18 546 -18 q 178 84 283 -18 q 72 374 72 186 q 173 669 72 560 q 440 779 275 779 q 676 689 593 779 q 760 435 760 600 l 760 366 m 635 463 q 585 618 635 564 q 433 673 535 673 q 270 613 331 673 q 201 463 210 553 l 635 463 m 669 1137 l 514 880 l 360 880 l 205 1137 l 313 1137 l 439 963 l 564 1137 l 669 1137 z "},"Ĺ":{"ha":773,"x_min":136,"x_max":774,"o":"m 774 0 l 136 0 l 136 1010 l 270 1010 l 270 119 l 774 119 l 774 0 m 436 1390 l 251 1136 l 150 1136 l 271 1390 l 436 1390 z "},"ĺ":{"ha":381,"x_min":116,"x_max":402,"o":"m 254 0 l 127 0 l 127 1055 l 254 1055 l 254 0 m 402 1390 l 217 1136 l 116 1136 l 237 1390 l 402 1390 z "},"Ľ":{"ha":773,"x_min":136,"x_max":774,"o":"m 774 0 l 136 0 l 136 1010 l 270 1010 l 270 119 l 774 119 l 774 0 m 642 1055 l 473 713 l 387 713 l 490 1055 l 642 1055 z "},"ľ":{"ha":411,"x_min":127,"x_max":578,"o":"m 578 1055 l 408 713 l 322 713 l 425 1055 l 578 1055 m 254 0 l 127 0 l 127 1055 l 254 1055 l 254 0 z "},"Ŀ":{"ha":773,"x_min":136,"x_max":774,"o":"m 774 0 l 136 0 l 136 1010 l 270 1010 l 270 119 l 774 119 l 774 0 m 669 352 l 511 352 l 511 533 l 669 533 l 669 352 z "},"ŀ":{"ha":637,"x_min":127,"x_max":587,"o":"m 254 0 l 127 0 l 127 1055 l 254 1055 l 254 0 m 587 353 l 431 353 l 431 532 l 587 532 l 587 353 z "},"Ń":{"ha":1039,"x_min":136,"x_max":906,"o":"m 906 0 l 740 0 l 261 903 l 261 0 l 136 0 l 136 1010 l 344 1010 l 781 185 l 781 1010 l 906 1010 l 906 0 m 734 1390 l 549 1136 l 448 1136 l 570 1390 l 734 1390 z "},"ń":{"ha":879,"x_min":125,"x_max":759,"o":"m 759 0 l 631 0 l 631 431 q 625 529 631 484 q 603 601 619 575 q 554 643 586 629 q 471 657 522 657 q 362 631 419 657 q 253 566 305 606 l 253 0 l 125 0 l 125 758 l 253 758 l 253 673 q 376 751 313 723 q 507 779 440 779 q 694 705 630 779 q 759 492 759 631 l 759 0 m 653 1137 l 468 883 l 367 883 l 488 1137 l 653 1137 z "},"Ň":{"ha":1039,"x_min":136,"x_max":906,"o":"m 906 0 l 740 0 l 261 903 l 261 0 l 136 0 l 136 1010 l 344 1010 l 781 185 l 781 1010 l 906 1010 l 906 0 m 781 1390 l 626 1133 l 472 1133 l 317 1390 l 425 1390 l 551 1216 l 675 1390 l 781 1390 z "},"ň":{"ha":879,"x_min":125,"x_max":759,"o":"m 759 0 l 631 0 l 631 431 q 625 529 631 484 q 603 601 619 575 q 554 643 586 629 q 471 657 522 657 q 362 631 419 657 q 253 566 305 606 l 253 0 l 125 0 l 125 758 l 253 758 l 253 673 q 376 751 313 723 q 507 779 440 779 q 694 705 630 779 q 759 492 759 631 l 759 0 m 690 1137 l 535 880 l 381 880 l 227 1137 l 334 1137 l 460 963 l 585 1137 l 690 1137 z "},"Ő":{"ha":1093,"x_min":78,"x_max":1016,"o":"m 888 894 q 983 728 950 826 q 1016 505 1016 629 q 982 281 1016 380 q 888 117 949 182 q 741 14 826 48 q 547 -21 656 -21 q 353 14 440 -21 q 205 117 266 50 q 111 281 144 184 q 78 505 78 379 q 111 726 78 628 q 205 894 143 824 q 354 996 265 960 q 547 1031 442 1031 q 742 995 655 1031 q 888 894 828 960 m 876 505 q 788 808 876 701 q 547 915 700 915 q 306 808 393 915 q 218 505 218 701 q 307 200 218 306 q 547 95 397 95 q 787 200 698 95 q 876 505 876 306 m 870 1390 l 695 1136 l 601 1136 l 715 1390 l 870 1390 m 596 1390 l 421 1136 l 327 1136 l 441 1390 l 596 1390 z "},"ő":{"ha":843,"x_min":72,"x_max":771,"o":"m 771 378 q 676 86 771 193 q 422 -21 581 -21 q 166 86 261 -21 q 72 378 72 193 q 166 671 72 564 q 422 779 261 779 q 676 671 581 779 q 771 378 771 564 m 640 378 q 582 597 640 526 q 422 669 524 669 q 261 597 318 669 q 203 378 203 526 q 261 162 203 236 q 422 89 319 89 q 582 162 524 89 q 640 378 640 235 m 748 1137 l 573 883 l 479 883 l 593 1137 l 748 1137 m 474 1137 l 299 883 l 205 883 l 319 1137 l 474 1137 z "},"Ŕ":{"ha":966,"x_min":136,"x_max":971,"o":"m 971 0 l 797 0 l 459 401 l 270 401 l 270 0 l 136 0 l 136 1010 l 418 1010 q 571 998 510 1010 q 681 956 632 986 q 767 868 736 921 q 798 735 798 816 q 743 552 798 626 q 591 441 688 479 l 971 0 m 657 726 q 642 803 657 769 q 591 859 627 836 q 522 887 562 879 q 428 895 482 895 l 270 895 l 270 513 l 406 513 q 517 525 469 513 q 597 566 564 536 q 643 632 628 595 q 657 726 657 669 m 646 1390 l 461 1136 l 360 1136 l 481 1390 l 646 1390 z "},"ŕ":{"ha":593,"x_min":125,"x_max":598,"o":"m 598 618 l 591 618 q 536 628 563 625 q 473 631 509 631 q 359 605 414 631 q 253 538 304 579 l 253 0 l 125 0 l 125 758 l 253 758 l 253 646 q 387 732 329 707 q 505 758 445 758 q 553 756 538 758 q 598 749 568 754 l 598 618 m 517 1137 l 332 883 l 231 883 l 353 1137 l 517 1137 z "},"Ř":{"ha":966,"x_min":136,"x_max":971,"o":"m 971 0 l 797 0 l 459 401 l 270 401 l 270 0 l 136 0 l 136 1010 l 418 1010 q 571 998 510 1010 q 681 956 632 986 q 767 868 736 921 q 798 735 798 816 q 743 552 798 626 q 591 441 688 479 l 971 0 m 657 726 q 642 803 657 769 q 591 859 627 836 q 522 887 562 879 q 428 895 482 895 l 270 895 l 270 513 l 406 513 q 517 525 469 513 q 597 566 564 536 q 643 632 628 595 q 657 726 657 669 m 677 1390 l 523 1133 l 369 1133 l 214 1390 l 322 1390 l 448 1216 l 572 1390 l 677 1390 z "},"ř":{"ha":593,"x_min":99,"x_max":598,"o":"m 598 618 l 591 618 q 536 628 563 625 q 473 631 509 631 q 359 605 414 631 q 253 538 304 579 l 253 0 l 125 0 l 125 758 l 253 758 l 253 646 q 387 732 329 707 q 505 758 445 758 q 553 756 538 758 q 598 749 568 754 l 598 618 m 562 1137 l 408 880 l 254 880 l 99 1137 l 207 1137 l 332 963 l 457 1137 l 562 1137 z "},"Ś":{"ha":949,"x_min":91,"x_max":869,"o":"m 869 288 q 842 172 869 229 q 765 74 814 114 q 638 6 711 31 q 465 -18 566 -18 q 268 2 355 -18 q 91 62 181 22 l 91 231 l 100 231 q 277 132 177 167 q 466 98 378 98 q 660 144 591 98 q 730 269 730 191 q 697 368 730 336 q 597 418 664 400 q 487 440 546 431 q 361 463 427 449 q 162 560 227 491 q 97 739 97 629 q 204 947 97 866 q 476 1028 311 1028 q 671 1008 583 1028 q 829 958 760 987 l 829 799 l 819 799 q 668 880 762 848 q 475 912 574 912 q 302 867 368 912 q 237 752 237 823 q 269 653 237 689 q 384 598 302 617 q 507 575 427 589 q 643 547 587 562 q 812 457 755 517 q 869 288 869 397 m 667 1390 l 481 1136 l 380 1136 l 502 1390 l 667 1390 z "},"ś":{"ha":724,"x_min":75,"x_max":667,"o":"m 667 218 q 581 48 667 115 q 347 -18 495 -18 q 192 2 262 -18 q 75 45 122 22 l 75 189 l 81 189 q 216 116 142 143 q 357 90 290 90 q 489 117 441 90 q 536 202 536 144 q 511 270 536 247 q 412 309 485 293 q 341 323 385 315 q 261 341 297 332 q 120 419 161 368 q 78 545 78 470 q 97 633 78 591 q 156 707 117 674 q 253 757 194 739 q 384 776 311 776 q 521 759 452 776 q 637 719 591 743 l 637 583 l 630 583 q 511 643 581 618 q 374 668 441 668 q 256 641 304 668 q 208 562 208 614 q 237 491 208 515 q 330 452 266 467 q 409 436 365 444 q 481 421 452 428 q 618 351 570 401 q 667 218 667 301 m 580 1137 l 395 883 l 294 883 l 415 1137 l 580 1137 z "},"Ţ":{"ha":856,"x_min":0,"x_max":856,"o":"m 856 890 l 495 890 l 495 25 q 500 -13 497 12 q 503 -60 503 -37 q 441 -229 503 -170 q 280 -287 379 -287 q 216 -282 255 -287 q 146 -269 176 -277 l 146 -161 l 152 -161 q 199 -176 170 -168 q 263 -185 229 -185 q 367 -159 334 -185 q 400 -73 400 -132 q 398 -34 400 -52 q 395 0 397 -16 l 361 0 l 361 890 l 0 890 l 0 1010 l 856 1010 l 856 890 z "},"ţ":{"ha":547,"x_min":42,"x_max":519,"o":"m 519 7 q 501 2 511 5 q 481 -2 492 0 q 484 -29 482 -14 q 485 -60 485 -44 q 423 -229 485 -170 q 262 -287 361 -287 q 197 -282 237 -287 q 127 -269 158 -277 l 127 -161 l 134 -161 q 181 -176 151 -168 q 245 -185 211 -185 q 349 -159 315 -185 q 382 -73 382 -132 q 381 -41 382 -57 q 378 -14 380 -25 l 365 -14 q 189 48 249 -14 q 128 248 128 110 l 128 650 l 42 650 l 42 758 l 128 758 l 128 975 l 256 975 l 256 758 l 519 758 l 519 650 l 256 650 l 256 305 q 258 212 256 245 q 277 149 261 178 q 318 110 292 122 q 398 97 345 97 q 463 106 429 97 q 512 121 497 115 l 519 121 l 519 7 z "},"Ť":{"ha":856,"x_min":0,"x_max":856,"o":"m 856 890 l 495 890 l 495 0 l 361 0 l 361 890 l 0 890 l 0 1010 l 856 1010 l 856 890 m 659 1390 l 504 1133 l 350 1133 l 195 1390 l 303 1390 l 429 1216 l 553 1390 l 659 1390 z "},"ť":{"ha":547,"x_min":42,"x_max":604,"o":"m 519 7 q 440 -9 483 -3 q 365 -15 398 -15 q 189 47 249 -15 q 128 248 128 110 l 128 650 l 42 650 l 42 758 l 128 758 l 128 975 l 256 975 l 256 758 l 519 758 l 519 650 l 256 650 l 256 305 q 258 212 256 245 q 277 149 261 178 q 318 110 292 122 q 398 97 345 97 q 463 106 429 97 q 512 121 497 115 l 519 121 l 519 7 m 604 1219 l 434 883 l 348 883 l 451 1219 l 604 1219 z "},"Ů":{"ha":1017,"x_min":121,"x_max":896,"o":"m 896 406 q 872 214 896 296 q 793 78 848 132 q 671 3 741 26 q 508 -21 601 -21 q 342 4 413 -21 q 224 78 272 29 q 145 212 169 134 q 121 406 121 291 l 121 1010 l 255 1010 l 255 399 q 266 269 255 317 q 304 183 277 222 q 385 117 334 139 q 508 94 436 94 q 631 116 581 94 q 713 183 682 138 q 750 272 739 222 q 762 395 762 321 l 762 1010 l 896 1010 l 896 406 m 746 1160 q 677 996 746 1063 q 509 928 608 928 q 341 995 411 928 q 271 1160 271 1062 q 340 1323 271 1257 q 509 1390 410 1390 q 677 1323 608 1390 q 746 1160 746 1257 m 648 1160 q 608 1258 648 1218 q 509 1299 568 1299 q 409 1259 449 1299 q 370 1160 370 1219 q 410 1061 370 1101 q 509 1021 450 1021 q 608 1061 568 1021 q 648 1160 648 1101 z "},"ů":{"ha":879,"x_min":120,"x_max":753,"o":"m 753 0 l 626 0 l 626 84 q 503 6 562 33 q 372 -21 444 -21 q 186 52 253 -21 q 120 266 120 125 l 120 758 l 248 758 l 248 326 q 253 228 248 269 q 276 157 258 186 q 323 114 294 127 q 408 100 353 100 q 516 126 458 100 q 626 192 575 152 l 626 758 l 753 758 l 753 0 m 679 1105 q 610 941 679 1008 q 441 874 541 874 q 274 941 344 874 q 204 1105 204 1008 q 273 1269 204 1202 q 441 1335 342 1335 q 610 1269 541 1335 q 679 1105 679 1202 m 581 1105 q 541 1204 581 1164 q 441 1244 501 1244 q 342 1204 382 1244 q 302 1105 302 1164 q 342 1006 302 1046 q 441 966 382 966 q 541 1006 501 966 q 581 1105 581 1046 z "},"Ű":{"ha":1017,"x_min":121,"x_max":896,"o":"m 896 406 q 872 214 896 296 q 793 78 848 132 q 671 3 741 26 q 508 -21 601 -21 q 342 4 413 -21 q 224 78 272 29 q 145 212 169 134 q 121 406 121 291 l 121 1010 l 255 1010 l 255 399 q 266 269 255 317 q 304 183 277 222 q 385 117 334 139 q 508 94 436 94 q 631 116 581 94 q 713 183 682 138 q 750 272 739 222 q 762 395 762 321 l 762 1010 l 896 1010 l 896 406 m 857 1390 l 682 1136 l 587 1136 l 702 1390 l 857 1390 m 583 1390 l 408 1136 l 313 1136 l 428 1390 l 583 1390 z "},"ű":{"ha":879,"x_min":120,"x_max":782,"o":"m 753 0 l 626 0 l 626 84 q 503 6 562 33 q 372 -21 444 -21 q 186 52 253 -21 q 120 266 120 125 l 120 758 l 248 758 l 248 326 q 253 228 248 269 q 276 157 258 186 q 323 114 294 127 q 408 100 353 100 q 516 126 458 100 q 626 192 575 152 l 626 758 l 753 758 l 753 0 m 782 1137 l 607 883 l 513 883 l 627 1137 l 782 1137 m 508 1137 l 333 883 l 239 883 l 353 1137 l 508 1137 z "},"Ź":{"ha":951,"x_min":85,"x_max":873,"o":"m 873 0 l 85 0 l 85 125 l 705 890 l 109 890 l 109 1010 l 859 1010 l 859 888 l 233 119 l 873 119 l 873 0 m 658 1390 l 473 1136 l 372 1136 l 493 1390 l 658 1390 z "},"ź":{"ha":730,"x_min":63,"x_max":675,"o":"m 675 0 l 63 0 l 63 94 l 505 651 l 73 651 l 73 758 l 663 758 l 663 667 l 220 108 l 675 108 l 675 0 m 550 1137 l 365 883 l 264 883 l 385 1137 l 550 1137 z "},"Ż":{"ha":951,"x_min":85,"x_max":873,"o":"m 873 0 l 85 0 l 85 125 l 705 890 l 109 890 l 109 1010 l 859 1010 l 859 888 l 233 119 l 873 119 l 873 0 m 552 1137 l 408 1137 l 408 1270 l 552 1270 l 552 1137 z "},"ż":{"ha":730,"x_min":63,"x_max":675,"o":"m 675 0 l 63 0 l 63 94 l 505 651 l 73 651 l 73 758 l 663 758 l 663 667 l 220 108 l 675 108 l 675 0 m 439 884 l 295 884 l 295 1017 l 439 1017 l 439 884 z "},"Γ":{"ha":787,"x_min":136,"x_max":788,"o":"m 788 890 l 270 890 l 270 0 l 136 0 l 136 1010 l 788 1010 l 788 890 z "},"Θ":{"ha":1093,"x_min":78,"x_max":1016,"o":"m 888 894 q 983 728 950 826 q 1016 505 1016 629 q 982 281 1016 380 q 888 117 949 182 q 741 14 826 48 q 547 -21 656 -21 q 353 14 440 -21 q 205 117 266 50 q 111 281 144 184 q 78 505 78 379 q 111 726 78 628 q 205 894 143 824 q 354 996 265 960 q 547 1031 442 1031 q 742 995 655 1031 q 888 894 828 960 m 876 505 q 788 808 876 701 q 547 915 700 915 q 306 808 393 915 q 218 505 218 701 q 307 200 218 306 q 547 95 397 95 q 787 200 698 95 q 876 505 876 306 m 760 484 l 334 484 l 334 605 l 760 605 l 760 484 z "},"Φ":{"ha":1137,"x_min":71,"x_max":1066,"o":"m 1066 512 q 1036 343 1066 417 q 952 220 1006 270 q 812 135 895 167 q 635 102 729 104 l 635 -11 l 502 -11 l 502 102 q 328 134 411 104 q 185 220 244 165 q 101 344 132 271 q 71 512 71 417 q 100 673 71 604 q 181 794 130 743 q 318 881 236 849 q 502 916 401 913 l 502 1021 l 635 1021 l 635 916 q 819 880 736 913 q 956 794 903 847 q 1037 674 1007 745 q 1066 512 1066 604 m 926 517 q 905 641 926 585 q 843 736 883 697 q 755 791 804 774 q 635 810 707 809 l 635 207 q 751 228 699 208 q 838 279 804 247 q 904 378 882 319 q 926 517 926 437 m 502 207 l 502 810 q 382 791 430 810 q 294 736 334 773 q 233 641 255 699 q 211 517 211 583 q 234 380 211 441 q 300 279 256 318 q 386 228 333 248 q 502 207 438 208 z "},"α":{"ha":865,"x_min":73,"x_max":740,"o":"m 740 0 l 612 0 l 612 79 q 498 5 557 32 q 368 -21 438 -21 q 153 83 233 -21 q 73 373 73 188 q 101 545 73 469 q 175 673 128 620 q 282 751 221 724 q 410 779 344 779 q 515 764 469 779 q 612 722 562 749 l 612 758 l 740 758 l 740 0 m 612 186 l 612 618 q 520 651 561 641 q 431 662 479 662 q 264 587 324 662 q 205 376 205 513 q 251 171 205 241 q 399 100 297 100 q 509 124 453 100 q 612 186 564 149 z "},"δ":{"ha":844,"x_min":72,"x_max":772,"o":"m 772 374 q 679 84 772 189 q 423 -21 585 -21 q 166 82 260 -21 q 72 362 72 184 q 101 525 72 458 q 174 635 130 591 q 281 711 220 684 q 405 751 342 739 q 292 839 353 793 q 162 934 231 885 l 162 1055 l 711 1055 l 711 948 l 331 948 l 331 941 q 452 857 377 910 q 591 747 528 804 q 732 570 692 655 q 772 374 772 485 m 641 374 q 604 543 641 465 q 492 678 566 620 q 398 656 447 673 q 304 604 349 640 q 232 511 261 570 q 203 366 203 452 q 261 159 203 230 q 425 89 319 89 q 585 160 528 89 q 641 374 641 232 z "},"ε":{"ha":712,"x_min":74,"x_max":682,"o":"m 682 43 q 540 -3 610 11 q 392 -18 470 -18 q 283 -7 338 -18 q 180 31 227 4 q 103 101 133 58 q 74 208 74 144 q 112 321 74 273 q 233 396 151 370 l 233 401 q 134 462 171 417 q 98 569 98 507 q 130 669 98 629 q 206 732 162 709 q 304 765 250 754 q 413 776 359 776 q 535 765 479 776 q 652 734 591 753 l 652 594 l 643 594 q 532 648 598 629 q 398 667 466 667 q 341 663 368 667 q 286 646 315 659 q 245 613 262 635 q 228 560 228 590 q 247 496 228 519 q 298 463 266 473 q 364 452 329 453 q 435 451 399 451 l 511 451 l 511 338 l 404 338 q 328 335 361 338 q 265 321 294 332 q 221 284 237 309 q 204 219 204 259 q 222 158 204 183 q 267 119 239 133 q 327 99 292 106 q 399 92 361 92 q 547 117 468 92 q 673 183 625 141 l 682 183 l 682 43 z "},"σ":{"ha":876,"x_min":72,"x_max":878,"o":"m 771 378 q 676 83 771 188 q 422 -21 581 -21 q 165 86 259 -21 q 72 378 72 193 q 168 672 72 565 q 424 779 263 779 q 497 771 461 779 q 553 758 533 764 l 878 758 l 878 646 l 683 646 q 748 530 725 596 q 771 378 771 465 m 640 378 q 584 597 640 524 q 424 669 528 669 q 259 593 315 669 q 203 378 203 517 q 260 163 203 237 q 422 89 317 89 q 583 162 526 89 q 640 378 640 235 z "},"τ":{"ha":689,"x_min":7,"x_max":682,"o":"m 682 646 l 408 646 l 408 0 l 281 0 l 281 646 l 7 646 l 7 758 l 682 758 l 682 646 z "},"φ":{"ha":1097,"x_min":71,"x_max":1027,"o":"m 1027 391 q 910 108 1027 215 q 612 -9 794 1 l 612 -279 l 485 -279 l 485 -9 q 322 22 397 -5 q 192 96 247 50 q 102 213 134 146 q 71 370 71 279 q 111 571 71 478 q 241 758 151 664 l 396 758 l 396 746 q 254 589 304 679 q 203 385 203 498 q 280 179 203 257 q 484 97 356 101 l 484 775 q 532 777 507 777 q 584 777 557 777 q 908 676 790 777 q 1027 391 1027 574 m 895 397 q 819 596 895 522 q 612 671 743 671 l 612 97 q 823 182 751 104 q 895 397 895 261 z "},"‗":{"ha":883,"x_min":-3,"x_max":886,"o":"m 886 -137 l -3 -137 l -3 -56 l 886 -56 l 886 -137 m 886 -287 l -3 -287 l -3 -205 l 886 -205 l 886 -287 z "},"‼":{"ha":867,"x_min":197,"x_max":670,"o":"m 349 1010 l 332 278 l 216 278 l 197 1010 l 349 1010 m 342 0 l 204 0 l 204 143 l 342 143 l 342 0 m 670 1010 l 652 278 l 537 278 l 518 1010 l 670 1010 m 663 0 l 525 0 l 525 143 l 663 143 l 663 0 z "},"ⁿ":{"ha":758,"x_min":104,"x_max":655,"o":"m 655 376 l 538 376 l 538 737 q 534 821 538 785 q 515 881 529 857 q 474 917 500 905 q 404 929 448 929 q 312 906 360 929 q 220 850 264 884 l 220 376 l 104 376 l 104 1013 l 220 1013 l 220 942 q 326 1007 271 984 q 438 1031 381 1031 q 599 968 543 1031 q 655 789 655 905 l 655 376 z "},"₧":{"ha":1616,"x_min":136,"x_max":1526,"o":"m 1526 218 q 1449 47 1526 113 q 1244 -18 1373 -18 q 1109 2 1172 -18 q 1004 45 1046 22 l 1004 189 l 1010 189 q 1050 159 1026 176 q 1105 127 1074 142 q 1174 100 1141 110 q 1253 90 1206 90 q 1363 115 1322 90 q 1404 202 1404 141 q 1382 274 1404 251 q 1301 312 1359 297 q 1240 326 1273 319 q 1169 343 1206 332 q 1046 419 1084 369 q 1009 545 1009 470 q 1014 593 1009 570 q 1031 642 1019 616 l 882 642 l 882 0 l 759 0 l 759 642 l 675 642 q 647 554 667 595 q 595 481 627 513 q 473 402 543 429 q 296 376 404 376 l 263 376 l 263 0 l 136 0 l 136 1010 l 301 1010 q 453 995 392 1010 q 563 947 514 979 q 641 865 611 915 q 677 747 671 815 l 759 747 l 759 897 l 882 897 l 882 747 l 1141 747 q 1205 768 1166 760 q 1277 776 1244 776 q 1396 760 1335 776 q 1499 719 1457 743 l 1499 583 l 1493 583 q 1390 643 1450 618 q 1268 668 1330 668 q 1169 642 1208 668 q 1131 562 1131 615 q 1151 490 1131 514 q 1229 450 1171 465 q 1294 433 1260 441 q 1359 417 1328 425 q 1481 349 1436 397 q 1526 218 1526 300 m 548 701 q 530 793 548 753 q 474 857 511 833 q 398 888 442 878 q 294 898 353 898 l 263 898 l 263 488 l 275 488 q 407 503 356 488 q 490 550 458 518 q 535 620 522 583 q 548 701 548 656 z "},"Ĳ":{"ha":1209,"x_min":93,"x_max":1084,"o":"m 492 0 l 93 0 l 93 103 l 225 103 l 225 907 l 93 907 l 93 1010 l 492 1010 l 492 907 l 359 907 l 359 103 l 492 103 l 492 0 m 1084 262 q 1003 58 1084 130 q 785 -14 922 -14 q 699 -8 753 -14 q 608 5 644 -3 l 608 131 l 615 131 q 684 111 643 121 q 767 101 724 101 q 866 115 829 101 q 921 156 903 130 q 944 222 939 183 q 949 313 949 262 l 949 903 l 736 903 l 736 1010 l 1084 1010 l 1084 262 z "},"ĳ":{"ha":852,"x_min":119,"x_max":736,"o":"m 262 884 l 119 884 l 119 1017 l 262 1017 l 262 884 m 254 0 l 127 0 l 127 758 l 254 758 l 254 0 m 736 884 l 592 884 l 592 1017 l 736 1017 l 736 884 m 728 -18 q 660 -219 728 -151 q 478 -287 592 -287 q 407 -281 451 -287 q 332 -268 362 -276 l 332 -146 l 339 -146 q 390 -163 358 -154 q 453 -173 422 -173 q 532 -159 502 -173 q 576 -119 562 -146 q 596 -53 591 -92 q 600 40 600 -15 l 600 650 l 442 650 l 442 758 l 728 758 l 728 -18 z "},"ŉ":{"ha":1015,"x_min":0,"x_max":895,"o":"m 895 0 l 767 0 l 767 431 q 761 529 767 484 q 739 601 755 575 q 690 643 722 629 q 607 657 658 657 q 498 631 555 657 q 389 566 441 606 l 389 0 l 261 0 l 261 758 l 389 758 l 389 673 q 512 751 448 723 q 643 779 576 779 q 830 705 766 779 q 895 492 895 631 l 895 0 m 277 1055 l 94 676 l 0 676 l 112 1055 l 277 1055 z "},"′":{"ha":502,"x_min":144,"x_max":439,"o":"m 439 1010 l 237 590 l 144 590 l 276 1010 l 439 1010 z "},"″":{"ha":774,"x_min":144,"x_max":711,"o":"m 439 1010 l 237 590 l 144 590 l 276 1010 l 439 1010 m 711 1010 l 509 590 l 416 590 l 548 1010 l 711 1010 z "},"℅":{"ha":1495,"x_min":101,"x_max":1394,"o":"m 551 476 q 481 447 531 464 q 378 430 431 430 q 175 508 248 430 q 101 728 101 586 q 176 947 101 865 q 378 1029 251 1029 q 466 1018 422 1029 q 551 984 509 1006 l 551 867 l 542 867 q 462 918 501 901 q 385 935 423 935 q 268 885 311 935 q 224 728 224 834 q 266 575 224 627 q 385 524 308 524 q 475 546 434 524 q 542 592 517 568 l 551 592 l 551 476 m 1065 1010 l 536 0 l 424 0 l 953 1010 l 1065 1010 m 1394 280 q 1329 54 1394 128 q 1144 -20 1265 -20 q 958 55 1021 -20 q 895 279 895 130 q 959 505 895 431 q 1144 579 1023 579 q 1331 505 1267 579 q 1394 280 1394 431 m 1273 280 q 1243 443 1273 397 q 1145 489 1213 489 q 1046 443 1076 489 q 1016 279 1016 397 q 1046 116 1016 162 q 1145 71 1076 71 q 1243 116 1213 71 q 1273 280 1273 162 z "},"ℓ":{"ha":449,"x_min":10,"x_max":438,"o":"m 10 286 l 130 446 l 130 754 q 172 959 130 907 q 289 1011 214 1011 q 396 967 354 1011 q 438 849 438 923 q 397 697 438 787 q 245 451 357 607 l 245 170 q 255 95 245 109 q 283 80 264 80 q 323 91 300 80 q 418 153 347 102 l 418 43 q 342 -2 380 13 q 265 -16 304 -16 q 166 22 203 -16 q 130 147 130 61 l 130 300 l 77 233 l 10 286 m 245 610 q 327 768 311 724 q 343 848 343 811 q 339 885 343 869 q 326 913 334 901 q 310 925 319 921 q 292 930 302 930 q 273 926 281 930 q 260 912 264 922 q 249 861 253 898 q 245 764 245 823 l 245 610 z "},"□":{"ha":839,"x_min":99,"x_max":739,"o":"m 99 640 l 739 640 l 739 0 l 99 0 l 99 640 m 151 589 l 151 52 l 688 52 l 688 589 l 151 589 z "},"▪":{"ha":492,"x_min":89,"x_max":403,"o":"m 403 616 l 403 302 l 89 302 l 89 616 l 403 616 z "},"▫":{"ha":492,"x_min":89,"x_max":403,"o":"m 403 616 l 403 302 l 89 302 l 89 616 l 403 616 m 351 564 l 140 564 l 140 353 l 351 353 l 351 564 z "},"●":{"ha":839,"x_min":120,"x_max":718,"o":"m 120 391 q 208 602 120 515 q 419 690 295 690 q 630 602 543 690 q 718 391 718 515 q 630 180 718 267 q 419 92 543 92 q 208 180 295 92 q 120 391 120 267 z "},"◦":{"ha":492,"x_min":76,"x_max":416,"o":"m 246 629 q 367 579 317 629 q 416 459 416 530 q 367 339 416 389 q 246 289 317 289 q 126 339 176 289 q 76 459 76 389 q 125 579 76 530 q 246 629 175 629 m 246 578 q 162 543 197 578 q 127 459 127 508 q 162 375 127 410 q 246 340 197 340 q 330 375 295 340 q 365 459 365 410 q 330 543 365 508 q 246 578 296 578 z "},"Ā":{"ha":949,"x_min":18,"x_max":932,"o":"m 932 0 l 789 0 l 690 281 l 253 281 l 154 0 l 18 0 l 385 1010 l 564 1010 l 932 0 m 648 397 l 471 892 l 294 397 l 648 397 m 726 1152 l 223 1152 l 223 1256 l 726 1256 l 726 1152 z "},"ā":{"ha":834,"x_min":71,"x_max":714,"o":"m 714 0 l 587 0 l 587 81 q 542 48 570 69 q 486 16 513 28 q 412 -11 454 0 q 315 -21 371 -21 q 142 47 213 -21 q 71 220 71 115 q 107 359 71 306 q 213 443 144 412 q 379 484 282 473 q 587 500 476 495 l 587 520 q 572 592 587 564 q 528 637 557 621 q 463 658 501 652 q 384 663 425 663 q 272 650 334 663 q 144 612 210 637 l 138 612 l 138 741 q 245 764 175 751 q 385 776 316 776 q 524 763 465 776 q 627 718 583 749 q 692 637 669 686 q 714 514 714 587 l 714 0 m 587 186 l 587 397 q 450 387 529 394 q 325 368 371 380 q 236 319 270 352 q 202 229 202 286 q 241 131 202 163 q 361 98 281 98 q 484 124 429 98 q 587 186 540 150 m 667 905 l 163 905 l 163 1010 l 667 1010 l 667 905 z "},"Ĉ":{"ha":970,"x_min":78,"x_max":916,"o":"m 916 73 q 848 43 878 57 q 769 13 818 28 q 679 -9 728 0 q 572 -18 631 -18 q 373 13 463 -18 q 216 109 283 43 q 115 273 151 174 q 78 504 78 372 q 113 727 78 629 q 215 893 149 825 q 371 994 279 959 q 573 1028 462 1028 q 735 1008 654 1028 q 916 939 817 989 l 916 780 l 905 780 q 740 882 822 850 q 564 913 658 913 q 426 889 488 913 q 317 812 365 864 q 244 683 270 761 q 218 504 218 606 q 247 321 218 397 q 321 196 275 244 q 432 122 368 146 q 566 98 495 98 q 747 131 663 98 q 906 231 832 164 l 916 231 l 916 73 m 788 1133 l 680 1133 l 555 1306 l 430 1133 l 325 1133 l 479 1390 l 633 1390 l 788 1133 z "},"ĉ":{"ha":724,"x_min":71,"x_max":686,"o":"m 686 47 q 565 0 622 17 q 443 -17 507 -17 q 292 7 361 -17 q 175 80 224 31 q 98 203 125 129 q 71 378 71 278 q 173 669 71 564 q 443 775 275 775 q 571 757 508 775 q 686 712 633 739 l 686 570 l 679 570 q 558 640 621 616 q 437 665 496 665 q 266 592 329 665 q 203 378 203 519 q 265 167 203 241 q 437 94 326 94 q 516 104 476 94 q 588 130 556 114 q 640 160 616 144 q 679 188 665 176 l 686 188 l 686 47 m 665 880 l 557 880 l 432 1053 l 307 880 l 202 880 l 357 1137 l 511 1137 l 665 880 z "},"Ċ":{"ha":970,"x_min":78,"x_max":916,"o":"m 916 73 q 848 43 878 57 q 769 13 818 28 q 679 -9 728 0 q 572 -18 631 -18 q 373 13 463 -18 q 216 109 283 43 q 115 273 151 174 q 78 504 78 372 q 113 727 78 629 q 215 893 149 825 q 371 994 279 959 q 573 1028 462 1028 q 735 1008 654 1028 q 916 939 817 989 l 916 780 l 905 780 q 740 882 822 850 q 564 913 658 913 q 426 889 488 913 q 317 812 365 864 q 244 683 270 761 q 218 504 218 606 q 247 321 218 397 q 321 196 275 244 q 432 122 368 146 q 566 98 495 98 q 747 131 663 98 q 906 231 832 164 l 916 231 l 916 73 m 627 1137 l 484 1137 l 484 1270 l 627 1270 l 627 1137 z "},"ċ":{"ha":724,"x_min":71,"x_max":686,"o":"m 686 47 q 565 0 622 17 q 443 -17 507 -17 q 292 7 361 -17 q 175 80 224 31 q 98 203 125 129 q 71 378 71 278 q 173 669 71 564 q 443 775 275 775 q 571 757 508 775 q 686 712 633 739 l 686 570 l 679 570 q 558 640 621 616 q 437 665 496 665 q 266 592 329 665 q 203 378 203 519 q 265 167 203 241 q 437 94 326 94 q 516 104 476 94 q 588 130 556 114 q 640 160 616 144 q 679 188 665 176 l 686 188 l 686 47 m 506 884 l 362 884 l 362 1017 l 506 1017 l 506 884 z "},"Ē":{"ha":878,"x_min":136,"x_max":801,"o":"m 801 0 l 136 0 l 136 1010 l 801 1010 l 801 890 l 270 890 l 270 614 l 801 614 l 801 494 l 270 494 l 270 119 l 801 119 l 801 0 m 728 1152 l 224 1152 l 224 1256 l 728 1256 l 728 1152 z "},"ē":{"ha":827,"x_min":72,"x_max":760,"o":"m 760 366 l 201 366 q 222 244 201 296 q 280 159 243 192 q 364 110 315 126 q 471 94 412 94 q 626 124 548 94 q 738 185 705 155 l 745 185 l 745 46 q 613 1 680 19 q 472 -18 546 -18 q 178 84 283 -18 q 72 374 72 186 q 173 669 72 560 q 440 779 275 779 q 676 689 593 779 q 760 435 760 600 l 760 366 m 635 463 q 585 618 635 564 q 433 673 535 673 q 270 613 331 673 q 201 463 210 553 l 635 463 m 687 905 l 184 905 l 184 1010 l 687 1010 l 687 905 z "},"Ĕ":{"ha":878,"x_min":136,"x_max":801,"o":"m 801 0 l 136 0 l 136 1010 l 801 1010 l 801 890 l 270 890 l 270 614 l 801 614 l 801 494 l 270 494 l 270 119 l 801 119 l 801 0 m 739 1390 q 666 1203 732 1276 q 484 1131 599 1131 q 303 1203 370 1131 q 230 1390 236 1276 l 342 1390 q 387 1259 351 1300 q 485 1219 423 1219 q 582 1259 545 1219 q 627 1390 618 1300 l 739 1390 z "},"ĕ":{"ha":827,"x_min":72,"x_max":760,"o":"m 760 366 l 201 366 q 222 244 201 296 q 280 159 243 192 q 364 110 315 126 q 471 94 412 94 q 626 124 548 94 q 738 185 705 155 l 745 185 l 745 46 q 613 1 680 19 q 472 -18 546 -18 q 178 84 283 -18 q 72 374 72 186 q 173 669 72 560 q 440 779 275 779 q 676 689 593 779 q 760 435 760 600 l 760 366 m 635 463 q 585 618 635 564 q 433 673 535 673 q 270 613 331 673 q 201 463 210 553 l 635 463 m 694 1137 q 621 950 688 1023 q 439 878 554 878 q 258 950 325 878 q 185 1137 191 1023 l 298 1137 q 342 1006 306 1047 q 440 966 378 966 q 537 1006 500 966 q 583 1137 573 1047 l 694 1137 z "},"Ė":{"ha":878,"x_min":136,"x_max":801,"o":"m 801 0 l 136 0 l 136 1010 l 801 1010 l 801 890 l 270 890 l 270 614 l 801 614 l 801 494 l 270 494 l 270 119 l 801 119 l 801 0 m 567 1137 l 423 1137 l 423 1270 l 567 1270 l 567 1137 z "},"ė":{"ha":827,"x_min":72,"x_max":760,"o":"m 760 366 l 201 366 q 222 244 201 296 q 280 159 243 192 q 364 110 315 126 q 471 94 412 94 q 626 124 548 94 q 738 185 705 155 l 745 185 l 745 46 q 613 1 680 19 q 472 -18 546 -18 q 178 84 283 -18 q 72 374 72 186 q 173 669 72 560 q 440 779 275 779 q 676 689 593 779 q 760 435 760 600 l 760 366 m 635 463 q 585 618 635 564 q 433 673 535 673 q 270 613 331 673 q 201 463 210 553 l 635 463 m 513 884 l 370 884 l 370 1017 l 513 1017 l 513 884 z "},"Ĝ":{"ha":1077,"x_min":78,"x_max":978,"o":"m 978 75 q 797 8 895 37 q 608 -20 699 -20 q 391 13 490 -20 q 224 111 293 45 q 116 275 154 176 q 78 506 78 374 q 219 888 78 748 q 608 1028 361 1028 q 784 1007 694 1028 q 977 937 873 987 l 977 778 l 965 778 q 904 821 944 794 q 825 865 864 847 q 719 900 779 886 q 585 913 660 913 q 316 805 415 913 q 218 510 218 696 q 321 205 218 314 q 602 96 424 96 q 731 109 667 96 q 845 142 796 122 l 845 390 l 574 390 l 574 508 l 978 508 l 978 75 m 814 1133 l 707 1133 l 581 1306 l 456 1133 l 351 1133 l 506 1390 l 660 1390 l 814 1133 z "},"ĝ":{"ha":865,"x_min":73,"x_max":740,"o":"m 740 86 q 652 -197 740 -106 q 383 -287 565 -287 q 266 -278 323 -287 q 153 -254 208 -270 l 153 -124 l 159 -124 q 258 -154 191 -136 q 394 -172 326 -172 q 502 -157 459 -172 q 568 -113 545 -141 q 602 -50 592 -87 q 612 34 612 -12 l 612 103 q 502 34 555 57 q 368 12 450 12 q 153 110 233 12 q 73 386 73 208 q 101 554 73 484 q 176 677 128 625 q 283 752 220 725 q 408 779 346 779 q 518 765 474 779 q 612 725 563 752 l 621 758 l 740 758 l 740 86 m 612 208 l 612 621 q 518 654 562 644 q 431 664 474 664 q 265 593 326 664 q 205 389 205 523 q 250 195 205 261 q 398 130 294 130 q 510 151 454 130 q 612 208 566 172 m 670 880 l 562 880 l 437 1053 l 312 880 l 207 880 l 361 1137 l 515 1137 l 670 880 z "},"Ġ":{"ha":1077,"x_min":78,"x_max":978,"o":"m 978 75 q 797 8 895 37 q 608 -20 699 -20 q 391 13 490 -20 q 224 111 293 45 q 116 275 154 176 q 78 506 78 374 q 219 888 78 748 q 608 1028 361 1028 q 784 1007 694 1028 q 977 937 873 987 l 977 778 l 965 778 q 904 821 944 794 q 825 865 864 847 q 719 900 779 886 q 585 913 660 913 q 316 805 415 913 q 218 510 218 696 q 321 205 218 314 q 602 96 424 96 q 731 109 667 96 q 845 142 796 122 l 845 390 l 574 390 l 574 508 l 978 508 l 978 75 m 653 1137 l 509 1137 l 509 1270 l 653 1270 l 653 1137 z "},"ġ":{"ha":865,"x_min":73,"x_max":740,"o":"m 740 86 q 652 -197 740 -106 q 383 -287 565 -287 q 266 -278 323 -287 q 153 -254 208 -270 l 153 -124 l 159 -124 q 258 -154 191 -136 q 394 -172 326 -172 q 502 -157 459 -172 q 568 -113 545 -141 q 602 -50 592 -87 q 612 34 612 -12 l 612 103 q 502 34 555 57 q 368 12 450 12 q 153 110 233 12 q 73 386 73 208 q 101 554 73 484 q 176 677 128 625 q 283 752 220 725 q 408 779 346 779 q 518 765 474 779 q 612 725 563 752 l 621 758 l 740 758 l 740 86 m 612 208 l 612 621 q 518 654 562 644 q 431 664 474 664 q 265 593 326 664 q 205 389 205 523 q 250 195 205 261 q 398 130 294 130 q 510 151 454 130 q 612 208 566 172 m 506 884 l 362 884 l 362 1017 l 506 1017 l 506 884 z "},"Ģ":{"ha":1077,"x_min":78,"x_max":978,"o":"m 609 -73 q 608 -44 609 -58 q 606 -19 607 -29 q 391 13 488 -19 q 224 111 293 45 q 116 275 154 176 q 78 506 78 374 q 219 888 78 748 q 608 1028 361 1028 q 784 1007 694 1028 q 977 937 873 987 l 977 778 l 965 778 q 904 821 944 794 q 825 865 864 847 q 719 900 779 886 q 585 913 660 913 q 316 805 415 913 q 218 510 218 696 q 321 205 218 314 q 602 96 424 96 q 731 109 667 96 q 845 142 796 122 l 845 390 l 574 390 l 574 508 l 978 508 l 978 75 q 845 23 917 47 q 709 -11 773 -1 q 711 -33 710 -20 q 712 -60 712 -45 q 650 -229 712 -170 q 489 -287 588 -287 q 425 -282 464 -287 q 355 -269 385 -277 l 355 -161 l 361 -161 q 408 -176 378 -168 q 472 -185 438 -185 q 576 -159 543 -185 q 609 -73 609 -132 z "},"ģ":{"ha":865,"x_min":73,"x_max":740,"o":"m 740 86 q 652 -197 740 -106 q 383 -287 565 -287 q 266 -278 323 -287 q 153 -254 208 -270 l 153 -124 l 159 -124 q 258 -154 191 -136 q 394 -172 326 -172 q 502 -157 459 -172 q 568 -113 545 -141 q 602 -50 592 -87 q 612 34 612 -12 l 612 103 q 502 34 555 57 q 368 12 450 12 q 153 110 233 12 q 73 386 73 208 q 101 554 73 484 q 176 677 128 625 q 283 752 220 725 q 408 779 346 779 q 518 765 474 779 q 612 725 563 752 l 621 758 l 740 758 l 740 86 m 612 208 l 612 621 q 518 654 562 644 q 431 664 474 664 q 265 593 326 664 q 205 389 205 523 q 250 195 205 261 q 398 130 294 130 q 510 151 454 130 q 612 208 566 172 m 601 1137 l 479 883 l 315 883 l 500 1137 l 601 1137 z "},"Ĥ":{"ha":1044,"x_min":136,"x_max":908,"o":"m 908 0 l 774 0 l 774 494 l 270 494 l 270 0 l 136 0 l 136 1010 l 270 1010 l 270 614 l 774 614 l 774 1010 l 908 1010 l 908 0 m 753 1133 l 646 1133 l 520 1306 l 395 1133 l 290 1133 l 445 1390 l 599 1390 l 753 1133 z "},"ĥ":{"ha":879,"x_min":125,"x_max":759,"o":"m 759 0 l 631 0 l 631 431 q 625 529 631 484 q 603 601 619 575 q 554 643 586 629 q 471 657 522 657 q 362 631 419 657 q 253 566 305 606 l 253 0 l 125 0 l 125 1055 l 253 1055 l 253 673 q 376 751 313 723 q 507 779 440 779 q 694 705 630 779 q 759 492 759 631 l 759 0 m 696 1133 l 589 1133 l 463 1306 l 338 1133 l 233 1133 l 388 1390 l 542 1390 l 696 1133 z "},"Ħ":{"ha":1044,"x_min":22,"x_max":1022,"o":"m 1022 752 l 908 752 l 908 0 l 774 0 l 774 494 l 270 494 l 270 0 l 136 0 l 136 752 l 22 752 l 22 847 l 136 847 l 136 1010 l 270 1010 l 270 847 l 774 847 l 774 1010 l 908 1010 l 908 847 l 1022 847 l 1022 752 m 774 614 l 774 752 l 270 752 l 270 614 l 774 614 z "},"ħ":{"ha":879,"x_min":13,"x_max":759,"o":"m 759 0 l 631 0 l 631 431 q 625 529 631 484 q 603 601 619 575 q 554 643 586 629 q 471 657 522 657 q 362 631 419 657 q 253 566 305 606 l 253 0 l 125 0 l 125 860 l 13 860 l 13 951 l 125 951 l 125 1055 l 253 1055 l 253 951 l 471 951 l 471 860 l 253 860 l 253 673 q 376 751 313 723 q 507 779 440 779 q 694 705 630 779 q 759 492 759 631 l 759 0 z "},"Ĩ":{"ha":585,"x_min":30,"x_max":555,"o":"m 492 0 l 93 0 l 93 103 l 225 103 l 225 907 l 93 907 l 93 1010 l 492 1010 l 492 907 l 359 907 l 359 103 l 492 103 l 492 0 m 555 1351 q 508 1197 551 1248 q 397 1145 466 1145 q 333 1158 361 1145 q 279 1196 305 1170 q 229 1239 249 1225 q 186 1253 208 1253 q 139 1222 154 1253 q 122 1141 123 1192 l 30 1141 q 75 1289 32 1233 q 188 1345 117 1345 q 250 1333 222 1345 q 304 1296 277 1321 q 356 1255 333 1269 q 398 1241 378 1241 q 446 1272 429 1241 q 463 1351 463 1303 l 555 1351 z "},"ĩ":{"ha":381,"x_min":-9,"x_max":391,"o":"m 254 0 l 127 0 l 127 758 l 254 758 l 254 0 m 391 1082 q 356 951 391 995 q 267 907 321 907 q 220 916 240 907 q 180 946 201 924 q 143 981 159 970 q 113 993 128 993 q 78 969 89 993 q 66 902 66 946 l -9 902 q 26 1034 -9 989 q 114 1078 61 1078 q 163 1068 146 1078 q 201 1038 180 1059 q 239 1003 224 1015 q 269 991 254 991 q 304 1016 293 991 q 315 1082 315 1040 l 391 1082 z "},"Ī":{"ha":585,"x_min":64,"x_max":520,"o":"m 492 0 l 93 0 l 93 103 l 225 103 l 225 907 l 93 907 l 93 1010 l 492 1010 l 492 907 l 359 907 l 359 103 l 492 103 l 492 0 m 520 1152 l 64 1152 l 64 1256 l 520 1256 l 520 1152 z "},"ī":{"ha":381,"x_min":-3,"x_max":384,"o":"m 384 905 l -3 905 l -3 1010 l 384 1010 l 384 905 m 254 0 l 127 0 l 127 758 l 254 758 l 254 0 z "},"Ĭ":{"ha":585,"x_min":87,"x_max":498,"o":"m 492 0 l 93 0 l 93 103 l 225 103 l 225 907 l 93 907 l 93 1010 l 492 1010 l 492 907 l 359 907 l 359 103 l 492 103 l 492 0 m 498 1358 q 449 1174 498 1244 q 293 1104 399 1104 q 138 1174 189 1104 q 87 1358 87 1244 l 194 1358 q 217 1229 194 1267 q 293 1190 241 1190 q 367 1227 342 1190 q 391 1358 391 1265 l 498 1358 z "},"ĭ":{"ha":381,"x_min":1,"x_max":380,"o":"m 380 1112 q 333 943 380 1008 q 191 878 286 878 q 49 942 97 878 q 1 1112 1 1006 l 100 1112 q 122 993 100 1029 q 191 957 144 957 q 258 990 235 957 q 281 1112 281 1023 l 380 1112 m 254 0 l 127 0 l 127 758 l 254 758 l 254 0 z "},"Į":{"ha":585,"x_min":93,"x_max":540,"o":"m 252 0 l 93 0 l 93 103 l 225 103 l 225 907 l 93 907 l 93 1010 l 492 1010 l 492 907 l 359 907 l 359 103 l 492 103 l 492 0 l 360 0 q 353 -33 356 -19 q 350 -73 350 -47 q 372 -155 350 -127 q 454 -182 395 -182 q 499 -175 477 -182 q 534 -161 521 -169 l 540 -161 l 540 -269 q 488 -279 515 -275 q 437 -283 460 -283 q 294 -229 346 -283 q 241 -79 241 -174 q 244 -38 241 -56 q 252 0 248 -20 z "},"į":{"ha":381,"x_min":96,"x_max":395,"o":"m 262 884 l 119 884 l 119 1017 l 262 1017 l 262 884 m 395 -269 q 343 -279 370 -275 q 292 -283 315 -283 q 149 -229 202 -283 q 96 -79 96 -176 q 109 1 96 -37 q 127 56 121 39 l 127 758 l 254 758 l 254 0 l 214 0 q 207 -36 210 -18 q 205 -73 205 -54 q 227 -155 205 -127 q 309 -182 250 -182 q 354 -175 332 -182 q 389 -161 376 -169 l 395 -161 l 395 -269 z "},"Ĵ":{"ha":631,"x_min":30,"x_max":573,"o":"m 506 262 q 425 58 506 130 q 208 -14 344 -14 q 121 -8 175 -14 q 30 5 66 -3 l 30 131 l 37 131 q 106 111 65 121 q 189 101 146 101 q 289 115 252 101 q 343 156 326 130 q 367 222 361 183 q 372 313 372 262 l 372 903 l 158 903 l 158 1010 l 506 1010 l 506 262 m 573 1133 l 465 1133 l 340 1306 l 215 1133 l 110 1133 l 264 1390 l 418 1390 l 573 1133 z "},"ĵ":{"ha":478,"x_min":-42,"x_max":466,"o":"m 353 -18 q 286 -219 353 -151 q 104 -287 218 -287 q 32 -281 77 -287 q -42 -268 -12 -276 l -42 -146 l -35 -146 q 16 -163 -16 -154 q 79 -173 48 -173 q 157 -159 127 -173 q 202 -119 187 -146 q 221 -53 217 -92 q 226 40 226 -15 l 226 650 l 68 650 l 68 758 l 353 758 l 353 -18 m 466 880 l 358 880 l 233 1053 l 108 880 l 3 880 l 157 1137 l 311 1137 l 466 880 z "},"Ķ":{"ha":962,"x_min":139,"x_max":947,"o":"m 947 0 l 773 0 l 374 450 l 273 342 l 273 0 l 139 0 l 139 1010 l 273 1010 l 273 483 l 764 1010 l 926 1010 l 475 535 l 947 0 m 593 -60 q 531 -229 593 -170 q 370 -287 469 -287 q 306 -282 345 -287 q 236 -269 267 -277 l 236 -161 l 242 -161 q 290 -176 260 -168 q 353 -185 319 -185 q 457 -159 424 -185 q 490 -73 490 -132 q 488 -28 490 -53 q 484 14 486 -3 l 588 14 q 591 -17 589 1 q 593 -60 593 -35 z "},"ķ":{"ha":822,"x_min":131,"x_max":813,"o":"m 813 0 l 645 0 l 341 332 l 258 253 l 258 0 l 131 0 l 131 1055 l 258 1055 l 258 378 l 627 758 l 787 758 l 435 408 l 813 0 m 507 -60 q 445 -229 507 -170 q 284 -287 383 -287 q 220 -282 259 -287 q 150 -269 180 -277 l 150 -161 l 156 -161 q 203 -176 174 -168 q 267 -185 233 -185 q 371 -159 338 -185 q 404 -73 404 -132 q 402 -28 404 -53 q 398 14 400 -3 l 502 14 q 505 -17 503 1 q 507 -60 507 -35 z "},"ĸ":{"ha":822,"x_min":131,"x_max":813,"o":"m 813 0 l 645 0 l 341 332 l 258 253 l 258 0 l 131 0 l 131 758 l 258 758 l 258 378 l 627 758 l 787 758 l 435 408 l 813 0 z "},"Ļ":{"ha":773,"x_min":136,"x_max":774,"o":"m 477 0 l 136 0 l 136 1010 l 270 1010 l 270 119 l 774 119 l 774 0 l 581 0 q 584 -28 583 -12 q 585 -60 585 -44 q 523 -229 585 -170 q 362 -287 461 -287 q 298 -282 337 -287 q 228 -269 258 -277 l 228 -161 l 234 -161 q 281 -176 252 -168 q 345 -185 311 -185 q 449 -159 416 -185 q 482 -73 482 -132 q 480 -31 482 -52 q 477 0 478 -10 z "},"ļ":{"ha":381,"x_min":3,"x_max":332,"o":"m 223 0 l 127 0 l 127 1055 l 254 1055 l 254 14 l 328 14 q 330 -17 328 1 q 332 -60 332 -36 q 273 -229 332 -170 q 123 -287 214 -287 q 64 -283 98 -287 q 3 -271 31 -279 l 3 -162 l 9 -162 q 52 -177 26 -170 q 106 -185 79 -185 q 197 -158 170 -185 q 225 -73 225 -132 q 225 -41 225 -58 q 223 0 224 -24 z "},"Ņ":{"ha":1039,"x_min":136,"x_max":906,"o":"m 906 0 l 740 0 l 261 903 l 261 0 l 136 0 l 136 1010 l 344 1010 l 781 185 l 781 1010 l 906 1010 l 906 0 m 595 -60 q 533 -229 595 -170 q 372 -287 471 -287 q 308 -282 347 -287 q 238 -269 269 -277 l 238 -161 l 244 -161 q 292 -176 262 -168 q 355 -185 321 -185 q 459 -159 426 -185 q 492 -73 492 -132 q 490 -28 492 -53 q 486 14 488 -3 l 590 14 q 593 -17 591 1 q 595 -60 595 -35 z "},"ņ":{"ha":879,"x_min":125,"x_max":759,"o":"m 759 0 l 631 0 l 631 431 q 625 529 631 484 q 603 601 619 575 q 554 643 586 629 q 471 657 522 657 q 362 631 419 657 q 253 566 305 606 l 253 0 l 125 0 l 125 758 l 253 758 l 253 673 q 376 751 313 723 q 507 779 440 779 q 694 705 630 779 q 759 492 759 631 l 759 0 m 517 -60 q 455 -229 517 -170 q 294 -287 393 -287 q 230 -282 269 -287 q 160 -269 191 -277 l 160 -161 l 166 -161 q 214 -176 184 -168 q 277 -185 243 -185 q 381 -159 348 -185 q 414 -73 414 -132 q 412 -28 414 -53 q 408 14 410 -3 l 512 14 q 515 -17 513 1 q 517 -60 517 -35 z "},"Ŋ":{"ha":1039,"x_min":136,"x_max":906,"o":"m 744 -137 q 762 -119 744 -137 q 781 -7 781 -100 l 261 903 l 261 0 l 136 0 l 136 1010 l 344 1010 l 781 250 l 781 1010 l 906 1010 l 906 -16 q 836 -216 906 -145 q 644 -287 766 -287 q 590 -284 618 -287 q 538 -277 563 -281 l 538 -163 l 545 -163 q 580 -170 560 -167 q 620 -174 600 -174 q 744 -137 706 -174 z "},"ŋ":{"ha":879,"x_min":125,"x_max":759,"o":"m 627 -61 q 629 -43 627 -61 q 631 33 631 -25 l 631 431 q 625 529 631 484 q 603 601 619 575 q 554 643 586 629 q 471 657 522 657 q 362 631 419 657 q 253 566 305 606 l 253 0 l 125 0 l 125 758 l 253 758 l 253 673 q 376 751 313 723 q 507 779 440 779 q 694 705 630 779 q 759 492 759 631 l 759 -19 q 690 -218 759 -149 q 498 -287 621 -287 q 446 -284 472 -287 q 393 -278 419 -282 l 393 -164 l 401 -164 q 436 -171 416 -168 q 474 -174 456 -174 q 558 -161 526 -174 q 607 -123 591 -149 q 627 -61 622 -97 z "},"Ō":{"ha":1093,"x_min":78,"x_max":1016,"o":"m 888 894 q 983 728 950 826 q 1016 505 1016 629 q 982 281 1016 380 q 888 117 949 182 q 741 14 826 48 q 547 -21 656 -21 q 353 14 440 -21 q 205 117 266 50 q 111 281 144 184 q 78 505 78 379 q 111 726 78 628 q 205 894 143 824 q 354 996 265 960 q 547 1031 442 1031 q 742 995 655 1031 q 888 894 828 960 m 876 505 q 788 808 876 701 q 547 915 700 915 q 306 808 393 915 q 218 505 218 701 q 307 200 218 306 q 547 95 397 95 q 787 200 698 95 q 876 505 876 306 m 798 1158 l 295 1158 l 295 1263 l 798 1263 l 798 1158 z "},"ō":{"ha":843,"x_min":72,"x_max":771,"o":"m 771 378 q 676 86 771 193 q 422 -21 581 -21 q 166 86 261 -21 q 72 378 72 193 q 166 671 72 564 q 422 779 261 779 q 676 671 581 779 q 771 378 771 564 m 640 378 q 582 597 640 526 q 422 669 524 669 q 261 597 318 669 q 203 378 203 526 q 261 162 203 236 q 422 89 319 89 q 582 162 524 89 q 640 378 640 235 m 673 905 l 170 905 l 170 1010 l 673 1010 l 673 905 z "},"Ŏ":{"ha":1093,"x_min":78,"x_max":1016,"o":"m 888 894 q 983 728 950 826 q 1016 505 1016 629 q 982 281 1016 380 q 888 117 949 182 q 741 14 826 48 q 547 -21 656 -21 q 353 14 440 -21 q 205 117 266 50 q 111 281 144 184 q 78 505 78 379 q 111 726 78 628 q 205 894 143 824 q 354 996 265 960 q 547 1031 442 1031 q 742 995 655 1031 q 888 894 828 960 m 876 505 q 788 808 876 701 q 547 915 700 915 q 306 808 393 915 q 218 505 218 701 q 307 200 218 306 q 547 95 397 95 q 787 200 698 95 q 876 505 876 306 m 802 1390 q 728 1203 795 1276 q 547 1131 661 1131 q 365 1203 432 1131 q 292 1390 298 1276 l 405 1390 q 449 1259 413 1300 q 547 1219 486 1219 q 644 1259 608 1219 q 690 1390 680 1300 l 802 1390 z "},"ŏ":{"ha":843,"x_min":72,"x_max":771,"o":"m 771 378 q 676 86 771 193 q 422 -21 581 -21 q 166 86 261 -21 q 72 378 72 193 q 166 671 72 564 q 422 779 261 779 q 676 671 581 779 q 771 378 771 564 m 640 378 q 582 597 640 526 q 422 669 524 669 q 261 597 318 669 q 203 378 203 526 q 261 162 203 236 q 422 89 319 89 q 582 162 524 89 q 640 378 640 235 m 677 1137 q 603 950 670 1023 q 422 878 536 878 q 240 950 307 878 q 168 1137 174 1023 l 280 1137 q 325 1006 288 1047 q 422 966 361 966 q 519 1006 483 966 q 565 1137 555 1047 l 677 1137 z "},"Ŗ":{"ha":966,"x_min":136,"x_max":971,"o":"m 971 0 l 797 0 l 459 401 l 270 401 l 270 0 l 136 0 l 136 1010 l 418 1010 q 571 998 510 1010 q 681 956 632 986 q 767 868 736 921 q 798 735 798 816 q 743 552 798 626 q 591 441 688 479 l 971 0 m 657 726 q 642 803 657 769 q 591 859 627 836 q 522 887 562 879 q 428 895 482 895 l 270 895 l 270 513 l 406 513 q 517 525 469 513 q 597 566 564 536 q 643 632 628 595 q 657 726 657 669 m 590 -60 q 528 -229 590 -170 q 367 -287 466 -287 q 302 -282 342 -287 q 233 -269 263 -277 l 233 -161 l 239 -161 q 286 -176 256 -168 q 350 -185 316 -185 q 454 -159 420 -185 q 487 -73 487 -132 q 485 -28 487 -53 q 481 14 483 -3 l 585 14 q 588 -17 586 1 q 590 -60 590 -35 z "},"ŗ":{"ha":593,"x_min":18,"x_max":598,"o":"m 24 -162 q 67 -177 41 -170 q 121 -185 94 -185 q 212 -158 184 -185 q 240 -73 240 -132 q 240 -41 240 -58 q 238 0 239 -24 l 125 0 l 125 758 l 253 758 l 253 646 q 387 732 329 707 q 505 758 445 758 q 553 756 538 758 q 598 749 568 754 l 598 618 l 591 618 q 536 628 563 625 q 473 631 509 631 q 359 605 414 631 q 253 538 304 579 l 253 14 l 342 14 q 345 -17 343 1 q 347 -60 347 -36 q 288 -229 347 -170 q 138 -287 229 -287 q 79 -283 113 -287 q 18 -271 45 -279 l 18 -162 l 24 -162 z "},"Ŝ":{"ha":949,"x_min":91,"x_max":869,"o":"m 869 288 q 842 172 869 229 q 765 74 814 114 q 638 6 711 31 q 465 -18 566 -18 q 268 2 355 -18 q 91 62 181 22 l 91 231 l 100 231 q 277 132 177 167 q 466 98 378 98 q 660 144 591 98 q 730 269 730 191 q 697 368 730 336 q 597 418 664 400 q 487 440 546 431 q 361 463 427 449 q 162 560 227 491 q 97 739 97 629 q 204 947 97 866 q 476 1028 311 1028 q 671 1008 583 1028 q 829 958 760 987 l 829 799 l 819 799 q 668 880 762 848 q 475 912 574 912 q 302 867 368 912 q 237 752 237 823 q 269 653 237 689 q 384 598 302 617 q 507 575 427 589 q 643 547 587 562 q 812 457 755 517 q 869 288 869 397 m 724 1133 l 616 1133 l 490 1306 l 366 1133 l 260 1133 l 415 1390 l 569 1390 l 724 1133 z "},"ŝ":{"ha":724,"x_min":75,"x_max":667,"o":"m 667 218 q 581 48 667 115 q 347 -18 495 -18 q 192 2 262 -18 q 75 45 122 22 l 75 189 l 81 189 q 216 116 142 143 q 357 90 290 90 q 489 117 441 90 q 536 202 536 144 q 511 270 536 247 q 412 309 485 293 q 341 323 385 315 q 261 341 297 332 q 120 419 161 368 q 78 545 78 470 q 97 633 78 591 q 156 707 117 674 q 253 757 194 739 q 384 776 311 776 q 521 759 452 776 q 637 719 591 743 l 637 583 l 630 583 q 511 643 581 618 q 374 668 441 668 q 256 641 304 668 q 208 562 208 614 q 237 491 208 515 q 330 452 266 467 q 409 436 365 444 q 481 421 452 428 q 618 351 570 401 q 667 218 667 301 m 618 880 l 511 880 l 385 1053 l 260 880 l 155 880 l 310 1137 l 464 1137 l 618 880 z "},"Ŧ":{"ha":856,"x_min":0,"x_max":856,"o":"m 361 502 l 136 502 l 136 599 l 361 599 l 361 890 l 0 890 l 0 1010 l 856 1010 l 856 890 l 495 890 l 495 599 l 720 599 l 720 502 l 495 502 l 495 0 l 361 0 l 361 502 z "},"ŧ":{"ha":547,"x_min":42,"x_max":519,"o":"m 519 7 q 440 -9 483 -3 q 365 -15 398 -15 q 189 47 249 -15 q 128 248 128 110 l 128 361 l 42 361 l 42 452 l 128 452 l 128 650 l 42 650 l 42 758 l 128 758 l 128 975 l 256 975 l 256 758 l 519 758 l 519 650 l 256 650 l 256 452 l 460 452 l 460 361 l 256 361 l 256 305 q 258 212 256 245 q 277 149 261 178 q 318 110 292 122 q 398 97 345 97 q 463 106 429 97 q 512 121 497 115 l 519 121 l 519 7 z "},"Ũ":{"ha":1017,"x_min":121,"x_max":896,"o":"m 896 406 q 872 214 896 296 q 793 78 848 132 q 671 3 741 26 q 508 -21 601 -21 q 342 4 413 -21 q 224 78 272 29 q 145 212 169 134 q 121 406 121 291 l 121 1010 l 255 1010 l 255 399 q 266 269 255 317 q 304 183 277 222 q 385 117 334 139 q 508 94 436 94 q 631 116 581 94 q 713 183 682 138 q 750 272 739 222 q 762 395 762 321 l 762 1010 l 896 1010 l 896 406 m 790 1351 q 738 1196 783 1248 q 618 1143 693 1143 q 550 1157 581 1143 q 491 1195 519 1170 q 437 1239 459 1224 q 389 1253 415 1253 q 336 1223 353 1253 q 315 1141 318 1192 l 227 1141 q 280 1295 232 1243 q 398 1348 328 1348 q 464 1334 432 1348 q 524 1297 495 1321 q 580 1255 555 1269 q 627 1241 605 1241 q 681 1272 662 1241 q 703 1351 701 1303 l 790 1351 z "},"ũ":{"ha":879,"x_min":120,"x_max":753,"o":"m 753 0 l 626 0 l 626 84 q 503 6 562 33 q 372 -21 444 -21 q 186 52 253 -21 q 120 266 120 125 l 120 758 l 248 758 l 248 326 q 253 228 248 269 q 276 157 258 186 q 323 114 294 127 q 408 100 353 100 q 516 126 458 100 q 626 192 575 152 l 626 758 l 753 758 l 753 0 m 728 1098 q 676 943 721 995 q 556 890 631 890 q 488 904 519 890 q 429 942 457 917 q 375 986 397 971 q 327 1000 353 1000 q 274 970 292 1000 q 254 888 256 939 l 165 888 q 218 1042 170 990 q 336 1095 267 1095 q 402 1081 370 1095 q 462 1044 433 1068 q 518 1002 494 1016 q 566 988 543 988 q 620 1019 600 988 q 641 1098 639 1050 l 728 1098 z "},"Ū":{"ha":1017,"x_min":121,"x_max":896,"o":"m 896 406 q 872 214 896 296 q 793 78 848 132 q 671 3 741 26 q 508 -21 601 -21 q 342 4 413 -21 q 224 78 272 29 q 145 212 169 134 q 121 406 121 291 l 121 1010 l 255 1010 l 255 399 q 266 269 255 317 q 304 183 277 222 q 385 117 334 139 q 508 94 436 94 q 631 116 581 94 q 713 183 682 138 q 750 272 739 222 q 762 395 762 321 l 762 1010 l 896 1010 l 896 406 m 760 1158 l 257 1158 l 257 1263 l 760 1263 l 760 1158 z "},"ū":{"ha":879,"x_min":120,"x_max":753,"o":"m 753 0 l 626 0 l 626 84 q 503 6 562 33 q 372 -21 444 -21 q 186 52 253 -21 q 120 266 120 125 l 120 758 l 248 758 l 248 326 q 253 228 248 269 q 276 157 258 186 q 323 114 294 127 q 408 100 353 100 q 516 126 458 100 q 626 192 575 152 l 626 758 l 753 758 l 753 0 m 694 905 l 191 905 l 191 1010 l 694 1010 l 694 905 z "},"Ŭ":{"ha":1017,"x_min":121,"x_max":896,"o":"m 896 406 q 872 214 896 296 q 793 78 848 132 q 671 3 741 26 q 508 -21 601 -21 q 342 4 413 -21 q 224 78 272 29 q 145 212 169 134 q 121 406 121 291 l 121 1010 l 255 1010 l 255 399 q 266 269 255 317 q 304 183 277 222 q 385 117 334 139 q 508 94 436 94 q 631 116 581 94 q 713 183 682 138 q 750 272 739 222 q 762 395 762 321 l 762 1010 l 896 1010 l 896 406 m 763 1390 q 689 1203 756 1276 q 508 1131 623 1131 q 327 1203 393 1131 q 254 1390 260 1276 l 366 1390 q 411 1259 374 1300 q 509 1219 447 1219 q 605 1259 569 1219 q 651 1390 642 1300 l 763 1390 z "},"ŭ":{"ha":879,"x_min":120,"x_max":753,"o":"m 753 0 l 626 0 l 626 84 q 503 6 562 33 q 372 -21 444 -21 q 186 52 253 -21 q 120 266 120 125 l 120 758 l 248 758 l 248 326 q 253 228 248 269 q 276 157 258 186 q 323 114 294 127 q 408 100 353 100 q 516 126 458 100 q 626 192 575 152 l 626 758 l 753 758 l 753 0 m 696 1137 q 623 950 690 1023 q 441 878 556 878 q 260 950 327 878 q 187 1137 193 1023 l 300 1137 q 344 1006 308 1047 q 442 966 380 966 q 539 1006 503 966 q 585 1137 575 1047 l 696 1137 z "},"Ų":{"ha":1017,"x_min":121,"x_max":896,"o":"m 534 -79 q 536 -48 534 -61 q 541 -20 538 -35 q 527 -20 535 -20 q 508 -20 518 -20 q 342 4 413 -20 q 224 78 272 29 q 145 212 169 134 q 121 406 121 291 l 121 1010 l 255 1010 l 255 399 q 266 269 255 317 q 304 183 277 222 q 385 117 334 139 q 508 94 436 94 q 631 116 581 94 q 713 183 682 138 q 750 272 739 222 q 762 395 762 321 l 762 1010 l 896 1010 l 896 406 q 872 214 896 296 q 793 78 848 132 q 727 28 762 48 q 650 -3 692 8 q 646 -37 648 -16 q 644 -73 644 -57 q 672 -155 644 -128 q 762 -181 701 -181 q 813 -172 786 -181 q 852 -157 841 -163 l 858 -157 l 858 -265 q 797 -279 823 -275 q 743 -283 772 -283 q 591 -229 648 -283 q 534 -79 534 -175 z "},"ų":{"ha":876,"x_min":120,"x_max":938,"o":"m 618 -37 q 620 -28 618 -37 q 626 0 622 -20 l 626 84 q 503 6 562 33 q 372 -21 444 -21 q 186 52 253 -21 q 120 266 120 125 l 120 758 l 248 758 l 248 326 q 253 228 248 269 q 276 157 258 186 q 323 114 294 127 q 408 100 353 100 q 516 126 458 100 q 626 192 575 152 l 626 758 l 753 758 l 753 0 l 733 0 q 727 -36 729 -18 q 724 -73 724 -54 q 752 -155 724 -128 q 842 -181 781 -181 q 893 -172 866 -181 q 932 -157 921 -163 l 938 -157 l 938 -265 q 877 -279 903 -275 q 823 -283 852 -283 q 671 -229 728 -283 q 614 -79 614 -174 q 618 -37 614 -54 z "},"Ŵ":{"ha":1373,"x_min":62,"x_max":1311,"o":"m 1311 1010 l 1048 0 l 897 0 l 685 838 l 477 0 l 330 0 l 62 1010 l 200 1010 l 412 170 l 621 1010 l 758 1010 l 968 162 l 1179 1010 l 1311 1010 m 918 1133 l 810 1133 l 685 1306 l 560 1133 l 455 1133 l 610 1390 l 764 1390 l 918 1133 z "},"ŵ":{"ha":1137,"x_min":58,"x_max":1078,"o":"m 1078 758 l 881 0 l 763 0 l 568 584 l 375 0 l 258 0 l 58 758 l 191 758 l 330 171 l 519 758 l 625 758 l 819 171 l 950 758 l 1078 758 m 800 880 l 692 880 l 567 1053 l 442 880 l 337 880 l 492 1137 l 646 1137 l 800 880 z "},"Ŷ":{"ha":854,"x_min":4,"x_max":850,"o":"m 850 1010 l 495 443 l 495 0 l 361 0 l 361 429 l 4 1010 l 153 1010 l 429 558 l 707 1010 l 850 1010 m 661 1133 l 553 1133 l 428 1306 l 303 1133 l 198 1133 l 353 1390 l 507 1390 l 661 1133 z "},"ŷ":{"ha":822,"x_min":41,"x_max":781,"o":"m 781 758 l 338 -279 l 202 -279 l 343 37 l 41 758 l 180 758 l 412 196 l 647 758 l 781 758 m 650 880 l 542 880 l 416 1053 l 292 880 l 186 880 l 341 1137 l 495 1137 l 650 880 z "},"ſ":{"ha":417,"x_min":125,"x_max":526,"o":"m 526 932 l 519 932 q 465 944 498 938 q 405 951 431 951 q 288 915 323 951 q 253 783 253 878 l 253 0 l 125 0 l 125 783 q 191 988 125 914 q 387 1062 257 1062 q 464 1058 429 1062 q 526 1048 498 1054 l 526 932 z "},"Ǻ":{"ha":949,"x_min":18,"x_max":932,"o":"m 932 0 l 789 0 l 688 281 l 254 281 l 154 0 l 18 0 l 359 927 q 307 982 326 948 q 288 1060 288 1017 q 342 1183 288 1134 q 475 1232 397 1232 q 607 1183 553 1232 q 661 1060 661 1134 q 642 982 661 1017 q 590 927 623 948 l 932 0 m 562 1060 q 537 1122 562 1097 q 475 1147 513 1147 q 412 1122 436 1147 q 387 1060 387 1097 q 412 996 387 1021 q 475 970 437 970 q 537 996 513 970 q 562 1060 562 1022 m 646 397 l 471 882 l 296 397 l 646 397 m 663 1389 l 498 1250 l 397 1250 l 498 1389 l 663 1389 z "},"ǻ":{"ha":834,"x_min":71,"x_max":714,"o":"m 714 0 l 587 0 l 587 81 q 542 48 570 69 q 486 16 513 28 q 412 -11 454 0 q 315 -21 371 -21 q 142 47 213 -21 q 71 220 71 115 q 107 359 71 306 q 213 443 144 412 q 379 484 282 473 q 587 500 476 495 l 587 520 q 572 593 587 564 q 528 638 556 623 q 464 660 500 654 q 384 666 427 666 q 309 659 345 666 q 245 645 273 652 q 184 626 212 636 q 144 612 157 616 l 138 612 l 138 741 q 197 754 161 747 q 266 766 233 761 q 234 815 247 787 q 222 874 222 843 q 276 997 222 948 q 408 1046 330 1046 q 539 997 486 1046 q 593 874 593 948 q 577 809 593 840 q 538 757 562 778 q 668 676 623 734 q 714 514 714 618 l 714 0 m 587 186 l 587 397 q 450 387 529 394 q 325 368 371 380 q 236 319 270 352 q 202 229 202 286 q 241 131 202 163 q 361 98 281 98 q 484 124 429 98 q 587 186 540 150 m 494 874 q 470 936 494 911 q 408 962 446 962 q 345 937 369 962 q 320 874 320 911 q 345 810 320 836 q 408 784 370 784 q 470 810 446 784 q 494 874 494 836 m 595 1250 l 431 1064 l 330 1064 l 431 1250 l 595 1250 z "},"Ǽ":{"ha":1367,"x_min":9,"x_max":1289,"o":"m 1289 0 l 649 0 l 649 377 l 294 377 l 150 0 l 9 0 l 412 1010 l 1289 1010 l 1289 890 l 781 890 l 781 614 l 1289 614 l 1289 494 l 781 494 l 781 119 l 1289 119 l 1289 0 m 649 490 l 649 898 l 500 898 l 338 490 l 649 490 m 977 1390 l 792 1136 l 691 1136 l 812 1390 l 977 1390 z "},"ǽ":{"ha":1326,"x_min":71,"x_max":1258,"o":"m 1258 379 l 703 379 q 723 247 703 302 q 781 157 743 192 q 864 109 816 124 q 970 94 912 94 q 1118 122 1046 94 q 1235 185 1190 150 l 1243 185 l 1243 46 q 1118 2 1190 22 q 972 -18 1046 -18 q 779 18 859 -18 q 647 123 699 53 q 602 83 633 110 q 536 37 570 56 q 444 -4 494 12 q 315 -20 393 -20 q 142 46 214 -20 q 71 215 71 112 q 107 351 71 299 q 212 431 144 403 q 376 467 277 458 q 585 479 475 477 l 585 520 q 569 593 585 564 q 526 637 553 622 q 460 659 498 653 q 382 665 422 665 q 268 650 328 665 q 146 612 207 636 l 137 612 l 137 741 q 244 764 174 751 q 382 777 314 777 q 562 746 490 777 q 672 652 633 714 q 787 743 719 708 q 941 779 856 779 q 1173 692 1088 779 q 1258 435 1258 605 l 1258 379 m 1135 477 q 1119 557 1131 523 q 1084 617 1106 592 q 1024 659 1061 644 q 934 673 987 673 q 783 623 844 673 q 705 477 722 572 l 1135 477 m 606 202 q 586 283 593 238 q 578 378 578 328 q 442 373 507 376 q 321 356 377 370 q 235 312 268 342 q 202 224 202 281 q 241 129 202 160 q 361 98 281 98 q 493 127 428 98 q 606 202 559 156 m 898 1137 l 713 883 l 612 883 l 733 1137 l 898 1137 z "},"Ǿ":{"ha":1093,"x_min":78,"x_max":1016,"o":"m 1016 505 q 982 281 1016 380 q 888 117 949 182 q 741 14 826 48 q 547 -21 656 -21 q 400 -1 469 -21 q 279 56 332 18 l 171 -99 l 81 -99 l 220 100 q 115 270 152 168 q 78 505 78 372 q 111 726 78 628 q 205 894 143 824 q 354 996 265 960 q 547 1031 442 1031 q 692 1012 627 1031 q 814 956 758 994 l 910 1093 l 1000 1093 l 872 911 q 978 742 941 843 q 1016 505 1016 642 m 744 854 q 656 901 705 886 q 547 916 608 916 q 412 890 473 916 q 306 811 351 864 q 239 682 262 760 q 216 505 216 604 q 236 334 216 410 q 295 206 256 258 l 744 854 m 878 505 q 858 676 878 599 q 798 804 838 753 l 348 155 q 438 109 389 125 q 547 94 487 94 q 684 121 622 94 q 788 199 746 148 q 856 331 833 255 q 878 505 878 408 m 734 1390 l 549 1136 l 448 1136 l 570 1390 l 734 1390 z "},"ǿ":{"ha":843,"x_min":63,"x_max":771,"o":"m 771 378 q 676 86 771 193 q 422 -21 581 -21 q 316 -7 365 -21 q 228 34 268 7 l 138 -100 l 63 -100 l 179 73 q 100 202 128 125 q 72 378 72 279 q 166 671 72 564 q 422 779 261 779 q 529 764 481 779 q 614 725 577 749 l 692 842 l 768 842 l 663 685 q 743 557 714 633 q 771 378 771 481 m 551 631 q 493 660 526 650 q 422 670 459 670 q 259 595 317 670 q 201 378 201 521 q 213 262 201 313 q 248 176 224 212 l 551 631 m 642 378 q 630 496 642 444 q 595 584 618 547 l 291 129 q 350 98 317 108 q 422 87 382 87 q 583 161 524 87 q 642 378 642 235 m 633 1137 l 448 883 l 347 883 l 468 1137 l 633 1137 z "},"·":{"ha":631,"x_min":235,"x_max":397,"o":"m 397 564 l 235 564 l 235 758 l 397 758 l 397 564 z "},"Ẁ":{"ha":1373,"x_min":62,"x_max":1311,"o":"m 1311 1010 l 1048 0 l 897 0 l 685 838 l 477 0 l 330 0 l 62 1010 l 200 1010 l 412 170 l 621 1010 l 758 1010 l 968 162 l 1179 1010 l 1311 1010 m 768 1136 l 667 1136 l 482 1390 l 647 1390 l 768 1136 z "},"ẁ":{"ha":1137,"x_min":58,"x_max":1078,"o":"m 1078 758 l 881 0 l 763 0 l 568 584 l 375 0 l 258 0 l 58 758 l 191 758 l 330 171 l 519 758 l 625 758 l 819 171 l 950 758 l 1078 758 m 649 883 l 548 883 l 363 1137 l 528 1137 l 649 883 z "},"Ẃ":{"ha":1373,"x_min":62,"x_max":1311,"o":"m 1311 1010 l 1048 0 l 897 0 l 685 838 l 477 0 l 330 0 l 62 1010 l 200 1010 l 412 170 l 621 1010 l 758 1010 l 968 162 l 1179 1010 l 1311 1010 m 898 1390 l 713 1136 l 612 1136 l 733 1390 l 898 1390 z "},"ẃ":{"ha":1137,"x_min":58,"x_max":1078,"o":"m 1078 758 l 881 0 l 763 0 l 568 584 l 375 0 l 258 0 l 58 758 l 191 758 l 330 171 l 519 758 l 625 758 l 819 171 l 950 758 l 1078 758 m 783 1137 l 597 883 l 496 883 l 618 1137 l 783 1137 z "},"Ẅ":{"ha":1373,"x_min":62,"x_max":1311,"o":"m 1311 1010 l 1048 0 l 897 0 l 685 838 l 477 0 l 330 0 l 62 1010 l 200 1010 l 412 170 l 621 1010 l 758 1010 l 968 162 l 1179 1010 l 1311 1010 m 897 1137 l 762 1137 l 762 1270 l 897 1270 l 897 1137 m 616 1137 l 481 1137 l 481 1270 l 616 1270 l 616 1137 z "},"ẅ":{"ha":1137,"x_min":58,"x_max":1078,"o":"m 1078 758 l 881 0 l 763 0 l 568 584 l 375 0 l 258 0 l 58 758 l 191 758 l 330 171 l 519 758 l 625 758 l 819 171 l 950 758 l 1078 758 m 779 884 l 644 884 l 644 1017 l 779 1017 l 779 884 m 499 884 l 364 884 l 364 1017 l 499 1017 l 499 884 z "},"Ỳ":{"ha":854,"x_min":4,"x_max":850,"o":"m 850 1010 l 495 443 l 495 0 l 361 0 l 361 429 l 4 1010 l 153 1010 l 429 558 l 707 1010 l 850 1010 m 524 1136 l 422 1136 l 237 1390 l 402 1390 l 524 1136 z "},"ỳ":{"ha":822,"x_min":41,"x_max":781,"o":"m 781 758 l 338 -279 l 202 -279 l 343 37 l 41 758 l 180 758 l 412 196 l 647 758 l 781 758 m 516 883 l 415 883 l 230 1137 l 395 1137 l 516 883 z "},"‛":{"ha":373,"x_min":-13,"x_max":264,"o":"m 264 1055 l 153 675 l -13 675 l 171 1055 l 264 1055 z "},"‾":{"ha":883,"x_min":-33,"x_max":883,"o":"m 883 1132 l -33 1132 l -33 1213 l 883 1213 l 883 1132 z "},"₤":{"ha":883,"x_min":93,"x_max":789,"o":"m 789 0 l 93 0 l 93 140 q 196 202 163 159 q 239 330 229 246 l 132 330 l 132 420 l 243 420 l 243 515 l 132 515 l 132 606 l 243 606 l 243 720 q 329 942 243 855 q 553 1029 414 1029 q 676 1018 625 1029 q 771 995 728 1006 l 771 855 l 764 855 q 671 900 722 884 q 561 916 619 916 q 419 860 466 916 q 372 707 372 804 l 372 606 l 618 606 l 618 515 l 371 515 l 371 420 l 618 420 l 618 330 l 368 330 q 320 207 358 261 q 221 123 282 153 l 221 116 l 789 116 l 789 0 z "},"℮":{"ha":997,"x_min":120,"x_max":880,"o":"m 880 429 l 254 429 q 277 278 254 339 q 340 174 299 216 q 434 114 379 134 q 555 94 490 94 q 717 123 637 94 q 857 201 796 152 l 865 201 l 865 56 q 712 1 777 20 q 561 -18 647 -18 q 235 100 350 -18 q 120 435 120 218 q 229 775 120 648 q 525 902 338 902 q 789 798 698 902 q 880 505 880 694 l 880 429 m 751 533 q 736 639 749 590 q 696 723 724 688 q 623 777 669 758 q 516 797 577 797 q 336 725 408 797 q 255 533 264 653 l 751 533 z "},"⅛":{"ha":1389,"x_min":116,"x_max":1304,"o":"m 370 383 l 258 383 l 258 845 l 116 845 l 116 924 q 228 939 185 924 q 277 1013 271 954 l 370 1013 l 370 383 m 956 1010 l 427 0 l 315 0 l 844 1010 l 956 1010 m 1304 170 q 1235 34 1304 88 q 1061 -21 1166 -21 q 883 33 948 -21 q 819 168 819 87 q 850 262 819 222 q 943 329 882 303 l 943 332 q 863 393 887 359 q 840 475 840 427 q 902 595 840 547 q 1063 643 965 643 q 1225 597 1164 643 q 1286 481 1286 551 q 1259 396 1286 438 q 1177 330 1232 353 l 1177 327 q 1273 264 1242 300 q 1304 170 1304 228 m 1175 469 q 1146 528 1175 504 q 1063 553 1116 553 q 984 531 1015 553 q 952 473 952 510 q 968 427 952 448 q 1015 393 985 406 q 1055 375 1031 386 q 1111 357 1080 365 q 1162 409 1149 382 q 1175 469 1175 436 m 1192 171 q 1173 225 1192 205 q 1109 265 1154 245 q 1064 281 1094 272 q 1006 301 1034 291 q 947 248 966 279 q 928 184 928 216 q 968 101 928 134 q 1063 69 1008 69 q 1155 96 1118 69 q 1192 171 1192 122 z "},"⅜":{"ha":1389,"x_min":95,"x_max":1326,"o":"m 538 560 q 517 474 538 512 q 465 413 497 436 q 387 377 429 388 q 292 366 345 366 q 188 376 236 366 q 95 406 139 387 l 95 524 l 106 524 q 184 480 132 500 q 290 460 236 460 q 384 485 347 460 q 421 559 421 510 q 387 635 421 615 q 292 655 353 655 l 197 655 l 197 749 l 281 749 q 373 775 340 749 q 405 846 405 801 q 377 910 405 886 q 290 935 349 935 q 194 913 245 935 q 117 869 142 892 l 105 869 l 105 987 q 199 1017 149 1006 q 304 1029 250 1029 q 465 981 407 1029 q 522 867 522 934 q 489 770 522 808 q 404 714 456 732 l 404 709 q 498 661 458 698 q 538 560 538 624 m 1017 1010 l 488 0 l 376 0 l 905 1010 l 1017 1010 m 1326 170 q 1258 34 1326 88 q 1084 -21 1189 -21 q 906 33 970 -21 q 841 168 841 87 q 873 262 841 222 q 965 329 905 303 l 965 332 q 886 393 909 359 q 862 475 862 427 q 925 595 862 547 q 1085 643 987 643 q 1247 597 1186 643 q 1309 481 1309 551 q 1282 396 1309 438 q 1199 330 1255 353 l 1199 327 q 1296 264 1265 300 q 1326 170 1326 228 m 1198 469 q 1168 528 1198 504 q 1085 553 1139 553 q 1006 531 1038 553 q 975 473 975 510 q 991 427 975 448 q 1038 393 1007 406 q 1078 375 1053 386 q 1133 357 1102 365 q 1185 409 1172 382 q 1198 469 1198 436 m 1214 171 q 1195 225 1214 205 q 1132 265 1177 245 q 1086 281 1116 272 q 1028 301 1057 291 q 970 248 989 279 q 951 184 951 216 q 991 101 951 134 q 1085 69 1031 69 q 1177 96 1140 69 q 1214 171 1214 122 z "},"⅝":{"ha":1389,"x_min":94,"x_max":1326,"o":"m 538 588 q 521 500 538 541 q 472 430 504 458 q 393 384 439 401 q 288 366 347 366 q 185 376 235 366 q 94 403 134 385 l 94 511 l 104 511 q 179 479 130 497 q 281 460 229 460 q 339 468 311 460 q 386 495 367 476 q 413 537 406 515 q 421 587 421 560 q 411 634 421 615 q 380 667 400 654 q 330 687 360 682 q 264 693 300 693 q 187 688 224 693 q 125 680 151 684 l 125 1016 l 530 1016 l 530 922 l 231 922 l 231 781 q 261 783 245 783 q 288 784 278 784 q 385 776 345 784 q 460 745 425 768 q 517 683 497 721 q 538 588 538 646 m 1017 1010 l 488 0 l 376 0 l 905 1010 l 1017 1010 m 1326 170 q 1258 34 1326 88 q 1084 -21 1189 -21 q 906 33 970 -21 q 841 168 841 87 q 873 262 841 222 q 965 329 905 303 l 965 332 q 886 393 909 359 q 862 475 862 427 q 925 595 862 547 q 1085 643 987 643 q 1247 597 1186 643 q 1309 481 1309 551 q 1282 396 1309 438 q 1199 330 1255 353 l 1199 327 q 1296 264 1265 300 q 1326 170 1326 228 m 1198 469 q 1168 528 1198 504 q 1085 553 1139 553 q 1006 531 1038 553 q 975 473 975 510 q 991 427 975 448 q 1038 393 1007 406 q 1078 375 1053 386 q 1133 357 1102 365 q 1185 409 1172 382 q 1198 469 1198 436 m 1214 171 q 1195 225 1214 205 q 1132 265 1177 245 q 1086 281 1116 272 q 1028 301 1057 291 q 970 248 989 279 q 951 184 951 216 q 991 101 951 134 q 1085 69 1031 69 q 1177 96 1140 69 q 1214 171 1214 122 z "},"⅞":{"ha":1389,"x_min":104,"x_max":1291,"o":"m 572 921 l 253 383 l 127 383 l 464 922 l 104 922 l 104 1016 l 572 1016 l 572 921 m 952 1010 l 423 0 l 311 0 l 840 1010 l 952 1010 m 1291 170 q 1222 34 1291 88 q 1048 -21 1153 -21 q 870 33 935 -21 q 805 168 805 87 q 837 262 805 222 q 929 329 869 303 l 929 332 q 850 393 873 359 q 826 475 826 427 q 889 595 826 547 q 1049 643 951 643 q 1212 597 1150 643 q 1273 481 1273 551 q 1246 396 1273 438 q 1163 330 1219 353 l 1163 327 q 1260 264 1229 300 q 1291 170 1291 228 m 1162 469 q 1132 528 1162 504 q 1049 553 1103 553 q 970 531 1002 553 q 939 473 939 510 q 955 427 939 448 q 1002 393 971 406 q 1042 375 1017 386 q 1097 357 1066 365 q 1149 409 1136 382 q 1162 469 1162 436 m 1178 171 q 1159 225 1178 205 q 1096 265 1141 245 q 1050 281 1080 272 q 992 301 1021 291 q 934 248 953 279 q 915 184 915 216 q 955 101 915 134 q 1049 69 995 69 q 1141 96 1104 69 q 1178 171 1178 122 z "},"΄":{"ha":883,"x_min":359,"x_max":524,"o":"m 524 1137 l 491 876 l 393 876 l 359 1137 l 524 1137 z "},"΅":{"ha":883,"x_min":174,"x_max":711,"o":"m 519 1137 l 486 876 l 399 876 l 366 1137 l 519 1137 m 711 884 l 581 884 l 581 1017 l 711 1017 l 711 884 m 303 884 l 174 884 l 174 1017 l 303 1017 l 303 884 z "},"Ά":{"ha":949,"x_min":5,"x_max":932,"o":"m 932 0 l 789 0 l 690 281 l 253 281 l 154 0 l 18 0 l 385 1010 l 564 1010 l 932 0 m 648 397 l 471 892 l 294 397 l 648 397 m 170 1010 l 136 749 l 38 749 l 5 1010 l 170 1010 z "},"Έ":{"ha":1043,"x_min":0,"x_max":966,"o":"m 966 0 l 300 0 l 300 1010 l 966 1010 l 966 890 l 435 890 l 435 614 l 966 614 l 966 494 l 435 494 l 435 119 l 966 119 l 966 0 m 165 1010 l 132 749 l 33 749 l 0 1010 l 165 1010 z "},"Ή":{"ha":1208,"x_min":0,"x_max":1073,"o":"m 1073 0 l 939 0 l 939 494 l 435 494 l 435 0 l 300 0 l 300 1010 l 435 1010 l 435 614 l 939 614 l 939 1010 l 1073 1010 l 1073 0 m 165 1010 l 132 749 l 33 749 l 0 1010 l 165 1010 z "},"Ί":{"ha":749,"x_min":0,"x_max":656,"o":"m 656 0 l 258 0 l 258 103 l 390 103 l 390 907 l 258 907 l 258 1010 l 656 1010 l 656 907 l 524 907 l 524 103 l 656 103 l 656 0 m 165 1010 l 132 749 l 33 749 l 0 1010 l 165 1010 z "},"Ό":{"ha":1223,"x_min":0,"x_max":1145,"o":"m 1018 894 q 1113 728 1080 826 q 1145 505 1145 629 q 1112 281 1145 380 q 1018 117 1078 182 q 870 14 956 48 q 676 -21 785 -21 q 483 14 570 -21 q 334 117 395 50 q 240 281 273 184 q 208 505 208 379 q 240 726 208 628 q 335 894 273 824 q 483 996 395 960 q 676 1031 572 1031 q 871 995 785 1031 q 1018 894 958 960 m 1006 505 q 918 808 1006 701 q 677 915 829 915 q 435 808 523 915 q 347 505 347 701 q 437 200 347 306 q 677 95 526 95 q 917 200 827 95 q 1006 505 1006 306 m 165 1010 l 132 749 l 33 749 l 0 1010 l 165 1010 z "},"Ύ":{"ha":1046,"x_min":0,"x_max":1042,"o":"m 1042 1010 l 687 443 l 687 0 l 553 0 l 553 429 l 196 1010 l 345 1010 l 621 558 l 899 1010 l 1042 1010 m 165 1010 l 132 749 l 33 749 l 0 1010 l 165 1010 z "},"Ώ":{"ha":1261,"x_min":0,"x_max":1187,"o":"m 1187 0 l 797 0 l 797 262 q 878 318 838 288 q 948 387 918 348 q 996 480 979 427 q 1014 606 1014 534 q 928 830 1014 746 q 692 915 842 915 q 457 830 543 915 q 371 606 371 746 q 389 480 371 534 q 437 387 406 427 q 507 318 467 348 q 588 262 547 288 l 588 0 l 197 0 l 197 118 l 475 118 l 475 202 q 300 369 369 263 q 231 606 231 475 q 358 912 231 793 q 692 1031 486 1031 q 1026 912 899 1031 q 1154 606 1154 793 q 1085 369 1154 475 q 909 202 1016 263 l 909 118 l 1187 118 l 1187 0 m 165 1010 l 132 749 l 33 749 l 0 1010 l 165 1010 z "},"ΐ":{"ha":381,"x_min":-36,"x_max":417,"o":"m 254 0 l 127 0 l 127 758 l 254 758 l 254 0 m 257 1137 l 219 876 l 162 876 l 124 1137 l 257 1137 m 417 884 l 301 884 l 301 1017 l 417 1017 l 417 884 m 80 884 l -36 884 l -36 1017 l 80 1017 l 80 884 z "},"Α":{"ha":949,"x_min":18,"x_max":932,"o":"m 932 0 l 789 0 l 690 281 l 253 281 l 154 0 l 18 0 l 385 1010 l 564 1010 l 932 0 m 648 397 l 471 892 l 294 397 l 648 397 z "},"Β":{"ha":952,"x_min":136,"x_max":897,"o":"m 897 311 q 869 178 897 235 q 792 83 840 120 q 667 19 735 38 q 494 0 599 0 l 136 0 l 136 1010 l 435 1010 q 600 1002 545 1010 q 705 968 655 994 q 786 893 761 939 q 811 783 811 847 q 774 661 811 711 q 677 580 738 610 l 677 574 q 838 485 779 553 q 897 311 897 416 m 671 766 q 659 827 671 802 q 620 868 647 852 q 543 891 588 886 q 430 895 497 895 l 270 895 l 270 604 l 444 604 q 544 610 507 604 q 613 637 581 616 q 658 689 645 657 q 671 766 671 722 m 758 305 q 739 402 758 366 q 673 463 721 438 q 594 485 640 480 q 481 490 547 490 l 270 490 l 270 115 l 448 115 q 592 124 536 115 q 684 157 648 133 q 740 218 722 184 q 758 305 758 252 z "},"Δ":{"ha":977,"x_min":18,"x_max":959,"o":"m 959 0 l 18 0 l 399 1010 l 578 1010 l 959 0 m 778 114 l 485 892 l 193 114 l 778 114 z "},"Ε":{"ha":878,"x_min":136,"x_max":801,"o":"m 801 0 l 136 0 l 136 1010 l 801 1010 l 801 890 l 270 890 l 270 614 l 801 614 l 801 494 l 270 494 l 270 119 l 801 119 l 801 0 z "},"Ζ":{"ha":951,"x_min":85,"x_max":873,"o":"m 873 0 l 85 0 l 85 125 l 705 890 l 109 890 l 109 1010 l 859 1010 l 859 888 l 233 119 l 873 119 l 873 0 z "},"Η":{"ha":1044,"x_min":136,"x_max":908,"o":"m 908 0 l 774 0 l 774 494 l 270 494 l 270 0 l 136 0 l 136 1010 l 270 1010 l 270 614 l 774 614 l 774 1010 l 908 1010 l 908 0 z "},"Ι":{"ha":585,"x_min":93,"x_max":492,"o":"m 492 0 l 93 0 l 93 103 l 225 103 l 225 907 l 93 907 l 93 1010 l 492 1010 l 492 907 l 359 907 l 359 103 l 492 103 l 492 0 z "},"Κ":{"ha":962,"x_min":139,"x_max":947,"o":"m 947 0 l 773 0 l 374 450 l 273 342 l 273 0 l 139 0 l 139 1010 l 273 1010 l 273 483 l 764 1010 l 926 1010 l 475 535 l 947 0 z "},"Λ":{"ha":952,"x_min":18,"x_max":935,"o":"m 935 0 l 790 0 l 473 871 l 155 0 l 18 0 l 395 1010 l 557 1010 l 935 0 z "},"Μ":{"ha":1171,"x_min":136,"x_max":1035,"o":"m 1035 0 l 901 0 l 901 870 l 620 278 l 540 278 l 261 870 l 261 0 l 136 0 l 136 1010 l 319 1010 l 588 448 l 848 1010 l 1035 1010 l 1035 0 z "},"Ν":{"ha":1039,"x_min":136,"x_max":906,"o":"m 906 0 l 740 0 l 261 903 l 261 0 l 136 0 l 136 1010 l 344 1010 l 781 185 l 781 1010 l 906 1010 l 906 0 z "},"Ξ":{"ha":901,"x_min":77,"x_max":824,"o":"m 824 890 l 77 890 l 77 1010 l 824 1010 l 824 890 m 789 494 l 113 494 l 113 614 l 789 614 l 789 494 m 824 0 l 77 0 l 77 119 l 824 119 l 824 0 z "},"Ο":{"ha":1093,"x_min":78,"x_max":1016,"o":"m 888 894 q 983 728 950 826 q 1016 505 1016 629 q 982 281 1016 380 q 888 117 949 182 q 741 14 826 48 q 547 -21 656 -21 q 353 14 440 -21 q 205 117 266 50 q 111 281 144 184 q 78 505 78 379 q 111 726 78 628 q 205 894 143 824 q 354 996 265 960 q 547 1031 442 1031 q 742 995 655 1031 q 888 894 828 960 m 876 505 q 788 808 876 701 q 547 915 700 915 q 306 808 393 915 q 218 505 218 701 q 307 200 218 306 q 547 95 397 95 q 787 200 698 95 q 876 505 876 306 z "},"Π":{"ha":1044,"x_min":136,"x_max":908,"o":"m 908 0 l 774 0 l 774 890 l 270 890 l 270 0 l 136 0 l 136 1010 l 908 1010 l 908 0 z "},"Ρ":{"ha":838,"x_min":136,"x_max":796,"o":"m 796 705 q 773 580 796 637 q 707 481 749 523 q 584 402 655 429 q 404 376 513 376 l 270 376 l 270 0 l 136 0 l 136 1010 l 410 1010 q 564 995 500 1010 q 675 947 627 979 q 765 850 733 908 q 796 705 796 793 m 656 701 q 638 792 656 753 q 583 855 620 831 q 508 885 550 876 q 403 895 467 895 l 270 895 l 270 491 l 383 491 q 515 506 465 491 q 598 552 566 520 q 643 621 630 585 q 656 701 656 656 z "},"Σ":{"ha":934,"x_min":80,"x_max":868,"o":"m 868 0 l 80 0 l 80 125 l 500 532 l 94 888 l 94 1010 l 837 1010 l 837 890 l 273 890 l 670 547 l 670 530 l 243 119 l 868 119 l 868 0 z "},"Τ":{"ha":856,"x_min":0,"x_max":856,"o":"m 856 890 l 495 890 l 495 0 l 361 0 l 361 890 l 0 890 l 0 1010 l 856 1010 l 856 890 z "},"Υ":{"ha":854,"x_min":4,"x_max":850,"o":"m 850 1010 l 495 443 l 495 0 l 361 0 l 361 429 l 4 1010 l 153 1010 l 429 558 l 707 1010 l 850 1010 z "},"Χ":{"ha":951,"x_min":46,"x_max":906,"o":"m 906 1010 l 557 511 l 905 0 l 750 0 l 475 416 l 193 0 l 46 0 l 398 505 l 54 1010 l 209 1010 l 481 600 l 759 1010 l 906 1010 z "},"Ψ":{"ha":1209,"x_min":121,"x_max":1088,"o":"m 1088 617 q 1060 438 1088 511 q 981 319 1033 365 q 850 249 926 273 q 671 218 774 225 l 671 0 l 538 0 l 538 218 q 357 250 433 226 q 229 319 280 275 q 149 439 176 366 q 121 617 121 511 l 121 1010 l 256 1010 l 256 602 q 276 479 256 528 q 331 401 296 431 q 419 355 367 371 q 538 334 471 339 l 538 1010 l 671 1010 l 671 334 q 790 355 737 340 q 879 401 843 370 q 935 480 917 435 q 954 602 954 525 l 954 1010 l 1088 1010 l 1088 617 z "},"Ω":{"ha":1137,"x_min":73,"x_max":1063,"o":"m 1063 0 l 673 0 l 673 262 q 754 318 713 288 q 824 387 794 348 q 872 480 854 427 q 890 606 890 534 q 804 830 890 746 q 568 915 718 915 q 333 830 419 915 q 247 606 247 746 q 264 480 247 534 q 313 387 282 427 q 383 318 343 348 q 464 262 423 288 l 464 0 l 73 0 l 73 118 l 351 118 l 351 202 q 176 369 245 263 q 107 606 107 475 q 234 912 107 793 q 568 1031 361 1031 q 902 912 775 1031 q 1029 606 1029 793 q 961 369 1029 475 q 785 202 892 263 l 785 118 l 1063 118 l 1063 0 z "},"Ϊ":{"ha":585,"x_min":85,"x_max":500,"o":"m 492 0 l 93 0 l 93 103 l 225 103 l 225 907 l 93 907 l 93 1010 l 492 1010 l 492 907 l 359 907 l 359 103 l 492 103 l 492 0 m 500 1137 l 366 1137 l 366 1270 l 500 1270 l 500 1137 m 220 1137 l 85 1137 l 85 1270 l 220 1270 l 220 1137 z "},"Ϋ":{"ha":854,"x_min":4,"x_max":850,"o":"m 850 1010 l 495 443 l 495 0 l 361 0 l 361 429 l 4 1010 l 153 1010 l 429 558 l 707 1010 l 850 1010 m 637 1137 l 502 1137 l 502 1270 l 637 1270 l 637 1137 m 357 1137 l 222 1137 l 222 1270 l 357 1270 l 357 1137 z "},"ά":{"ha":865,"x_min":73,"x_max":740,"o":"m 740 0 l 612 0 l 612 79 q 498 5 557 32 q 368 -21 438 -21 q 153 83 233 -21 q 73 373 73 188 q 101 545 73 469 q 175 673 128 620 q 282 751 221 724 q 410 779 344 779 q 515 764 469 779 q 612 722 562 749 l 612 758 l 740 758 l 740 0 m 612 186 l 612 618 q 520 651 561 641 q 431 662 479 662 q 264 587 324 662 q 205 376 205 513 q 251 171 205 241 q 399 100 297 100 q 509 124 453 100 q 612 186 564 149 m 504 1137 l 471 876 l 372 876 l 339 1137 l 504 1137 z "},"έ":{"ha":712,"x_min":74,"x_max":682,"o":"m 682 43 q 540 -3 610 11 q 392 -18 470 -18 q 283 -7 338 -18 q 180 31 227 4 q 103 101 133 58 q 74 208 74 144 q 112 321 74 273 q 233 396 151 370 l 233 401 q 134 462 171 417 q 98 569 98 507 q 130 669 98 629 q 206 732 162 709 q 304 765 250 754 q 413 776 359 776 q 535 765 479 776 q 652 734 591 753 l 652 594 l 643 594 q 532 648 598 629 q 398 667 466 667 q 341 663 368 667 q 286 646 315 659 q 245 613 262 635 q 228 560 228 590 q 247 496 228 519 q 298 463 266 473 q 364 452 329 453 q 435 451 399 451 l 511 451 l 511 338 l 404 338 q 328 335 361 338 q 265 321 294 332 q 221 284 237 309 q 204 219 204 259 q 222 158 204 183 q 267 119 239 133 q 327 99 292 106 q 399 92 361 92 q 547 117 468 92 q 673 183 625 141 l 682 183 l 682 43 m 489 1137 l 456 876 l 357 876 l 324 1137 l 489 1137 z "},"ή":{"ha":879,"x_min":125,"x_max":759,"o":"m 759 -279 l 631 -279 l 631 431 q 625 529 631 484 q 603 601 619 575 q 554 643 586 629 q 471 657 522 657 q 362 631 419 657 q 253 566 305 606 l 253 0 l 125 0 l 125 758 l 253 758 l 253 673 q 376 751 313 723 q 507 779 440 779 q 694 705 630 779 q 759 492 759 631 l 759 -279 m 544 1137 l 511 876 l 412 876 l 379 1137 l 544 1137 z "},"ί":{"ha":381,"x_min":109,"x_max":273,"o":"m 254 0 l 127 0 l 127 758 l 254 758 l 254 0 m 273 1137 l 240 876 l 142 876 l 109 1137 l 273 1137 z "},"ΰ":{"ha":877,"x_min":120,"x_max":757,"o":"m 757 276 q 674 54 757 128 q 438 -20 591 -20 q 203 53 287 -20 q 120 276 120 125 l 120 758 l 248 758 l 248 323 q 254 219 248 260 q 283 147 261 178 q 340 103 304 118 q 439 89 376 89 q 536 104 497 89 q 595 149 575 119 q 622 220 615 178 q 629 323 629 262 l 629 758 l 757 758 l 757 276 m 515 1137 l 482 876 l 395 876 l 362 1137 l 515 1137 m 707 884 l 578 884 l 578 1017 l 707 1017 l 707 884 m 300 884 l 170 884 l 170 1017 l 300 1017 l 300 884 z "},"β":{"ha":861,"x_min":125,"x_max":790,"o":"m 790 301 q 699 75 790 164 q 469 -15 608 -15 q 355 0 415 -15 q 253 43 296 15 l 253 -279 l 125 -279 l 125 731 q 211 969 125 883 q 448 1055 297 1055 q 560 1041 509 1055 q 650 995 610 1026 q 712 919 689 966 q 735 810 735 872 q 688 660 735 724 q 555 571 641 596 l 555 559 q 726 474 663 542 q 790 301 790 407 m 659 304 q 635 402 659 365 q 572 461 612 440 q 483 490 532 483 q 384 498 433 498 l 359 498 l 359 606 l 384 606 q 473 616 429 606 q 543 646 517 626 q 590 703 574 669 q 605 793 605 736 q 558 909 605 869 q 437 948 511 948 q 353 930 388 948 q 295 882 317 912 q 263 813 273 852 q 253 731 253 773 l 253 146 q 349 110 298 121 q 448 100 399 100 q 604 153 549 100 q 659 304 659 206 z "},"γ":{"ha":822,"x_min":41,"x_max":781,"o":"m 781 758 l 471 38 l 471 -279 l 343 -279 l 343 38 l 41 758 l 180 758 l 412 196 l 647 758 l 781 758 z "},"ζ":{"ha":635,"x_min":73,"x_max":666,"o":"m 625 51 q 656 -7 647 24 q 666 -65 666 -38 q 635 -179 666 -122 q 559 -279 605 -237 l 438 -279 l 438 -270 q 525 -176 499 -216 q 551 -89 551 -136 q 530 -24 551 -50 q 477 1 509 1 l 379 1 q 149 80 224 1 q 73 314 73 159 q 104 496 73 409 q 189 663 136 583 q 306 809 239 739 q 446 942 373 878 l 446 948 l 134 948 l 134 1055 l 639 1055 l 639 964 q 482 841 559 911 q 343 690 404 771 q 244 515 283 610 q 205 323 205 420 q 208 276 205 300 q 218 224 210 252 q 241 173 224 199 q 284 132 258 148 q 350 115 309 117 q 429 113 391 113 l 487 113 q 570 96 535 113 q 625 51 604 78 z "},"η":{"ha":879,"x_min":125,"x_max":759,"o":"m 759 -279 l 631 -279 l 631 431 q 625 529 631 484 q 603 601 619 575 q 554 643 586 629 q 471 657 522 657 q 362 631 419 657 q 253 566 305 606 l 253 0 l 125 0 l 125 758 l 253 758 l 253 673 q 376 751 313 723 q 507 779 440 779 q 694 705 630 779 q 759 492 759 631 l 759 -279 z "},"θ":{"ha":867,"x_min":93,"x_max":774,"o":"m 774 521 q 758 306 774 392 q 718 163 743 220 q 608 25 679 72 q 433 -21 536 -21 q 259 25 330 -21 q 149 163 188 72 q 108 306 123 220 q 93 521 93 392 q 108 728 93 639 q 149 873 123 817 q 259 1008 188 962 q 433 1055 331 1055 q 607 1008 536 1055 q 718 873 679 962 q 758 728 743 817 q 774 521 774 639 m 646 582 q 626 751 643 679 q 588 861 610 824 q 524 927 560 908 q 433 947 487 947 q 343 927 380 947 q 279 861 307 908 q 240 751 256 823 q 221 582 224 679 l 646 582 m 646 473 l 221 473 q 237 297 221 376 q 277 176 252 218 q 342 109 304 130 q 433 87 380 87 q 525 109 487 87 q 590 176 563 130 q 630 297 614 218 q 646 473 646 376 z "},"ι":{"ha":381,"x_min":127,"x_max":254,"o":"m 254 0 l 127 0 l 127 758 l 254 758 l 254 0 z "},"κ":{"ha":822,"x_min":131,"x_max":808,"o":"m 808 0 l 640 0 l 334 332 l 258 258 l 258 0 l 131 0 l 131 758 l 258 758 l 258 385 l 519 667 q 611 740 568 721 q 696 759 654 759 q 736 758 715 759 q 761 758 756 758 l 761 645 l 753 645 q 727 647 743 646 q 702 648 711 648 q 644 632 670 648 q 598 593 618 616 l 428 410 l 808 0 z "},"λ":{"ha":822,"x_min":41,"x_max":781,"o":"m 781 0 l 642 0 l 419 562 l 174 0 l 41 0 l 357 716 l 211 1055 l 354 1055 l 781 0 z "},"μ":{"ha":888,"x_min":125,"x_max":763,"o":"m 763 0 l 637 0 l 637 80 q 541 6 587 27 q 442 -14 495 -14 q 351 4 391 -14 q 253 77 310 22 l 253 -279 l 125 -279 l 125 758 l 253 758 l 253 189 q 328 135 275 163 q 444 107 382 107 q 553 130 507 107 q 635 193 599 153 l 635 758 l 763 758 l 763 0 z "},"ν":{"ha":822,"x_min":41,"x_max":781,"o":"m 781 758 l 474 0 l 346 0 l 41 758 l 180 758 l 414 155 l 647 758 l 781 758 z "},"ξ":{"ha":699,"x_min":71,"x_max":706,"o":"m 706 -65 q 675 -180 706 -123 q 600 -279 644 -237 l 477 -279 l 477 -270 q 565 -176 540 -216 q 591 -89 591 -135 q 571 -25 591 -52 q 520 1 551 1 l 425 1 q 268 20 330 1 q 162 77 205 38 q 94 169 117 117 q 71 279 71 220 q 87 377 71 332 q 137 458 104 422 q 213 514 167 491 q 311 551 260 538 l 311 558 q 176 633 227 577 q 125 760 125 689 q 154 862 125 816 q 245 947 184 907 l 245 951 l 90 951 l 90 1055 l 649 1055 l 649 948 l 475 948 q 392 938 429 948 q 323 905 355 928 q 274 849 292 884 q 256 769 256 814 q 278 682 256 715 q 334 631 300 649 q 405 608 365 616 q 499 601 445 601 l 614 601 l 614 489 l 414 489 q 334 475 370 489 q 267 435 298 462 q 220 374 237 410 q 203 298 203 338 q 228 191 203 229 q 297 135 254 152 q 392 116 340 118 q 505 113 444 113 l 524 113 q 605 97 570 113 q 662 56 640 81 q 694 0 683 33 q 706 -65 706 -32 z "},"ο":{"ha":843,"x_min":72,"x_max":771,"o":"m 771 378 q 676 86 771 193 q 422 -21 581 -21 q 166 86 261 -21 q 72 378 72 193 q 166 671 72 564 q 422 779 261 779 q 676 671 581 779 q 771 378 771 564 m 640 378 q 582 597 640 526 q 422 669 524 669 q 261 597 318 669 q 203 378 203 526 q 261 162 203 236 q 422 89 319 89 q 582 162 524 89 q 640 378 640 235 z "},"ρ":{"ha":868,"x_min":125,"x_max":795,"o":"m 795 391 q 701 101 795 216 q 456 -15 607 -15 q 357 -3 412 -15 q 253 39 302 9 l 253 -279 l 125 -279 l 125 438 q 150 584 125 522 q 218 692 174 647 q 324 756 260 734 q 456 779 387 779 q 708 679 621 779 q 795 391 795 579 m 663 383 q 609 600 663 531 q 456 669 555 669 q 301 604 349 669 q 253 416 253 539 l 253 142 q 343 110 302 119 q 434 100 383 100 q 604 175 544 100 q 663 383 663 250 z "},"ς":{"ha":705,"x_min":71,"x_max":690,"o":"m 690 -65 q 659 -182 690 -124 q 585 -279 627 -239 l 465 -279 l 465 -270 q 549 -178 523 -219 q 575 -89 575 -137 q 555 -25 575 -52 q 504 1 534 1 l 441 1 q 295 22 362 1 q 177 87 228 42 q 99 203 127 132 q 71 372 71 273 q 177 665 71 555 q 458 775 282 775 q 569 763 515 775 q 669 732 623 750 l 669 589 l 661 589 q 544 648 597 631 q 444 665 490 665 q 268 584 332 665 q 203 372 203 503 q 223 248 203 296 q 276 170 242 200 q 354 126 310 140 q 448 113 397 113 l 516 113 q 642 61 594 113 q 690 -65 690 9 z "},"υ":{"ha":877,"x_min":120,"x_max":757,"o":"m 757 276 q 674 54 757 128 q 438 -20 591 -20 q 203 53 287 -20 q 120 276 120 125 l 120 758 l 248 758 l 248 323 q 254 219 248 260 q 283 147 261 178 q 340 103 304 118 q 439 89 376 89 q 536 104 497 89 q 595 149 575 119 q 622 220 615 178 q 629 323 629 262 l 629 758 l 757 758 l 757 276 z "},"χ":{"ha":819,"x_min":33,"x_max":787,"o":"m 787 -279 l 642 -279 l 408 140 l 170 -279 l 33 -279 l 334 243 l 40 758 l 184 758 l 412 351 l 642 758 l 779 758 l 486 248 l 787 -279 z "},"ψ":{"ha":1141,"x_min":119,"x_max":1022,"o":"m 1022 302 q 989 168 1022 225 q 903 75 957 111 q 780 19 848 38 q 634 -3 712 1 l 634 -279 l 507 -279 l 507 -3 q 362 19 429 1 q 238 75 294 37 q 152 169 184 112 q 119 302 119 225 l 119 758 l 247 758 l 247 342 q 272 220 247 266 q 333 151 298 174 q 416 115 371 125 q 507 102 462 104 l 507 758 l 634 758 l 634 102 q 725 115 680 105 q 808 151 770 124 q 871 219 848 178 q 895 342 895 261 l 895 758 l 1022 758 l 1022 302 z "},"ω":{"ha":1130,"x_min":77,"x_max":1053,"o":"m 1053 341 q 1037 211 1053 276 q 987 94 1021 145 q 896 10 949 40 q 765 -20 843 -20 q 645 13 700 -20 q 565 92 590 47 l 561 92 q 484 13 534 46 q 365 -20 434 -20 q 233 11 288 -20 q 143 94 178 43 q 93 211 109 146 q 77 341 77 275 q 115 550 77 456 q 252 758 154 644 l 406 758 l 406 746 q 261 568 315 673 q 207 340 207 464 q 212 257 207 295 q 238 176 218 218 q 287 114 256 138 q 367 89 319 89 q 426 97 401 89 q 463 117 450 106 q 488 144 478 130 q 502 170 498 159 l 502 566 l 628 566 l 628 170 q 644 143 634 158 q 667 117 653 128 q 703 96 684 104 q 762 89 722 89 q 841 113 809 89 q 891 176 873 137 q 916 254 908 213 q 923 340 923 296 q 870 568 923 463 q 724 746 817 672 l 724 758 l 878 758 q 1015 550 976 644 q 1053 341 1053 456 z "},"ϊ":{"ha":381,"x_min":3,"x_max":378,"o":"m 378 884 l 250 884 l 250 1017 l 378 1017 l 378 884 m 132 884 l 3 884 l 3 1017 l 132 1017 l 132 884 m 254 0 l 127 0 l 127 758 l 254 758 l 254 0 z "},"ϋ":{"ha":877,"x_min":120,"x_max":757,"o":"m 757 276 q 674 54 757 128 q 438 -20 591 -20 q 203 53 287 -20 q 120 276 120 125 l 120 758 l 248 758 l 248 323 q 254 219 248 260 q 283 147 261 178 q 340 103 304 118 q 439 89 376 89 q 536 104 497 89 q 595 149 575 119 q 622 220 615 178 q 629 323 629 262 l 629 758 l 757 758 l 757 276 m 646 884 l 511 884 l 511 1017 l 646 1017 l 646 884 m 366 884 l 231 884 l 231 1017 l 366 1017 l 366 884 z "},"ό":{"ha":843,"x_min":72,"x_max":771,"o":"m 771 378 q 676 86 771 193 q 422 -21 581 -21 q 166 86 261 -21 q 72 378 72 193 q 166 671 72 564 q 422 779 261 779 q 676 671 581 779 q 771 378 771 564 m 640 378 q 582 597 640 526 q 422 669 524 669 q 261 597 318 669 q 203 378 203 526 q 261 162 203 236 q 422 89 319 89 q 582 162 524 89 q 640 378 640 235 m 504 1137 l 471 876 l 372 876 l 339 1137 l 504 1137 z "},"ύ":{"ha":877,"x_min":120,"x_max":757,"o":"m 757 276 q 674 54 757 128 q 438 -20 591 -20 q 203 53 287 -20 q 120 276 120 125 l 120 758 l 248 758 l 248 323 q 254 219 248 260 q 283 147 261 178 q 340 103 304 118 q 439 89 376 89 q 536 104 497 89 q 595 149 575 119 q 622 220 615 178 q 629 323 629 262 l 629 758 l 757 758 l 757 276 m 521 1137 l 488 876 l 389 876 l 356 1137 l 521 1137 z "},"ώ":{"ha":1130,"x_min":77,"x_max":1053,"o":"m 1053 341 q 1037 211 1053 276 q 987 94 1021 145 q 896 10 949 40 q 765 -20 843 -20 q 645 13 700 -20 q 565 92 590 47 l 561 92 q 484 13 534 46 q 365 -20 434 -20 q 233 11 288 -20 q 143 94 178 43 q 93 211 109 146 q 77 341 77 275 q 115 550 77 456 q 252 758 154 644 l 406 758 l 406 746 q 261 568 315 673 q 207 340 207 464 q 212 257 207 295 q 238 176 218 218 q 287 114 256 138 q 367 89 319 89 q 426 97 401 89 q 463 117 450 106 q 488 144 478 130 q 502 170 498 159 l 502 566 l 628 566 l 628 170 q 644 143 634 158 q 667 117 653 128 q 703 96 684 104 q 762 89 722 89 q 841 113 809 89 q 891 176 873 137 q 916 254 908 213 q 923 340 923 296 q 870 568 923 463 q 724 746 817 672 l 724 758 l 878 758 q 1015 550 976 644 q 1053 341 1053 456 m 648 1137 l 614 876 l 516 876 l 483 1137 l 648 1137 z "},"Ё":{"ha":878,"x_min":136,"x_max":801,"o":"m 801 0 l 136 0 l 136 1010 l 801 1010 l 801 890 l 270 890 l 270 614 l 801 614 l 801 494 l 270 494 l 270 119 l 801 119 l 801 0 m 704 1137 l 569 1137 l 569 1270 l 704 1270 l 704 1137 m 424 1137 l 289 1137 l 289 1270 l 424 1270 l 424 1137 z "},"Ђ":{"ha":1101,"x_min":-1,"x_max":1046,"o":"m 1046 312 q 1018 179 1046 239 q 941 79 990 119 q 822 16 882 33 q 669 0 763 0 l 595 0 l 595 120 l 658 120 q 760 125 720 120 q 833 154 801 131 q 888 219 871 181 q 906 309 906 256 q 889 399 906 360 q 837 462 873 438 q 752 491 803 485 q 613 498 702 498 l 425 498 l 425 0 l 291 0 l 291 890 l -1 890 l -1 1010 l 764 1010 l 764 890 l 425 890 l 425 614 l 655 614 q 823 602 758 614 q 945 545 888 589 q 1022 446 997 505 q 1046 312 1046 387 z "},"Ѓ":{"ha":787,"x_min":136,"x_max":788,"o":"m 788 890 l 270 890 l 270 0 l 136 0 l 136 1010 l 788 1010 l 788 890 m 689 1376 l 504 1122 l 403 1122 l 524 1376 l 689 1376 z "},"Є":{"ha":973,"x_min":78,"x_max":907,"o":"m 907 44 q 760 0 840 18 q 581 -18 680 -18 q 374 17 467 -18 q 215 119 281 52 q 114 284 149 186 q 78 506 78 382 q 114 722 78 625 q 216 888 149 819 q 373 991 280 955 q 581 1028 466 1028 q 759 1010 675 1028 q 907 966 842 993 l 907 815 l 896 815 q 759 886 843 859 q 578 914 674 914 q 446 895 505 914 q 338 835 387 875 q 260 736 290 795 q 220 600 231 677 l 777 600 l 777 483 l 214 483 q 243 315 214 389 q 321 194 273 241 q 438 120 372 145 q 581 96 505 96 q 758 121 674 96 q 896 191 842 146 l 907 191 l 907 44 z "},"Ѕ":{"ha":949,"x_min":91,"x_max":869,"o":"m 869 288 q 842 172 869 229 q 765 74 814 114 q 638 6 711 31 q 465 -18 566 -18 q 268 2 355 -18 q 91 62 181 22 l 91 231 l 100 231 q 277 132 177 167 q 466 98 378 98 q 660 144 591 98 q 730 269 730 191 q 697 368 730 336 q 597 418 664 400 q 487 440 546 431 q 361 463 427 449 q 162 560 227 491 q 97 739 97 629 q 204 947 97 866 q 476 1028 311 1028 q 671 1008 583 1028 q 829 958 760 987 l 829 799 l 819 799 q 668 880 762 848 q 475 912 574 912 q 302 867 368 912 q 237 752 237 823 q 269 653 237 689 q 384 598 302 617 q 507 575 427 589 q 643 547 587 562 q 812 457 755 517 q 869 288 869 397 z "},"І":{"ha":585,"x_min":93,"x_max":492,"o":"m 492 0 l 93 0 l 93 103 l 225 103 l 225 907 l 93 907 l 93 1010 l 492 1010 l 492 907 l 359 907 l 359 103 l 492 103 l 492 0 z "},"Ї":{"ha":585,"x_min":85,"x_max":500,"o":"m 492 0 l 93 0 l 93 103 l 225 103 l 225 907 l 93 907 l 93 1010 l 492 1010 l 492 907 l 359 907 l 359 103 l 492 103 l 492 0 m 500 1137 l 366 1137 l 366 1270 l 500 1270 l 500 1137 m 220 1137 l 85 1137 l 85 1270 l 220 1270 l 220 1137 z "},"Ј":{"ha":631,"x_min":30,"x_max":506,"o":"m 506 262 q 425 58 506 130 q 208 -14 344 -14 q 121 -8 175 -14 q 30 5 66 -3 l 30 131 l 37 131 q 106 111 65 121 q 189 101 146 101 q 289 115 252 101 q 343 156 326 130 q 367 222 361 183 q 372 313 372 262 l 372 903 l 158 903 l 158 1010 l 506 1010 l 506 262 z "},"Љ":{"ha":1553,"x_min":12,"x_max":1499,"o":"m 1358 310 q 1341 399 1358 361 q 1289 462 1324 438 q 1202 492 1251 487 q 1065 498 1154 498 l 878 498 l 878 115 l 1061 115 q 1200 123 1152 115 q 1285 157 1249 132 q 1341 219 1323 184 q 1358 310 1358 255 m 1499 313 q 1470 180 1499 239 q 1393 83 1441 120 q 1271 19 1336 38 q 1103 0 1206 0 l 743 0 l 743 890 l 385 890 q 379 740 383 814 q 374 609 376 667 q 356 370 368 464 q 323 216 343 277 q 279 119 304 155 q 222 54 254 83 q 156 11 190 24 q 75 -2 121 -2 q 41 -1 61 -2 q 12 0 20 0 l 12 130 l 22 130 q 39 129 28 130 q 59 128 49 128 q 105 136 83 128 q 142 159 127 143 q 213 317 190 207 q 245 632 235 428 q 252 808 248 699 q 258 1010 256 918 l 878 1010 l 878 614 l 1107 614 q 1275 602 1210 614 q 1398 545 1340 590 q 1474 446 1449 505 q 1499 313 1499 387 z "},"Њ":{"ha":1532,"x_min":136,"x_max":1478,"o":"m 1337 310 q 1320 399 1337 361 q 1267 462 1303 438 q 1181 492 1230 487 q 1044 498 1133 498 l 857 498 l 857 115 l 1040 115 q 1179 123 1131 115 q 1264 157 1227 132 q 1320 219 1302 184 q 1337 310 1337 255 m 1478 313 q 1449 180 1478 239 q 1372 83 1420 120 q 1250 19 1315 38 q 1082 0 1185 0 l 722 0 l 722 498 l 270 498 l 270 0 l 136 0 l 136 1010 l 270 1010 l 270 614 l 722 614 l 722 1010 l 857 1010 l 857 614 l 1086 614 q 1254 602 1189 614 q 1377 545 1319 590 q 1453 446 1428 505 q 1478 313 1478 387 z "},"Ћ":{"ha":1136,"x_min":-1,"x_max":1040,"o":"m 425 0 l 291 0 l 291 890 l -1 890 l -1 1010 l 764 1010 l 764 890 l 425 890 l 425 574 q 573 612 490 595 q 726 629 656 629 q 852 612 795 629 q 951 559 910 595 q 1016 469 993 524 q 1040 336 1040 414 l 1040 0 l 905 0 l 905 269 q 898 366 905 319 q 870 443 890 414 q 807 491 848 474 q 699 507 766 507 q 561 494 627 507 q 425 458 494 481 l 425 0 z "},"Ќ":{"ha":962,"x_min":139,"x_max":947,"o":"m 947 0 l 775 0 l 365 460 l 273 460 l 273 0 l 139 0 l 139 1010 l 273 1010 l 273 557 q 338 564 308 557 q 396 587 369 570 q 450 631 423 602 q 496 702 476 660 q 517 748 505 720 q 541 806 529 776 q 651 964 588 919 q 836 1010 713 1010 l 889 1010 l 889 890 l 833 890 q 760 881 786 890 q 712 853 733 873 q 678 806 692 836 q 648 736 663 776 q 576 604 612 646 q 479 531 540 562 l 947 0 m 694 1376 l 509 1122 l 408 1122 l 529 1376 l 694 1376 z "},"Ў":{"ha":854,"x_min":4,"x_max":850,"o":"m 850 1010 l 467 160 q 412 75 444 109 q 344 24 380 42 q 276 1 309 7 q 212 -5 243 -5 q 146 -2 185 -5 q 97 1 108 1 l 97 127 l 106 127 q 140 122 117 125 q 195 119 164 119 q 233 121 208 119 q 276 131 257 123 q 319 157 298 139 q 355 208 340 174 l 380 262 l 4 1010 l 153 1010 l 448 414 l 712 1010 l 850 1010 m 690 1312 q 618 1143 686 1200 q 436 1086 550 1086 q 254 1143 322 1086 q 182 1312 186 1200 l 306 1312 q 340 1203 307 1236 q 436 1169 372 1169 q 533 1202 500 1169 q 566 1312 565 1236 l 690 1312 z "},"Џ":{"ha":1044,"x_min":136,"x_max":908,"o":"m 458 0 l 136 0 l 136 1010 l 270 1010 l 270 117 l 774 117 l 774 1010 l 908 1010 l 908 0 l 585 0 l 585 -229 l 458 -229 l 458 0 z "},"А":{"ha":949,"x_min":18,"x_max":932,"o":"m 932 0 l 789 0 l 690 281 l 253 281 l 154 0 l 18 0 l 385 1010 l 564 1010 l 932 0 m 648 397 l 471 892 l 294 397 l 648 397 z "},"Б":{"ha":952,"x_min":136,"x_max":898,"o":"m 898 313 q 869 180 898 239 q 792 83 840 120 q 670 19 735 38 q 502 0 605 0 l 136 0 l 136 1010 l 812 1010 l 812 890 l 270 890 l 270 614 l 506 614 q 674 602 609 614 q 797 545 739 590 q 873 446 848 505 q 898 313 898 387 m 758 310 q 741 399 758 361 q 688 462 724 438 q 602 492 650 487 q 464 498 553 498 l 270 498 l 270 115 l 460 115 q 599 123 551 115 q 684 157 648 132 q 740 219 722 184 q 758 310 758 255 z "},"В":{"ha":952,"x_min":136,"x_max":897,"o":"m 897 311 q 869 178 897 235 q 792 83 840 120 q 667 19 735 38 q 494 0 599 0 l 136 0 l 136 1010 l 435 1010 q 600 1002 545 1010 q 705 968 655 994 q 786 893 761 939 q 811 783 811 847 q 774 661 811 711 q 677 580 738 610 l 677 574 q 838 485 779 553 q 897 311 897 416 m 671 766 q 659 827 671 802 q 620 868 647 852 q 543 891 588 886 q 430 895 497 895 l 270 895 l 270 604 l 444 604 q 544 610 507 604 q 613 637 581 616 q 658 689 645 657 q 671 766 671 722 m 758 305 q 739 402 758 366 q 673 463 721 438 q 594 485 640 480 q 481 490 547 490 l 270 490 l 270 115 l 448 115 q 592 124 536 115 q 684 157 648 133 q 740 218 722 184 q 758 305 758 252 z "},"Г":{"ha":787,"x_min":136,"x_max":788,"o":"m 788 890 l 270 890 l 270 0 l 136 0 l 136 1010 l 788 1010 l 788 890 z "},"Д":{"ha":1036,"x_min":7,"x_max":975,"o":"m 975 -229 l 848 -229 l 848 3 l 134 3 l 134 -229 l 7 -229 l 7 119 l 88 119 q 229 498 176 264 q 281 1010 281 732 l 880 1010 l 880 119 l 975 119 l 975 -229 m 745 119 l 745 893 l 408 893 q 348 450 398 651 q 218 119 298 249 l 745 119 z "},"Е":{"ha":878,"x_min":136,"x_max":801,"o":"m 801 0 l 136 0 l 136 1010 l 801 1010 l 801 890 l 270 890 l 270 614 l 801 614 l 801 494 l 270 494 l 270 119 l 801 119 l 801 0 z "},"Ж":{"ha":1352,"x_min":22,"x_max":1329,"o":"m 1329 0 l 1165 0 l 810 462 l 739 462 l 739 0 l 606 0 l 606 462 l 533 462 l 178 0 l 22 0 l 424 519 q 329 612 364 559 q 272 736 294 665 q 247 807 259 777 q 215 855 234 836 q 169 882 197 873 q 100 890 140 890 l 59 890 l 59 1010 l 107 1010 q 281 967 220 1010 q 382 806 341 924 q 400 756 390 786 q 420 702 410 726 q 499 596 450 631 q 606 556 547 562 l 606 1010 l 739 1010 l 739 555 q 850 592 801 559 q 930 702 899 626 q 952 761 943 732 q 968 806 962 789 q 1070 966 1009 923 q 1244 1010 1132 1010 l 1292 1010 l 1292 890 l 1251 890 q 1181 882 1206 890 q 1135 855 1156 874 q 1103 806 1116 837 q 1078 736 1090 775 q 1007 600 1049 646 q 922 528 964 554 l 1329 0 z "},"З":{"ha":855,"x_min":55,"x_max":785,"o":"m 709 486 q 763 414 742 458 q 785 301 785 370 q 754 172 785 230 q 675 74 723 115 q 543 5 621 28 q 375 -18 465 -18 q 190 0 275 -18 q 55 39 105 19 l 55 190 l 65 190 q 217 124 132 150 q 378 99 301 99 q 484 113 427 99 q 576 155 541 127 q 629 223 612 186 q 646 308 646 261 q 625 396 646 361 q 570 451 605 430 q 487 480 536 471 q 377 490 437 490 l 241 490 l 241 604 l 362 604 q 551 647 479 604 q 622 772 622 690 q 604 836 622 808 q 555 880 586 864 q 487 904 524 897 q 397 911 449 911 q 300 901 345 911 q 215 877 255 890 q 149 848 182 865 q 99 821 115 830 l 90 821 l 90 970 q 225 1010 141 991 q 395 1028 309 1028 q 538 1015 478 1028 q 649 972 598 1002 q 730 893 702 939 q 758 786 758 847 q 702 640 758 700 q 562 562 647 581 l 562 552 q 637 530 597 546 q 709 486 677 514 z "},"И":{"ha":1042,"x_min":136,"x_max":907,"o":"m 907 0 l 773 0 l 773 809 l 271 0 l 136 0 l 136 1010 l 269 1010 l 269 213 l 765 1010 l 907 1010 l 907 0 z "},"Й":{"ha":1042,"x_min":136,"x_max":907,"o":"m 907 0 l 773 0 l 773 809 l 271 0 l 136 0 l 136 1010 l 269 1010 l 269 213 l 765 1010 l 907 1010 l 907 0 m 784 1312 q 712 1143 781 1200 q 530 1086 644 1086 q 348 1143 416 1086 q 277 1312 280 1200 l 400 1312 q 434 1203 401 1236 q 530 1169 467 1169 q 627 1202 595 1169 q 661 1312 659 1236 l 784 1312 z "},"К":{"ha":962,"x_min":139,"x_max":947,"o":"m 947 0 l 775 0 l 365 460 l 273 460 l 273 0 l 139 0 l 139 1010 l 273 1010 l 273 557 q 338 564 308 557 q 396 587 369 570 q 450 631 423 602 q 496 702 476 660 q 517 748 505 720 q 541 806 529 776 q 651 964 588 919 q 836 1010 713 1010 l 889 1010 l 889 890 l 833 890 q 760 881 786 890 q 712 853 733 873 q 678 806 692 836 q 648 736 663 776 q 576 604 612 646 q 479 531 540 562 l 947 0 z "},"Л":{"ha":1020,"x_min":12,"x_max":884,"o":"m 884 0 l 750 0 l 750 890 l 385 890 q 379 740 383 814 q 374 609 376 667 q 356 370 368 464 q 323 216 343 277 q 279 119 304 155 q 222 54 254 83 q 156 11 190 24 q 75 -2 121 -2 q 41 -1 61 -2 q 12 0 20 0 l 12 130 l 22 130 q 39 129 28 130 q 59 128 49 128 q 105 136 83 128 q 142 159 127 143 q 213 317 190 207 q 245 632 235 428 q 252 808 248 699 q 258 1010 256 918 l 884 1010 l 884 0 z "},"М":{"ha":1171,"x_min":136,"x_max":1035,"o":"m 1035 0 l 901 0 l 901 870 l 620 278 l 540 278 l 261 870 l 261 0 l 136 0 l 136 1010 l 319 1010 l 588 448 l 848 1010 l 1035 1010 l 1035 0 z "},"Н":{"ha":1044,"x_min":136,"x_max":908,"o":"m 908 0 l 774 0 l 774 494 l 270 494 l 270 0 l 136 0 l 136 1010 l 270 1010 l 270 614 l 774 614 l 774 1010 l 908 1010 l 908 0 z "},"О":{"ha":1093,"x_min":78,"x_max":1016,"o":"m 888 894 q 983 728 950 826 q 1016 505 1016 629 q 982 281 1016 380 q 888 117 949 182 q 741 14 826 48 q 547 -21 656 -21 q 353 14 440 -21 q 205 117 266 50 q 111 281 144 184 q 78 505 78 379 q 111 726 78 628 q 205 894 143 824 q 354 996 265 960 q 547 1031 442 1031 q 742 995 655 1031 q 888 894 828 960 m 876 505 q 788 808 876 701 q 547 915 700 915 q 306 808 393 915 q 218 505 218 701 q 307 200 218 306 q 547 95 397 95 q 787 200 698 95 q 876 505 876 306 z "},"П":{"ha":1044,"x_min":136,"x_max":908,"o":"m 908 0 l 774 0 l 774 890 l 270 890 l 270 0 l 136 0 l 136 1010 l 908 1010 l 908 0 z "},"Р":{"ha":838,"x_min":136,"x_max":796,"o":"m 796 705 q 773 580 796 637 q 707 481 749 523 q 584 402 655 429 q 404 376 513 376 l 270 376 l 270 0 l 136 0 l 136 1010 l 410 1010 q 564 995 500 1010 q 675 947 627 979 q 765 850 733 908 q 796 705 796 793 m 656 701 q 638 792 656 753 q 583 855 620 831 q 508 885 550 876 q 403 895 467 895 l 270 895 l 270 491 l 383 491 q 515 506 465 491 q 598 552 566 520 q 643 621 630 585 q 656 701 656 656 z "},"С":{"ha":970,"x_min":78,"x_max":916,"o":"m 916 73 q 848 43 878 57 q 769 13 818 28 q 679 -9 728 0 q 572 -18 631 -18 q 373 13 463 -18 q 216 109 283 43 q 115 273 151 174 q 78 504 78 372 q 113 727 78 629 q 215 893 149 825 q 371 994 279 959 q 573 1028 462 1028 q 735 1008 654 1028 q 916 939 817 989 l 916 780 l 905 780 q 740 882 822 850 q 564 913 658 913 q 426 889 488 913 q 317 812 365 864 q 244 683 270 761 q 218 504 218 606 q 247 321 218 397 q 321 196 275 244 q 432 122 368 146 q 566 98 495 98 q 747 131 663 98 q 906 231 832 164 l 916 231 l 916 73 z "},"Т":{"ha":856,"x_min":0,"x_max":856,"o":"m 856 890 l 495 890 l 495 0 l 361 0 l 361 890 l 0 890 l 0 1010 l 856 1010 l 856 890 z "},"У":{"ha":854,"x_min":4,"x_max":850,"o":"m 850 1010 l 467 160 q 412 75 444 109 q 344 24 380 42 q 276 1 309 7 q 212 -5 243 -5 q 146 -2 185 -5 q 97 1 108 1 l 97 127 l 106 127 q 140 122 117 125 q 195 119 164 119 q 233 121 208 119 q 276 131 257 123 q 319 157 298 139 q 355 208 340 174 l 380 262 l 4 1010 l 153 1010 l 448 414 l 712 1010 l 850 1010 z "},"Ф":{"ha":1137,"x_min":71,"x_max":1066,"o":"m 1066 512 q 1036 343 1066 417 q 952 220 1006 270 q 812 135 895 167 q 635 102 729 104 l 635 -11 l 502 -11 l 502 102 q 328 134 411 104 q 185 220 244 165 q 101 344 132 271 q 71 512 71 417 q 100 673 71 604 q 181 794 130 743 q 318 881 236 849 q 502 916 401 913 l 502 1021 l 635 1021 l 635 916 q 819 880 736 913 q 956 794 903 847 q 1037 674 1007 745 q 1066 512 1066 604 m 926 517 q 905 641 926 585 q 843 736 883 697 q 755 791 804 774 q 635 810 707 809 l 635 207 q 751 228 699 208 q 838 279 804 247 q 904 378 882 319 q 926 517 926 437 m 502 207 l 502 810 q 382 791 430 810 q 294 736 334 773 q 233 641 255 699 q 211 517 211 583 q 234 380 211 441 q 300 279 256 318 q 386 228 333 248 q 502 207 438 208 z "},"Х":{"ha":951,"x_min":46,"x_max":906,"o":"m 906 1010 l 557 511 l 905 0 l 750 0 l 475 416 l 193 0 l 46 0 l 398 505 l 54 1010 l 209 1010 l 481 600 l 759 1010 l 906 1010 z "},"Ц":{"ha":1057,"x_min":136,"x_max":997,"o":"m 869 0 l 136 0 l 136 1010 l 270 1010 l 270 118 l 767 118 l 767 1010 l 901 1010 l 901 118 l 997 118 l 997 -229 l 869 -229 l 869 0 z "},"Ч":{"ha":989,"x_min":96,"x_max":853,"o":"m 853 0 l 719 0 l 719 427 q 556 386 631 400 q 414 372 481 372 q 288 388 347 372 q 187 441 230 405 q 120 532 144 477 q 96 665 96 588 l 96 1010 l 231 1010 l 231 732 q 237 632 231 673 q 268 559 244 591 q 330 511 292 527 q 441 495 369 495 q 591 509 518 495 q 719 543 663 522 l 719 1010 l 853 1010 l 853 0 z "},"Ш":{"ha":1431,"x_min":136,"x_max":1295,"o":"m 1295 0 l 136 0 l 136 1010 l 270 1010 l 270 117 l 648 117 l 648 1010 l 783 1010 l 783 117 l 1161 117 l 1161 1010 l 1295 1010 l 1295 0 z "},"Щ":{"ha":1451,"x_min":136,"x_max":1391,"o":"m 1263 0 l 136 0 l 136 1010 l 270 1010 l 270 117 l 648 117 l 648 1010 l 783 1010 l 783 117 l 1161 117 l 1161 1010 l 1295 1010 l 1295 117 l 1391 117 l 1391 -229 l 1263 -229 l 1263 0 z "},"Ъ":{"ha":1088,"x_min":0,"x_max":1034,"o":"m 893 310 q 876 399 893 361 q 823 462 859 438 q 737 492 786 487 q 600 498 688 498 l 412 498 l 412 115 l 596 115 q 735 123 686 115 q 820 157 783 132 q 876 219 858 184 q 893 310 893 255 m 1034 313 q 1005 180 1034 239 q 928 83 976 120 q 806 19 871 38 q 637 0 741 0 l 278 0 l 278 890 l 0 890 l 0 1010 l 412 1010 l 412 614 l 642 614 q 810 602 745 614 q 932 545 875 590 q 1009 446 984 505 q 1034 313 1034 387 z "},"Ы":{"ha":1278,"x_min":136,"x_max":1143,"o":"m 751 310 q 734 399 751 361 q 681 462 717 438 q 595 492 644 487 q 457 498 546 498 l 270 498 l 270 115 l 454 115 q 592 123 544 115 q 677 157 641 132 q 733 219 715 184 q 751 310 751 255 m 891 313 q 862 180 891 239 q 785 83 833 120 q 663 19 728 38 q 495 0 598 0 l 136 0 l 136 1010 l 270 1010 l 270 614 l 499 614 q 667 602 602 614 q 790 545 732 590 q 866 446 842 505 q 891 313 891 387 m 1143 0 l 1008 0 l 1008 1010 l 1143 1010 l 1143 0 z "},"Ь":{"ha":945,"x_min":136,"x_max":891,"o":"m 751 310 q 734 399 751 361 q 681 462 717 438 q 595 492 644 487 q 457 498 546 498 l 270 498 l 270 115 l 454 115 q 592 123 544 115 q 677 157 641 132 q 733 219 715 184 q 751 310 751 255 m 891 313 q 862 180 891 239 q 785 83 833 120 q 663 19 728 38 q 495 0 598 0 l 136 0 l 136 1010 l 270 1010 l 270 614 l 499 614 q 667 602 602 614 q 790 545 732 590 q 866 446 842 505 q 891 313 891 387 z "},"Э":{"ha":974,"x_min":66,"x_max":896,"o":"m 760 898 q 861 736 825 833 q 896 509 896 640 q 860 294 896 392 q 758 126 825 196 q 596 18 688 54 q 393 -18 503 -18 q 211 0 297 -18 q 66 43 125 18 l 66 192 l 77 192 q 215 122 132 148 q 395 96 299 96 q 547 125 478 96 q 663 205 616 155 q 736 328 711 260 q 761 483 761 396 l 210 483 l 210 600 l 754 600 q 713 740 745 681 q 634 838 682 800 q 525 896 586 877 q 395 914 464 914 q 220 888 302 914 q 80 817 139 862 l 68 817 l 68 966 q 218 1010 132 992 q 394 1028 304 1028 q 603 996 511 1028 q 760 898 694 963 z "},"Ю":{"ha":1436,"x_min":136,"x_max":1358,"o":"m 1219 505 q 1132 810 1219 705 q 896 915 1044 915 q 659 810 746 915 q 571 505 571 706 q 659 200 571 306 q 896 95 747 95 q 1132 200 1044 95 q 1219 505 1219 305 m 433 488 l 270 488 l 270 0 l 136 0 l 136 1010 l 270 1010 l 270 606 l 439 606 q 586 920 463 810 q 895 1031 709 1031 q 1235 891 1112 1031 q 1358 505 1358 751 q 1234 118 1358 257 q 895 -21 1109 -21 q 562 112 686 -21 q 433 488 437 245 z "}}}
